if (_typeface_js && _typeface_js.loadFace) _typeface_js.loadFace({"glyphs":{"S":{"x_min":172,"x_max":1140.921875,"ha":1169,"o":"m 496 889 q 522 809 496 844 q 591 744 548 774 q 689 686 635 714 q 801 631 744 659 q 913 569 858 602 q 1011 495 968 536 q 1080 401 1054 453 q 1106 282 1106 349 q 1086 170 1106 221 q 1033 78 1067 118 q 951 6 998 37 q 850 -45 905 -24 q 736 -75 796 -65 q 616 -86 677 -86 q 452 -65 532 -86 q 309 -3 372 -45 q 209 100 247 38 q 172 247 172 163 q 185 324 172 291 q 220 379 199 356 q 265 412 241 401 q 310 423 289 423 q 347 411 332 423 q 361 374 361 399 q 359 350 361 363 q 353 322 356 337 q 348 288 350 306 q 345 248 345 270 q 367 166 345 201 q 424 109 388 131 q 507 76 460 87 q 603 65 553 65 q 721 79 662 65 q 827 121 780 93 q 903 189 874 149 q 933 282 933 230 q 906 368 933 330 q 837 438 880 406 q 739 499 794 470 q 627 556 684 527 q 515 618 570 585 q 418 688 461 650 q 349 775 375 727 q 323 884 323 823 q 350 996 323 941 q 433 1095 377 1051 q 570 1166 488 1139 q 764 1194 653 1194 q 902 1172 835 1194 q 1023 1113 970 1151 q 1108 1021 1076 1074 q 1140 902 1140 967 q 1127 822 1140 863 q 1085 738 1114 782 q 1024 674 1057 695 q 963 654 990 654 q 930 665 943 654 q 918 701 918 677 q 926 743 918 719 q 953 798 934 767 q 980 854 971 828 q 989 902 989 880 q 970 963 989 937 q 918 1006 951 989 q 839 1033 885 1024 q 737 1042 792 1042 q 631 1028 676 1042 q 556 992 586 1014 q 511 943 525 970 q 496 889 496 916 "},"¦":{"x_min":208.609375,"x_max":547.71875,"ha":695,"o":"m 389 1172 q 422 1236 400 1215 q 468 1257 444 1257 q 497 1249 483 1257 q 523 1225 512 1241 q 540 1185 534 1209 q 547 1131 547 1161 q 547 1116 547 1123 q 546 1100 547 1108 q 540 1061 543 1081 q 533 1009 537 1041 q 523 942 528 978 q 513 869 518 906 q 503 799 508 833 q 494 738 498 765 q 483 693 491 712 q 464 663 475 675 q 441 645 453 651 q 414 640 428 640 q 382 648 398 640 q 353 669 366 656 q 333 702 341 683 q 325 744 325 721 q 325 753 325 749 q 325 763 325 758 q 334 826 329 791 q 346 899 340 862 q 358 977 351 937 q 369 1052 364 1016 q 379 1119 375 1088 q 389 1172 384 1150 m 271 412 q 283 454 274 436 q 304 483 292 472 q 331 501 316 495 q 361 508 346 508 q 391 501 376 508 q 417 480 405 494 q 436 445 429 466 q 443 396 443 424 q 442 380 443 388 q 440 362 441 371 q 422 229 429 283 q 409 132 415 175 q 398 48 403 88 q 383 -43 392 7 q 373 -78 380 -64 q 355 -98 365 -91 q 333 -107 345 -105 q 311 -109 322 -109 q 295 -108 303 -109 q 281 -108 288 -108 q 251 -99 265 -108 q 228 -75 238 -90 q 213 -41 218 -60 q 208 0 208 -21 q 209 22 208 10 q 212 46 209 33 q 220 96 216 74 q 227 138 223 117 q 234 182 230 159 q 243 236 238 205 q 255 310 248 267 q 271 412 262 352 "},"/":{"x_min":150.5625,"x_max":846.421875,"ha":877,"o":"m 629 1150 q 654 1188 638 1169 q 692 1223 670 1208 q 742 1249 714 1239 q 803 1259 770 1259 q 828 1252 819 1259 q 840 1236 836 1246 q 845 1215 845 1226 q 846 1194 846 1204 q 842 1176 846 1188 q 833 1151 838 1164 q 821 1123 827 1137 q 811 1100 815 1109 q 729 910 775 1021 q 627 662 684 798 q 501 369 570 526 q 348 43 432 212 q 320 8 335 21 q 290 -11 305 -4 q 260 -19 275 -17 q 231 -22 245 -22 q 202 -20 217 -22 q 177 -13 188 -19 q 158 4 165 -7 q 150 37 150 15 q 157 79 150 55 q 177 133 163 102 q 206 200 186 155 q 254 307 226 245 q 314 442 281 368 q 381 595 346 516 q 452 753 416 673 q 520 907 487 833 q 580 1043 552 980 q 629 1150 609 1105 "},"y":{"x_min":43,"x_max":796.3125,"ha":658,"o":"m 351 -11 l 366 70 q 290 18 329 38 q 213 -1 250 -1 q 149 12 180 -1 q 95 50 118 25 q 57 110 71 74 q 43 190 43 145 q 51 298 43 249 q 71 420 59 347 q 99 533 83 492 q 136 617 115 575 q 181 663 152 647 q 238 679 210 679 q 278 667 261 679 q 295 631 295 655 q 293 615 295 623 q 288 596 292 606 q 267 522 276 565 q 246 408 259 479 q 224 294 232 337 q 216 219 216 252 q 219 186 216 202 q 227 157 221 170 q 243 137 233 144 q 269 129 254 129 q 315 151 294 129 q 350 203 335 172 q 374 266 365 234 q 386 321 383 299 l 440 575 q 459 615 445 597 q 491 646 473 633 q 529 664 510 658 q 567 671 549 671 q 602 661 588 671 q 616 632 616 652 q 614 618 616 626 q 606 570 611 600 q 594 500 601 539 q 575 391 587 461 q 555 279 563 322 q 520 63 538 178 q 564 91 541 74 q 617 137 588 108 q 683 208 647 165 q 763 316 719 251 l 796 165 q 765 122 784 144 q 721 78 744 99 q 672 36 687 47 q 623 -2 668 33 q 533 -64 609 -14 q 508 -109 515 -77 q 492 -229 501 -141 q 487 -267 488 -254 q 479 -329 483 -299 q 466 -396 475 -358 q 444 -465 456 -433 q 410 -528 431 -497 q 363 -581 389 -559 q 302 -617 338 -603 q 223 -630 266 -630 q 159 -622 189 -630 q 106 -598 130 -615 q 66 -554 81 -582 q 47 -488 50 -526 q 87 -336 42 -416 q 122 -274 112 -291 q 154 -224 132 -257 q 199 -167 175 -192 q 278 -81 247 -113 q 351 -11 308 -48 m 353 -174 q 260 -283 306 -208 q 186 -435 213 -358 q 209 -500 164 -500 q 238 -496 225 -500 q 262 -481 251 -492 q 281 -458 273 -471 q 298 -423 289 -446 q 314 -378 307 -400 q 332 -320 322 -356 q 341 -276 339 -300 q 348 -218 344 -252 q 353 -174 352 -184 "},"Ž":{"x_min":-32.046875,"x_max":878.296875,"ha":730,"o":"m 533 1419 q 572 1523 553 1474 q 589 1566 580 1544 q 605 1609 597 1588 q 620 1647 613 1629 q 632 1676 627 1664 q 658 1726 645 1708 q 685 1752 671 1744 q 713 1762 699 1760 q 742 1763 727 1763 q 756 1759 748 1763 q 771 1746 765 1754 q 783 1727 778 1738 q 788 1702 788 1716 q 783 1676 788 1689 l 672 1453 q 639 1390 653 1417 q 609 1344 624 1362 q 573 1317 593 1326 q 522 1308 552 1308 q 472 1319 492 1308 q 437 1352 451 1330 q 412 1405 423 1373 q 392 1477 402 1436 q 379 1514 384 1499 q 371 1539 375 1529 q 365 1560 368 1550 q 358 1583 362 1569 q 347 1616 354 1596 q 332 1666 341 1635 q 329 1677 330 1671 q 329 1689 329 1683 q 334 1719 329 1705 q 348 1743 339 1733 q 372 1760 358 1754 q 406 1766 387 1766 q 431 1762 419 1766 q 453 1748 442 1758 q 471 1720 463 1738 q 483 1676 478 1703 q 504 1558 495 1607 q 520 1478 513 1509 q 533 1419 527 1441 m 430 890 q 367 902 394 893 q 317 918 339 911 q 278 931 295 925 q 246 937 261 937 q 222 931 233 937 q 199 912 210 926 q 174 877 187 899 q 146 822 161 855 q 107 765 127 780 q 73 749 88 749 q 55 760 61 749 q 50 791 50 772 q 51 807 50 798 q 53 824 52 815 q 87 961 65 908 q 138 1043 110 1014 q 196 1083 166 1073 q 252 1094 226 1094 q 345 1087 322 1094 q 391 1072 367 1079 q 440 1056 415 1064 q 498 1048 464 1048 q 545 1047 523 1047 q 587 1047 567 1047 q 685 1048 649 1047 q 740 1050 721 1049 q 767 1052 760 1051 q 776 1053 773 1053 q 817 1035 805 1053 q 830 985 830 1017 q 828 964 830 975 q 825 941 827 953 q 815 928 824 937 q 787 908 807 919 q 642 753 708 831 q 522 603 576 676 q 426 466 468 530 q 353 351 384 402 q 304 268 323 301 q 276 225 284 235 l 273 209 q 284 204 273 209 q 312 191 294 198 q 350 173 329 183 q 394 156 372 164 q 438 142 416 148 q 475 137 459 137 q 573 148 530 137 q 652 177 617 160 q 717 213 688 194 q 771 246 746 231 q 800 257 786 257 q 829 248 815 257 q 854 227 843 240 q 871 198 865 214 q 878 167 878 182 q 866 131 878 145 q 800 85 841 111 q 708 36 759 59 q 600 -3 657 12 q 483 -20 542 -20 q 451 -14 474 -20 q 391 2 429 -9 q 302 36 354 15 q 181 86 250 56 q 112 45 147 57 q 50 32 78 32 q -9 50 13 32 q -32 100 -32 68 q -14 160 -32 126 q 43 234 2 194 l 541 890 q 509 889 525 890 q 474 888 492 888 q 430 890 453 888 "},"Á":{"x_min":87,"x_max":1267.59375,"ha":1095,"o":"m 879 1386 q 891 1412 883 1394 q 908 1453 898 1430 q 929 1502 918 1476 q 952 1554 940 1529 q 1010 1686 978 1615 q 1036 1719 1018 1709 q 1074 1729 1054 1729 q 1109 1723 1092 1729 q 1141 1704 1127 1716 q 1163 1674 1155 1691 q 1172 1637 1172 1657 q 1147 1571 1172 1605 q 1118 1532 1134 1554 q 1083 1488 1101 1511 q 1046 1441 1065 1464 q 1011 1397 1028 1418 q 980 1360 994 1377 q 958 1333 966 1343 q 935 1313 946 1319 q 912 1308 923 1308 q 884 1320 896 1308 q 873 1353 873 1333 q 874 1369 873 1360 q 879 1386 876 1377 m 1267 152 q 1231 118 1253 137 q 1181 79 1209 99 q 1122 42 1154 60 q 1057 9 1090 23 q 990 -13 1024 -4 q 926 -21 956 -21 q 882 -14 904 -21 q 843 13 861 -6 q 814 68 825 33 q 803 160 803 103 q 806 211 803 184 q 815 270 809 238 q 729 124 777 194 q 627 14 681 53 q 516 -45 573 -25 q 400 -66 458 -66 q 281 -43 337 -66 q 181 21 224 -21 q 112 130 137 65 q 87 305 87 195 q 102 443 87 371 q 146 588 117 515 q 217 733 175 661 q 311 870 258 805 q 426 990 363 935 q 560 1086 489 1045 q 710 1149 631 1126 q 873 1172 788 1172 q 909 1168 896 1172 q 930 1159 923 1165 q 939 1147 937 1153 q 941 1136 941 1141 q 941 1130 941 1133 q 940 1126 940 1127 l 940 1122 q 977 1109 959 1112 q 1014 1105 996 1107 q 1049 1098 1033 1104 q 1077 1077 1065 1093 q 1096 1030 1089 1061 q 1103 947 1103 1000 q 1098 855 1103 907 q 1077 749 1092 804 q 1046 637 1062 694 q 1015 526 1030 580 q 986 425 1000 473 q 960 342 973 377 q 956 286 958 312 q 954 233 954 261 q 955 197 954 211 q 959 175 956 183 q 967 164 962 167 q 979 161 971 161 q 1013 168 992 161 q 1057 187 1034 175 q 1106 212 1081 198 q 1155 239 1131 226 q 1199 265 1178 253 q 1233 284 1219 276 l 1267 152 m 948 1028 q 899 1039 924 1035 q 849 1042 873 1042 q 741 1021 794 1042 q 637 963 687 1000 q 541 878 587 927 q 456 772 495 829 q 384 654 416 715 q 329 533 352 593 q 294 415 306 472 q 282 309 282 357 q 320 138 282 190 q 439 85 358 85 q 534 106 489 85 q 618 162 579 127 q 689 250 657 196 q 745 349 721 305 q 785 434 769 393 q 807 505 800 475 l 948 1028 "},"g":{"x_min":36.609375,"x_max":791.5,"ha":658,"o":"m 228 -629 q 307 -615 271 -629 q 368 -580 343 -602 q 415 -527 394 -558 q 448 -464 435 -495 q 471 -395 461 -432 q 485 -327 481 -357 q 492 -266 488 -298 q 497 -228 494 -253 q 512 -108 505 -140 q 537 -64 519 -76 q 632 -2 567 -44 q 641 3 635 0 q 724 78 675 29 q 791 165 772 127 l 747 315 q 566 91 646 151 q 524 63 543 74 q 539 235 534 169 q 559 356 543 301 q 576 447 574 410 q 574 586 582 565 q 565 606 569 598 q 523 624 554 624 l 493 623 q 478 624 484 623 q 465 627 471 625 q 456 630 460 629 q 449 635 453 631 q 443 641 445 639 q 437 648 442 642 q 431 656 433 654 q 380 676 415 676 q 219 602 302 676 q 126 482 162 551 q 55 308 90 413 q 57 110 16 194 q 124 30 79 62 q 221 -1 168 -1 q 369 70 293 -1 l 355 -9 q 282 -79 313 -47 q 203 -165 251 -111 q 158 -223 180 -190 q 126 -273 136 -255 q 91 -335 117 -290 q 52 -486 46 -415 q 70 -553 55 -524 q 110 -597 85 -581 q 164 -621 135 -613 q 228 -629 193 -629 m 210 287 q 280 440 216 327 q 419 545 340 545 l 368 320 q 341 203 365 261 q 265 129 311 129 q 222 157 238 129 q 210 287 197 201 m 356 -173 q 351 -217 355 -183 q 344 -275 347 -251 q 335 -318 341 -299 q 318 -377 325 -355 q 301 -422 310 -399 q 284 -457 292 -445 q 265 -480 276 -469 q 241 -494 254 -490 q 212 -499 229 -499 q 189 -434 167 -499 q 263 -282 217 -357 q 356 -173 309 -207 "},"²":{"x_min":25,"x_max":645.03125,"ha":673,"o":"m 521 413 q 439 431 480 413 q 358 474 398 449 q 278 432 321 448 q 187 413 235 416 q 123 423 152 413 q 71 450 93 433 q 37 490 50 467 q 25 536 25 512 q 32 578 25 556 q 54 619 39 600 q 92 649 69 637 q 149 661 115 661 q 240 650 200 661 q 313 623 279 639 q 365 712 344 664 q 387 807 387 760 q 379 867 387 844 q 358 903 371 890 q 331 920 346 916 q 302 925 316 925 q 270 920 286 925 q 244 906 255 915 q 226 886 233 898 q 219 859 219 874 q 233 838 219 849 q 277 814 246 827 q 279 812 278 813 q 279 810 279 811 q 263 795 279 803 q 223 780 247 787 q 171 768 199 773 q 118 764 143 764 q 109 770 114 769 q 101 770 105 770 q 64 813 76 790 q 53 861 53 836 q 73 923 53 893 q 129 978 93 954 q 212 1018 165 1002 q 315 1033 260 1033 q 353 1030 329 1033 q 406 1020 378 1028 q 463 997 434 1011 q 515 958 492 982 q 554 899 539 934 q 568 817 568 864 q 560 763 568 794 q 536 698 552 732 q 498 627 521 663 q 446 557 475 591 q 491 547 468 550 q 542 543 515 543 q 560 552 550 543 q 579 571 570 561 q 597 591 589 582 q 609 600 605 600 q 637 596 629 600 q 645 578 645 592 q 640 553 645 569 q 631 504 636 536 q 621 473 628 489 q 601 443 614 457 q 569 421 588 430 q 521 413 549 413 m 178 521 q 240 553 204 521 q 213 563 226 559 q 189 568 200 568 q 151 563 163 568 q 140 553 140 559 q 152 531 140 541 q 178 521 164 521 "},"–":{"x_min":44.078125,"x_max":629.390625,"ha":672,"o":"m 107 260 q 85 264 96 260 q 64 276 73 268 q 49 299 55 285 q 44 333 44 313 q 50 374 44 359 q 68 398 56 390 q 94 409 79 406 q 126 411 109 411 l 547 411 q 588 406 572 411 q 613 393 604 401 q 626 373 622 384 q 629 350 629 363 q 624 315 629 331 q 610 286 620 298 q 584 267 600 274 q 544 260 568 260 l 107 260 "},"ë":{"x_min":61,"x_max":731.75,"ha":511,"o":"m 661 871 q 660 858 661 868 q 657 835 660 849 q 647 808 654 822 q 628 781 640 794 q 597 761 616 769 q 551 753 578 753 q 482 776 509 753 q 456 853 456 800 q 462 897 456 876 q 481 935 468 918 q 514 961 494 951 q 563 971 534 971 q 636 946 611 971 q 661 871 661 920 m 344 871 q 343 858 344 868 q 339 835 343 849 q 329 808 336 822 q 310 781 322 794 q 279 761 298 769 q 234 753 261 753 q 165 776 191 753 q 139 853 139 800 q 145 897 139 876 q 164 935 151 918 q 197 961 176 951 q 246 971 217 971 q 319 946 293 971 q 344 871 344 920 m 314 0 q 203 23 251 0 q 124 87 156 47 q 76 178 92 126 q 61 288 61 231 q 75 377 61 325 q 104 469 89 429 q 142 546 119 509 q 196 610 165 582 q 265 654 227 638 q 350 671 303 671 q 420 658 388 671 q 477 624 453 646 q 515 571 501 602 q 528 501 528 540 q 501 409 528 460 q 436 322 473 358 q 349 257 400 285 q 239 212 298 228 q 259 182 249 194 q 279 164 269 170 q 301 155 290 157 q 325 152 312 152 q 411 168 366 152 q 499 208 456 184 q 579 260 541 231 q 644 313 617 288 l 731 224 q 604 112 672 161 q 542 71 575 91 q 471 35 508 50 q 395 9 434 19 q 314 0 355 0 m 223 323 q 277 335 248 323 q 331 367 306 347 q 380 418 356 386 q 404 472 404 451 q 392 521 404 502 q 365 540 381 540 q 314 530 335 540 q 280 502 294 519 q 257 464 266 485 q 237 410 249 442 q 225 358 226 379 q 223 323 223 337 "},"ƒ":{"x_min":6.78125,"x_max":938.59375,"ha":891,"o":"m 384 716 q 409 855 397 787 q 443 982 422 923 q 492 1089 464 1041 q 560 1172 521 1138 q 650 1226 599 1207 q 766 1245 701 1245 q 814 1241 784 1245 q 871 1224 843 1236 q 918 1193 898 1212 q 938 1143 938 1173 q 934 1116 938 1133 q 920 1084 929 1100 q 897 1057 911 1069 q 864 1046 882 1046 q 837 1053 851 1046 q 807 1070 822 1060 q 775 1086 791 1079 q 743 1094 758 1094 q 682 1073 710 1094 q 630 1008 654 1053 q 591 890 606 963 q 554 716 576 818 l 735 716 q 783 699 766 716 q 801 651 801 683 q 781 602 801 618 q 735 586 761 586 l 531 586 q 489 405 507 491 q 450 244 471 318 q 403 108 429 169 q 341 4 377 47 q 257 -62 305 -39 q 145 -86 210 -86 q 106 -81 130 -86 q 61 -65 83 -77 q 22 -33 38 -53 q 6 15 6 -13 q 11 42 6 26 q 24 74 15 59 q 47 101 33 90 q 81 113 61 113 q 96 105 88 113 q 115 89 105 98 q 134 72 124 80 q 154 65 145 65 q 198 74 177 65 q 238 106 219 83 q 274 166 257 129 q 301 263 290 204 q 327 401 312 322 q 358 586 341 481 l 238 586 q 188 602 203 586 q 173 651 173 618 q 179 692 173 678 q 206 711 185 706 q 266 716 226 716 q 384 716 307 716 "},"Î":{"x_min":-67.828125,"x_max":839.6875,"ha":585,"o":"m 651 1655 q 605 1551 627 1600 q 586 1508 596 1530 q 567 1465 576 1485 q 550 1427 558 1445 q 537 1397 542 1410 q 508 1348 522 1365 q 479 1322 494 1330 q 450 1312 465 1314 q 422 1311 436 1311 q 407 1315 414 1311 q 392 1327 399 1319 q 382 1347 386 1336 q 379 1372 378 1358 q 386 1398 380 1385 l 510 1621 q 547 1684 530 1656 q 580 1729 563 1711 q 617 1757 596 1747 q 669 1766 638 1766 q 718 1755 699 1766 q 751 1722 738 1744 q 773 1669 764 1700 q 789 1597 781 1637 q 799 1559 795 1574 q 805 1534 802 1545 q 811 1514 808 1523 q 817 1491 813 1504 q 825 1458 820 1477 q 838 1408 830 1439 q 839 1384 840 1396 q 817 1330 838 1353 q 757 1308 796 1308 q 732 1312 744 1308 q 711 1326 720 1316 q 695 1354 701 1336 q 686 1397 688 1371 q 672 1516 678 1467 q 661 1596 665 1565 q 651 1655 655 1633 m 210 950 q 207 949 210 950 q 203 973 205 949 q 201 1038 201 997 q 209 1059 201 1046 q 234 1088 216 1073 q 280 1118 252 1103 q 353 1146 309 1133 q 456 1165 397 1158 q 593 1173 515 1173 q 698 1166 660 1173 q 754 1149 735 1160 q 778 1125 773 1139 q 782 1096 782 1110 q 779 1067 782 1081 q 761 1041 775 1052 q 718 1023 747 1029 q 640 1016 690 1016 q 596 1018 618 1016 q 564 888 577 946 q 539 783 550 831 q 519 692 528 735 q 499 607 509 650 q 478 516 489 564 q 452 409 467 469 q 418 274 437 349 q 375 104 399 199 q 393 103 379 104 q 427 98 408 101 q 467 89 446 95 q 506 76 489 84 q 535 57 524 68 q 547 33 547 47 q 498 -21 547 5 q 452 -21 484 -21 q 378 -21 421 -21 q 286 -21 335 -21 q 187 -21 237 -21 q 91 -21 138 -22 q 10 -21 45 -21 q -46 -20 -25 -20 q -67 -18 -67 -19 q -61 -11 -67 -16 q -46 0 -54 -7 q -31 19 -38 7 q -21 47 -23 30 q 1 68 -20 58 q 53 87 23 79 q 118 101 84 96 q 179 108 152 106 q 224 286 201 197 q 264 457 247 374 q 304 621 282 540 q 347 774 326 701 q 383 905 368 846 q 413 1004 397 963 q 369 999 388 1001 q 335 993 350 996 q 307 985 320 989 q 279 976 294 981 q 249 964 265 971 q 210 950 232 958 "},"e":{"x_min":61,"x_max":731.75,"ha":511,"o":"m 314 0 q 203 23 251 0 q 124 87 156 47 q 76 178 92 126 q 61 288 61 231 q 75 377 61 325 q 104 469 89 429 q 142 546 119 509 q 196 610 165 582 q 265 654 227 638 q 350 671 303 671 q 420 658 388 671 q 477 624 453 646 q 515 571 501 602 q 528 501 528 540 q 501 409 528 460 q 436 322 473 358 q 349 257 400 285 q 239 212 298 228 q 259 182 249 194 q 279 164 269 170 q 301 155 290 157 q 325 152 312 152 q 411 168 366 152 q 499 208 456 184 q 579 260 541 231 q 644 313 617 288 l 731 224 q 604 112 672 161 q 542 71 575 91 q 471 35 508 50 q 395 9 434 19 q 314 0 355 0 m 223 323 q 277 335 248 323 q 331 367 306 347 q 380 418 356 386 q 404 472 404 451 q 392 521 404 502 q 365 540 381 540 q 314 530 335 540 q 280 502 294 519 q 257 464 266 485 q 237 410 249 442 q 225 358 226 379 q 223 323 223 337 "},"Ã":{"x_min":87,"x_max":1267.59375,"ha":1095,"o":"m 1041 1424 q 1058 1445 1050 1433 q 1074 1466 1065 1454 q 1091 1492 1082 1478 q 1125 1524 1105 1514 q 1164 1535 1145 1535 q 1204 1522 1187 1535 q 1220 1485 1220 1509 q 1211 1449 1220 1468 q 1190 1410 1203 1434 q 1158 1363 1177 1386 q 1113 1324 1138 1340 q 1054 1308 1087 1308 q 1015 1313 1033 1308 q 976 1334 998 1319 q 921 1375 953 1349 q 838 1440 889 1400 q 822 1419 830 1430 q 805 1398 814 1410 q 788 1373 797 1386 q 755 1340 775 1351 q 715 1330 735 1330 q 676 1343 692 1330 q 659 1379 659 1356 q 668 1415 659 1396 q 689 1455 677 1431 q 722 1502 702 1479 q 767 1541 741 1525 q 826 1557 793 1557 q 864 1551 847 1557 q 904 1531 881 1546 q 958 1490 926 1516 q 1041 1424 991 1464 m 1267 152 q 1231 118 1253 137 q 1181 79 1209 99 q 1122 42 1154 60 q 1057 9 1090 23 q 990 -13 1024 -4 q 926 -21 956 -21 q 882 -14 904 -21 q 843 13 861 -6 q 814 68 825 33 q 803 160 803 103 q 806 211 803 184 q 815 270 809 238 q 729 124 777 194 q 627 14 681 53 q 516 -45 573 -25 q 400 -66 458 -66 q 281 -43 337 -66 q 181 21 224 -21 q 112 130 137 65 q 87 305 87 195 q 102 443 87 371 q 146 588 117 515 q 217 733 175 661 q 311 870 258 805 q 426 990 363 935 q 560 1086 489 1045 q 710 1149 631 1126 q 873 1172 788 1172 q 909 1168 896 1172 q 930 1159 923 1165 q 939 1147 937 1153 q 941 1136 941 1141 q 941 1130 941 1133 q 940 1126 940 1127 l 940 1122 q 977 1109 959 1112 q 1014 1105 996 1107 q 1049 1098 1033 1104 q 1077 1077 1065 1093 q 1096 1030 1089 1061 q 1103 947 1103 1000 q 1098 855 1103 907 q 1077 749 1092 804 q 1046 637 1062 694 q 1015 526 1030 580 q 986 425 1000 473 q 960 342 973 377 q 956 286 958 312 q 954 233 954 261 q 955 197 954 211 q 959 175 956 183 q 967 164 962 167 q 979 161 971 161 q 1013 168 992 161 q 1057 187 1034 175 q 1106 212 1081 198 q 1155 239 1131 226 q 1199 265 1178 253 q 1233 284 1219 276 l 1267 152 m 948 1028 q 899 1039 924 1035 q 849 1042 873 1042 q 741 1021 794 1042 q 637 963 687 1000 q 541 878 587 927 q 456 772 495 829 q 384 654 416 715 q 329 533 352 593 q 294 415 306 472 q 282 309 282 357 q 320 138 282 190 q 439 85 358 85 q 534 106 489 85 q 618 162 579 127 q 689 250 657 196 q 745 349 721 305 q 785 434 769 393 q 807 505 800 475 l 948 1028 "},"J":{"x_min":391,"x_max":1512.4375,"ha":1316,"o":"m 391 -174 q 425 12 391 -82 q 525 193 460 108 q 680 345 589 278 q 883 446 771 412 q 775 545 825 493 q 688 650 725 596 q 629 759 650 704 q 608 868 608 813 q 623 1001 608 938 q 665 1118 638 1064 q 728 1216 692 1172 q 807 1290 765 1259 q 895 1337 849 1320 q 987 1353 941 1353 q 1104 1322 1048 1353 q 1205 1222 1161 1290 q 1276 1044 1249 1153 q 1302 781 1302 935 q 1289 613 1302 734 q 1264 381 1276 492 q 1348 331 1306 355 q 1434 282 1391 306 q 1456 269 1443 276 q 1482 253 1469 261 q 1503 236 1494 244 q 1512 220 1512 227 q 1506 207 1512 214 q 1493 195 1500 201 q 1477 185 1485 189 q 1465 179 1469 181 q 1435 173 1454 173 q 1346 188 1397 173 q 1242 228 1295 202 q 1170 -1 1212 102 q 1079 -188 1128 -105 q 974 -332 1029 -270 q 862 -434 919 -393 q 750 -495 806 -474 q 642 -515 694 -515 q 543 -493 589 -515 q 463 -429 497 -472 q 410 -322 429 -386 q 391 -174 391 -258 m 564 -217 q 591 -322 564 -286 q 662 -358 618 -358 q 763 -318 707 -358 q 877 -196 820 -279 q 986 12 934 -114 q 1074 314 1038 139 l 1048 329 q 917 282 979 316 q 800 203 854 249 q 703 101 746 156 q 628 -10 659 46 q 581 -120 597 -66 q 564 -217 564 -174 m 781 911 q 805 803 781 857 q 871 697 829 750 q 973 593 914 644 q 1104 491 1032 541 q 1120 690 1111 586 q 1129 911 1129 794 q 1118 1046 1129 991 q 1091 1136 1108 1102 q 1050 1186 1074 1171 q 1001 1202 1027 1202 q 950 1189 976 1202 q 900 1156 924 1177 q 854 1106 875 1134 q 816 1045 832 1077 q 791 979 800 1013 q 781 911 781 944 "},"»":{"x_min":130.21875,"x_max":963.75,"ha":977,"o":"m 661 58 q 617 49 638 49 q 586 55 600 49 q 562 69 572 61 q 547 88 552 77 q 541 107 541 98 q 552 143 541 127 q 575 172 562 160 q 603 195 589 185 q 626 212 618 204 l 809 368 l 588 524 q 537 567 554 547 q 520 607 520 586 q 526 634 520 621 q 542 656 532 646 q 566 672 552 666 q 596 677 580 677 q 614 675 604 677 q 632 670 623 674 q 649 658 634 669 q 686 633 664 648 q 733 599 708 617 q 779 566 758 581 q 816 539 801 550 q 834 527 832 528 q 885 490 862 509 q 926 449 909 470 q 953 406 944 429 q 963 361 963 384 q 951 311 963 337 q 912 261 939 286 q 865 215 888 238 q 814 168 843 192 q 749 116 786 143 q 661 58 712 89 m 270 58 q 227 49 247 49 q 195 55 209 49 q 171 69 181 61 q 156 88 162 77 q 151 107 151 98 q 161 143 151 127 q 185 172 171 160 q 213 195 198 185 q 236 212 227 204 l 418 368 l 197 524 q 147 567 164 547 q 130 607 130 586 q 135 634 130 621 q 151 656 141 646 q 176 672 162 666 q 206 677 189 677 q 223 675 214 677 q 242 670 232 674 q 259 658 244 669 q 295 633 274 648 q 342 599 317 617 q 389 566 367 581 q 426 539 411 550 q 444 527 441 528 q 495 490 471 509 q 536 449 518 470 q 563 406 553 429 q 573 361 573 384 q 560 311 573 337 q 521 261 548 286 q 475 215 497 238 q 424 168 452 192 q 359 116 396 143 q 270 58 322 89 "},"©":{"x_min":73,"x_max":1100.46875,"ha":1214,"o":"m 562 22 q 346 56 438 22 q 193 150 254 91 q 102 284 132 208 q 73 442 73 360 q 90 570 73 506 q 141 694 107 634 q 225 804 174 753 q 341 894 275 856 q 489 953 407 931 q 667 975 570 975 q 807 959 745 975 q 917 916 869 943 q 1000 850 966 888 q 1057 767 1035 812 q 1089 672 1079 722 q 1100 571 1100 622 q 1084 440 1100 506 q 1036 313 1068 374 q 959 199 1005 252 q 853 106 913 145 q 720 44 793 67 q 562 22 647 22 m 564 130 q 688 148 632 130 q 791 199 745 167 q 871 274 836 231 q 928 365 905 317 q 963 465 951 414 q 975 567 975 517 q 956 682 975 628 q 898 777 938 736 q 795 842 858 818 q 643 867 732 867 q 511 849 572 867 q 402 800 451 831 q 314 727 352 769 q 250 637 276 685 q 211 537 224 589 q 198 434 198 485 q 220 319 198 374 q 287 222 242 264 q 401 155 332 180 q 564 130 470 130 m 560 219 q 466 238 506 219 q 399 289 426 257 q 358 363 371 321 q 345 452 345 405 q 352 524 345 487 q 375 599 360 562 q 412 669 390 636 q 463 729 434 703 q 528 769 492 754 q 605 785 563 785 q 668 775 639 785 q 717 747 696 765 q 749 705 737 729 q 760 654 760 681 q 754 613 760 633 q 737 576 748 592 q 709 549 726 559 q 674 539 693 539 q 638 552 647 539 q 629 589 629 565 q 631 619 629 602 q 634 647 634 635 q 630 668 634 660 q 618 676 627 676 q 570 662 590 676 q 537 627 551 648 q 516 580 524 605 q 503 530 507 554 q 498 485 499 505 q 496 456 496 465 q 500 411 496 434 q 515 369 505 388 q 543 339 526 351 q 589 327 561 327 q 625 333 605 327 q 665 347 645 338 q 704 366 685 356 q 737 385 723 376 q 750 388 744 388 q 765 383 758 388 q 778 369 772 377 q 786 350 783 360 q 789 329 789 339 q 785 308 789 318 q 772 294 781 299 q 709 256 743 272 q 641 230 679 242 q 560 219 603 219 "},"ò":{"x_min":43,"x_max":764,"ha":585,"o":"m 421 827 q 426 810 424 818 q 427 794 427 801 q 416 761 427 774 q 388 749 404 749 q 365 754 376 749 q 342 774 353 760 q 319 801 333 784 q 289 838 306 818 q 253 882 272 859 q 217 929 235 905 q 182 973 199 952 q 153 1012 165 995 q 128 1078 128 1048 q 136 1115 128 1098 q 159 1145 145 1132 q 191 1164 173 1157 q 226 1170 208 1170 q 263 1160 246 1170 q 290 1127 281 1150 q 348 995 321 1056 q 370 943 359 970 q 392 894 382 917 q 409 853 402 871 q 421 827 416 835 m 502 522 q 532 439 522 483 q 542 341 542 396 q 533 260 542 301 q 507 182 524 220 q 467 110 491 144 q 412 53 443 77 q 344 14 381 28 q 266 0 308 0 q 164 26 207 0 q 95 94 122 52 q 55 189 68 136 q 43 296 43 242 q 65 450 43 386 q 129 563 87 515 q 231 638 171 611 q 367 666 291 666 q 487 646 431 666 q 593 592 544 626 q 684 508 642 558 q 764 411 727 457 l 751 315 q 701 368 732 340 q 635 431 670 396 q 566 490 600 466 q 508 530 532 514 l 502 522 m 293 130 q 338 154 316 130 q 376 213 359 177 q 402 299 392 248 q 412 388 412 349 q 407 446 412 419 q 393 493 402 473 q 368 524 383 512 q 332 535 353 535 q 279 512 304 535 q 235 451 254 488 q 205 369 216 414 q 194 268 194 325 q 200 215 194 240 q 217 171 205 190 q 247 141 228 153 q 293 130 266 130 "},"^":{"x_min":63.078125,"x_max":693.828125,"ha":739,"o":"m 687 461 q 693 421 693 440 q 687 389 693 403 q 672 364 681 375 q 652 349 663 354 q 632 344 641 344 q 595 355 612 344 q 565 379 578 365 q 543 409 552 394 q 531 435 534 425 l 392 762 l 215 408 q 174 360 196 374 q 131 346 151 346 q 104 352 117 346 q 83 368 92 358 q 68 392 73 378 q 63 421 63 405 q 65 440 63 430 q 72 461 67 451 q 80 477 73 463 q 100 514 88 491 q 126 564 111 536 q 156 621 141 592 q 187 679 172 651 q 213 730 202 708 q 232 767 225 752 q 241 784 240 781 q 310 881 271 851 q 384 911 348 911 q 422 907 403 911 q 460 892 442 904 q 497 860 479 881 q 532 806 516 839 q 610 644 571 731 q 687 461 649 558 "},"«":{"x_min":130.21875,"x_max":963.75,"ha":977,"o":"m 432 58 q 343 116 380 89 q 279 168 307 143 q 228 215 250 192 q 181 261 205 238 q 142 311 154 286 q 130 361 130 337 q 140 406 130 384 q 167 449 149 429 q 208 490 184 470 q 259 527 231 509 q 276 539 261 528 q 314 566 292 550 q 360 599 335 581 q 407 633 385 617 q 444 658 429 648 q 461 670 459 669 q 479 675 470 674 q 497 677 489 677 q 527 672 513 677 q 551 656 541 666 q 567 634 561 646 q 573 607 573 621 q 556 567 573 586 q 505 524 539 547 l 284 368 l 467 212 q 490 195 475 204 q 518 172 504 185 q 541 143 531 160 q 552 107 552 127 q 546 88 552 98 q 531 69 541 77 q 507 55 521 61 q 476 49 493 49 q 432 58 455 49 m 823 58 q 734 116 771 89 q 669 168 697 143 q 618 215 641 192 q 572 261 596 238 q 533 311 545 286 q 520 361 520 337 q 530 406 520 384 q 557 449 540 429 q 598 490 575 470 q 649 527 622 509 q 667 539 651 528 q 704 566 682 550 q 751 599 726 581 q 798 633 776 617 q 834 658 819 648 q 851 670 849 669 q 870 675 861 674 q 887 677 879 677 q 917 672 904 677 q 942 656 931 666 q 957 634 952 646 q 963 607 963 621 q 946 567 963 586 q 896 524 929 547 l 675 368 l 857 212 q 880 195 866 204 q 908 172 895 185 q 932 143 922 160 q 942 107 942 127 q 937 88 942 98 q 922 69 931 77 q 898 55 912 61 q 866 49 884 49 q 823 58 846 49 "},"D":{"x_min":-85.953125,"x_max":954.84375,"ha":950,"o":"m 369 1178 q 567 1159 480 1178 q 718 1109 653 1141 q 828 1031 783 1076 q 901 933 873 986 q 942 821 929 880 q 954 699 954 761 q 935 513 954 613 q 880 331 916 414 q 791 177 844 249 q 670 51 738 105 q 521 -33 602 -2 q 344 -64 439 -64 q 280 -59 313 -64 q 216 -45 247 -54 q 157 -27 185 -37 q 109 -5 130 -16 q 95 0 100 -3 q 88 9 90 4 q 84 22 85 14 q 84 41 84 30 q 89 272 84 154 q 112 514 95 390 q 163 734 130 639 q 250 910 196 829 q 337 929 263 929 q 420 887 394 929 q 367 794 388 845 q 332 693 346 742 q 308 584 318 643 q 290 469 290 470 q 275 339 292 467 q 264 261 268 294 q 259 203 261 228 q 257 154 257 177 q 259 112 257 129 q 267 85 261 95 q 287 70 273 75 q 322 66 300 66 q 452 92 390 66 q 564 164 513 119 q 657 269 616 209 q 727 407 698 329 q 772 554 756 485 q 788 686 788 623 q 762 827 788 765 q 689 932 736 889 q 577 997 643 975 q 434 1020 512 1020 q 321 1013 377 1020 q 217 992 265 1007 q 133 956 169 978 q 78 904 97 934 q -2 786 29 827 q -56 744 -34 744 q -85 812 -85 744 q -68 931 -85 878 q -20 1025 -51 984 q 52 1094 10 1065 q 145 1141 95 1123 q 253 1169 196 1160 q 369 1178 310 1178 "},"ł":{"x_min":-67.140625,"x_max":718.953125,"ha":390,"o":"m 450 1081 q 442 1129 450 1129 q 354 1034 403 1129 q 296 894 321 970 q 413 920 355 907 q 450 1081 443 1010 m 282 157 q 519 289 351 157 l 579 146 q 241 0 360 0 q 116 117 168 0 q 65 389 65 230 q 111 721 65 537 q 109 721 110 721 q -8 698 6 698 q -35 708 -23 698 q -54 730 -47 717 q -67 767 -67 752 q -64 791 -67 783 q -56 805 -62 798 q -19 826 -43 821 q 48 841 4 831 q 151 863 92 850 q 153 863 152 863 q 330 1197 225 1082 q 496 1286 413 1286 q 601 1147 601 1286 q 559 951 601 1058 q 624 965 605 961 q 664 972 653 972 q 718 907 718 972 q 648 837 718 853 q 582 823 626 832 q 509 806 549 814 q 483 751 497 779 q 366 530 429 641 q 287 385 304 419 q 266 340 269 351 q 259 316 262 329 q 246 261 250 282 l 246 251 q 271 166 246 197 q 282 157 277 157 m 260 753 q 247 674 252 715 q 237 538 237 604 q 356 774 308 665 q 260 753 307 764 "},"ÿ":{"x_min":43,"x_max":796.3125,"ha":658,"o":"m 627 881 q 626 868 627 878 q 623 845 626 859 q 613 818 620 832 q 594 791 606 804 q 563 771 582 779 q 517 763 544 763 q 448 786 475 763 q 422 863 422 810 q 428 907 422 886 q 447 945 434 928 q 480 971 460 961 q 529 981 500 981 q 602 956 577 981 q 627 881 627 930 m 310 881 q 309 868 310 878 q 305 845 309 859 q 295 818 302 832 q 276 791 288 804 q 245 771 264 779 q 200 763 227 763 q 131 786 157 763 q 105 863 105 810 q 111 907 105 886 q 130 945 117 928 q 163 971 142 961 q 212 981 183 981 q 285 956 259 981 q 310 881 310 930 m 351 -11 l 366 70 q 290 18 329 38 q 213 -1 250 -1 q 149 12 180 -1 q 95 50 118 25 q 57 110 71 74 q 43 190 43 145 q 51 298 43 249 q 71 420 59 347 q 99 533 83 492 q 136 617 115 575 q 181 663 152 647 q 238 679 210 679 q 278 667 261 679 q 295 631 295 655 q 293 615 295 623 q 288 596 292 606 q 267 522 276 565 q 246 408 259 479 q 224 294 232 337 q 216 219 216 252 q 219 186 216 202 q 227 157 221 170 q 243 137 233 144 q 269 129 254 129 q 315 151 294 129 q 350 203 335 172 q 374 266 365 234 q 386 321 383 299 l 440 575 q 459 615 445 597 q 491 646 473 633 q 529 664 510 658 q 567 671 549 671 q 602 661 588 671 q 616 632 616 652 q 614 618 616 626 q 606 570 611 600 q 594 500 601 539 q 575 391 587 461 q 555 279 563 322 q 520 63 538 178 q 564 91 541 74 q 617 137 588 108 q 683 208 647 165 q 763 316 719 251 l 796 165 q 765 122 784 144 q 721 78 744 99 q 672 36 687 47 q 623 -2 668 33 q 533 -64 609 -14 q 508 -109 515 -77 q 492 -229 501 -141 q 487 -267 488 -254 q 479 -329 483 -299 q 466 -396 475 -358 q 444 -465 456 -433 q 410 -528 431 -497 q 363 -581 389 -559 q 302 -617 338 -603 q 223 -630 266 -630 q 159 -622 189 -630 q 106 -598 130 -615 q 66 -554 81 -582 q 47 -488 50 -526 q 87 -336 42 -416 q 122 -274 112 -291 q 154 -224 132 -257 q 199 -167 175 -192 q 278 -81 247 -113 q 351 -11 308 -48 m 353 -174 q 260 -283 306 -208 q 186 -435 213 -358 q 209 -500 164 -500 q 238 -496 225 -500 q 262 -481 251 -492 q 281 -458 273 -471 q 298 -423 289 -446 q 314 -378 307 -400 q 332 -320 322 -356 q 341 -276 339 -300 q 348 -218 344 -252 q 353 -174 352 -184 "},"Ł":{"x_min":-123.0625,"x_max":1026.796875,"ha":673,"o":"m 279 451 q 351 533 314 489 q 426 626 389 578 q 426 627 426 627 q 369 615 398 621 q 299 599 333 606 q 279 451 285 528 m -106 211 q -76 231 -97 217 q -26 265 -55 246 q 34 308 1 285 q 99 356 67 332 l 104 403 q 127 562 112 487 q 111 559 119 561 q 31 541 60 547 q 12 539 20 539 q -18 548 -6 539 q -38 570 -31 558 q -48 596 -45 583 q -50 615 -50 609 q -48 631 -50 623 q -40 646 -46 638 q -23 658 -33 653 q 3 668 -12 664 q 57 680 15 671 q 157 697 98 689 q 162 698 159 697 q 231 882 192 798 q 330 1053 276 980 q 438 1175 383 1126 q 548 1249 494 1224 q 648 1273 602 1273 q 712 1260 683 1273 q 762 1221 741 1247 q 794 1155 783 1194 q 806 1062 806 1115 q 786 931 806 1000 q 748 831 771 882 q 866 857 813 845 q 950 875 920 868 q 960 875 954 875 q 971 875 965 875 q 991 872 982 875 q 1009 862 1001 869 q 1022 842 1017 855 q 1026 811 1026 830 q 1023 791 1026 801 q 1012 772 1020 781 q 991 755 1005 763 q 956 743 977 748 q 897 730 939 739 q 795 708 854 721 q 666 679 736 695 q 647 650 657 665 q 538 511 598 578 q 410 385 479 445 q 267 279 341 326 q 264 213 265 237 q 263 175 263 188 q 263 157 263 162 q 263 150 263 152 q 265 138 263 143 q 275 130 267 133 q 294 125 282 127 q 326 123 306 123 q 408 151 357 123 l 636 216 q 647 208 641 211 q 657 205 652 205 q 687 199 675 205 q 708 183 700 193 q 720 160 716 173 q 725 132 725 146 q 720 108 725 120 q 708 85 716 96 q 687 67 700 75 q 658 57 675 60 q 520 17 590 35 q 457 0 490 8 q 392 -19 425 -9 q 323 -31 358 -28 q 255 -33 288 -33 q 173 -17 205 -33 q 122 26 140 0 q 96 91 103 54 q 88 168 88 127 q -10 102 30 127 q -62 78 -51 78 q -84 86 -74 78 q -104 106 -95 93 q -117 133 -112 118 q -123 164 -123 149 q -120 190 -123 177 q -106 211 -116 203 m 539 786 q 558 819 550 803 q 605 912 586 867 q 629 998 624 958 q 632 1024 631 1012 q 633 1048 633 1037 q 622 1104 633 1086 q 593 1122 611 1122 q 542 1099 571 1122 q 481 1034 513 1076 q 416 933 449 992 q 356 800 384 873 q 336 741 345 771 q 442 764 387 752 q 539 786 490 775 "},"í":{"x_min":65,"x_max":499.0625,"ha":364,"o":"m 148 827 q 160 853 152 835 q 177 894 167 871 q 198 943 187 917 q 221 995 209 970 q 279 1127 247 1056 q 305 1160 287 1150 q 343 1170 323 1170 q 378 1164 361 1170 q 410 1145 396 1157 q 432 1115 424 1132 q 441 1078 441 1098 q 416 1012 441 1046 q 387 973 403 995 q 352 929 370 952 q 315 882 334 905 q 280 838 297 859 q 249 801 263 818 q 227 774 235 784 q 204 754 215 760 q 181 749 192 749 q 153 761 165 749 q 142 794 142 774 q 143 810 142 801 q 148 827 145 818 m 499 144 q 438 97 474 122 q 360 50 402 71 q 274 14 317 28 q 191 0 230 0 q 131 10 155 0 q 92 37 107 20 q 71 80 77 55 q 65 136 65 106 q 74 235 65 179 q 98 353 83 292 q 129 474 113 413 q 156 585 144 534 q 175 615 161 602 q 207 635 189 627 q 245 647 225 643 q 279 650 264 650 q 318 640 308 650 q 328 612 328 629 q 321 569 328 597 q 304 505 313 541 q 283 428 294 469 q 262 347 273 387 q 245 267 251 306 q 238 197 238 228 q 245 148 238 166 q 273 130 252 130 q 327 147 297 130 q 387 188 357 164 q 447 238 418 212 q 499 282 476 264 l 499 144 "},"ˆ":{"x_min":76.90625,"x_max":537.6875,"ha":586,"o":"m 349 1039 q 303 935 325 984 q 284 892 294 914 q 265 849 274 869 q 248 811 256 829 q 235 781 240 794 q 206 732 220 749 q 177 706 192 714 q 148 696 163 698 q 120 695 134 695 q 105 699 112 695 q 90 711 97 703 q 80 731 84 720 q 77 756 76 742 q 84 782 78 769 l 208 1005 q 245 1068 228 1040 q 278 1113 261 1095 q 315 1141 294 1131 q 367 1150 336 1150 q 416 1139 397 1150 q 449 1106 436 1128 q 471 1053 462 1084 q 487 981 479 1021 q 497 943 493 958 q 503 918 500 929 q 509 898 506 907 q 515 875 511 888 q 523 842 518 861 q 536 792 528 823 q 537 768 538 780 q 515 714 536 737 q 455 692 494 692 q 430 696 442 692 q 409 710 418 700 q 393 738 399 720 q 384 781 386 755 q 370 900 376 851 q 359 980 363 949 q 349 1039 353 1017 "},"w":{"x_min":47.6875,"x_max":1005.34375,"ha":874,"o":"m 377 335 q 331 200 358 261 q 274 94 304 138 q 211 25 244 49 q 148 0 179 0 q 73 78 97 0 q 49 308 49 156 q 49 442 49 384 q 49 557 49 500 q 49 595 50 615 q 48 556 48 574 q 47 541 48 552 q 52 552 47 531 q 67 595 58 573 q 90 636 76 617 q 124 666 105 654 q 170 678 143 678 l 188 677 q 237 665 220 677 q 255 634 255 654 l 200 240 l 209 240 q 265 380 239 310 q 309 497 290 451 q 345 576 328 542 q 383 632 362 610 q 429 666 403 655 q 489 677 454 677 q 535 665 519 677 q 551 634 551 653 l 488 240 l 498 240 l 667 630 q 702 663 675 649 q 767 678 729 678 q 829 662 805 678 q 853 621 853 646 q 846 580 853 602 q 833 540 840 558 q 818 508 825 521 q 811 493 812 495 q 780 430 796 466 q 755 375 764 393 q 734 337 743 355 q 759 290 744 311 q 791 257 772 272 q 836 243 810 243 q 888 254 858 243 q 942 281 917 266 q 1005 320 973 298 l 1005 156 q 912 108 960 126 q 820 91 864 91 q 755 99 786 91 q 701 126 724 108 q 663 174 677 145 q 649 246 649 204 q 601 147 626 192 q 549 69 576 102 q 495 18 523 37 q 441 0 468 0 q 425 15 432 0 q 413 54 418 29 q 405 111 408 79 q 400 181 402 144 q 398 256 399 217 q 397 331 397 295 l 377 335 "},"$":{"x_min":147,"x_max":1122.78125,"ha":1169,"o":"m 722 1269 q 730 1297 724 1283 q 749 1321 737 1310 q 779 1339 761 1332 q 819 1346 796 1346 q 839 1341 831 1346 q 853 1327 848 1335 q 861 1309 859 1319 q 864 1293 864 1300 q 860 1281 864 1288 q 855 1265 856 1273 q 852 1249 854 1257 q 850 1236 851 1242 l 839 1172 q 947 1141 896 1162 q 1037 1092 998 1121 q 1099 1024 1076 1062 q 1122 941 1122 986 q 1116 896 1122 915 q 1098 865 1109 877 q 1074 847 1088 853 q 1045 841 1060 841 q 1014 847 1030 841 q 987 867 999 854 q 967 898 974 879 q 960 941 960 917 q 922 1002 960 975 q 816 1042 884 1030 l 749 656 q 847 597 799 628 q 931 527 894 565 q 991 444 968 490 q 1013 342 1013 398 q 986 207 1013 267 q 909 105 959 148 q 790 36 860 62 q 636 3 720 11 l 617 -105 q 606 -130 613 -121 q 590 -143 599 -139 q 572 -150 581 -148 q 553 -151 562 -151 q 542 -151 547 -151 q 531 -150 536 -150 q 511 -144 520 -150 q 495 -129 502 -139 q 485 -105 489 -118 q 482 -76 482 -91 q 483 -61 482 -69 q 486 -44 484 -53 q 489 -26 487 -38 q 494 3 491 -14 q 358 28 422 8 q 248 80 295 47 q 174 163 201 114 q 147 278 147 212 q 152 333 147 304 q 168 390 157 362 q 198 445 179 419 q 243 492 216 472 q 307 524 270 511 q 390 536 343 536 q 424 530 410 536 q 449 513 439 523 q 463 491 458 503 q 468 465 468 478 q 453 424 468 442 q 410 406 439 406 q 377 401 395 406 q 344 383 359 396 q 319 345 329 369 q 309 280 309 320 q 365 177 309 214 q 518 133 421 140 l 598 578 q 493 638 545 607 q 400 705 441 668 q 334 786 359 742 q 309 886 309 830 q 334 988 309 937 q 409 1081 359 1039 q 534 1150 459 1123 q 706 1182 608 1178 l 722 1269 m 851 342 q 841 389 851 366 q 814 431 831 411 q 774 468 797 450 q 723 504 751 486 l 662 153 q 739 180 705 163 q 799 222 774 198 q 837 276 823 246 q 851 342 851 306 m 490 907 q 501 857 490 880 q 529 812 511 834 q 572 772 547 791 q 626 733 596 752 q 654 893 640 816 q 679 1030 668 970 q 593 1013 628 1025 q 534 984 557 1001 q 501 947 511 967 q 490 907 490 927 "},"\\":{"x_min":105.125,"x_max":786.0625,"ha":846,"o":"m 282 1194 q 331 1084 302 1149 q 395 943 360 1019 q 467 783 430 867 q 542 616 505 699 q 614 456 579 534 q 678 313 649 378 q 729 202 708 249 q 759 134 750 155 q 779 79 773 102 q 786 37 786 55 q 765 -10 786 4 q 714 -26 744 -26 q 679 -21 697 -26 q 644 -7 661 -16 q 612 14 627 1 q 588 43 598 27 q 435 369 504 212 q 309 662 366 526 q 206 910 252 798 q 125 1100 160 1021 q 109 1144 114 1124 q 105 1182 105 1165 q 111 1218 105 1202 q 127 1243 117 1233 q 152 1259 138 1254 q 181 1264 166 1264 q 237 1247 209 1264 q 282 1194 265 1229 "},"Ì":{"x_min":-67.828125,"x_max":782.703125,"ha":585,"o":"m 660 1386 q 665 1369 663 1377 q 666 1353 666 1360 q 655 1320 666 1333 q 627 1308 643 1308 q 604 1313 615 1308 q 581 1333 592 1319 q 558 1360 572 1343 q 528 1397 545 1377 q 492 1441 511 1418 q 456 1488 474 1464 q 421 1532 438 1511 q 392 1571 404 1554 q 367 1637 367 1607 q 375 1674 367 1657 q 398 1704 384 1691 q 430 1723 412 1716 q 465 1729 447 1729 q 502 1719 485 1729 q 529 1686 520 1709 q 587 1554 560 1615 q 609 1502 598 1529 q 631 1453 621 1476 q 648 1412 641 1430 q 660 1386 655 1394 m 210 950 q 207 949 210 950 q 203 973 205 949 q 201 1038 201 997 q 209 1059 201 1046 q 234 1088 216 1073 q 280 1118 252 1103 q 353 1146 309 1133 q 456 1165 397 1158 q 593 1173 515 1173 q 698 1166 660 1173 q 754 1149 735 1160 q 778 1125 773 1139 q 782 1096 782 1110 q 779 1067 782 1081 q 761 1041 775 1052 q 718 1023 747 1029 q 640 1016 690 1016 q 596 1018 618 1016 q 564 888 577 946 q 539 783 550 831 q 519 692 528 735 q 499 607 509 650 q 478 516 489 564 q 452 409 467 469 q 418 274 437 349 q 375 104 399 199 q 393 103 379 104 q 427 98 408 101 q 467 89 446 95 q 506 76 489 84 q 535 57 524 68 q 547 33 547 47 q 498 -21 547 5 q 452 -21 484 -21 q 378 -21 421 -21 q 286 -21 335 -21 q 187 -21 237 -21 q 91 -21 138 -22 q 10 -21 45 -21 q -46 -20 -25 -20 q -67 -18 -67 -19 q -61 -11 -67 -16 q -46 0 -54 -7 q -31 19 -38 7 q -21 47 -23 30 q 1 68 -20 58 q 53 87 23 79 q 118 101 84 96 q 179 108 152 106 q 224 286 201 197 q 264 457 247 374 q 304 621 282 540 q 347 774 326 701 q 383 905 368 846 q 413 1004 397 963 q 369 999 388 1001 q 335 993 350 996 q 307 985 320 989 q 279 976 294 981 q 249 964 265 971 q 210 950 232 958 "},"µ":{"x_min":22,"x_max":822.296875,"ha":652,"o":"m 591 604 q 587 556 591 586 q 577 488 583 525 q 563 410 570 450 q 550 335 556 370 q 539 275 543 301 q 534 238 534 249 q 535 202 534 219 q 539 173 536 186 q 549 154 542 161 q 570 148 557 148 q 606 155 585 148 q 652 175 628 163 q 701 204 676 188 q 749 237 726 220 q 790 272 772 255 q 820 304 809 289 q 821 264 820 282 q 821 229 821 245 q 821 194 821 212 q 822 155 822 177 q 785 122 807 140 q 736 87 763 105 q 679 53 709 69 q 618 24 649 37 q 558 5 588 12 q 503 -2 528 -2 q 459 8 477 -2 q 427 38 440 18 q 405 83 414 57 q 389 142 396 110 q 316 68 356 95 q 236 41 276 41 q 198 48 216 41 q 186 -49 191 -9 q 171 -120 181 -89 q 141 -167 160 -151 q 86 -182 121 -182 q 36 -159 51 -182 q 22 -89 22 -136 q 27 -1 22 -54 q 41 113 32 50 q 63 245 50 176 q 87 377 77 315 q 107 491 98 439 q 122 571 116 542 q 133 607 128 592 q 147 632 137 622 q 176 645 158 641 q 227 650 195 649 q 277 642 260 649 q 294 624 294 634 l 294 622 q 281 541 288 586 q 267 453 274 497 q 253 365 260 408 q 241 290 246 323 q 233 236 236 257 q 230 215 230 216 q 232 191 230 202 q 239 170 234 179 q 251 155 244 160 q 269 149 259 149 q 299 157 284 149 q 328 180 315 165 q 353 217 342 195 q 369 267 364 239 l 436 611 q 463 636 440 626 q 517 646 487 646 q 571 634 551 646 q 591 604 591 622 "},"Ç":{"x_min":65,"x_max":1197.90625,"ha":1023,"o":"m 1197 220 q 1133 181 1164 205 q 1070 127 1102 156 q 1004 67 1038 99 q 930 7 970 35 q 843 -44 890 -19 q 740 -88 797 -70 q 615 -118 683 -107 q 464 -130 547 -130 q 299 -93 372 -130 q 173 4 225 -57 q 93 148 121 66 q 65 321 65 230 q 78 456 65 384 q 117 603 92 528 q 179 752 143 677 q 262 895 216 826 q 364 1021 309 963 q 483 1123 420 1080 q 616 1191 546 1166 q 761 1216 686 1216 q 860 1198 810 1216 q 951 1145 911 1181 q 1016 1054 991 1109 q 1041 925 1041 999 q 1025 823 1041 874 q 982 725 1010 772 q 916 636 954 678 q 835 565 879 595 q 745 517 792 535 q 651 500 698 500 q 559 516 590 500 q 529 564 529 533 q 528 576 529 569 q 528 592 528 584 q 529 617 528 604 q 535 641 531 630 q 547 659 539 652 q 568 665 554 665 q 582 663 576 665 q 596 658 588 661 q 614 654 603 656 q 640 651 624 651 q 728 670 684 651 q 808 724 773 689 q 867 806 844 759 q 890 912 890 854 q 881 970 890 942 q 855 1018 873 997 q 808 1051 837 1039 q 738 1064 779 1064 q 642 1042 689 1064 q 553 984 596 1020 q 472 896 510 947 q 401 788 434 845 q 342 667 368 730 q 298 542 316 605 q 270 422 280 480 q 260 314 260 363 q 277 188 260 241 q 326 98 294 134 q 404 44 358 62 q 508 27 451 27 q 642 45 580 27 q 761 94 704 64 q 869 163 817 125 q 975 239 922 201 q 1082 312 1027 277 q 1197 371 1136 347 l 1197 220 m 516 -135 q 506 -247 509 -205 q 499 -313 502 -289 q 495 -348 497 -338 q 492 -366 494 -359 q 489 -382 491 -373 q 485 -410 488 -390 q 472 -454 482 -435 q 447 -486 461 -473 q 416 -506 433 -499 q 382 -513 398 -513 q 355 -508 368 -513 q 333 -493 343 -503 q 317 -467 323 -483 q 312 -432 312 -452 q 322 -372 312 -403 q 351 -306 333 -342 q 395 -228 370 -270 q 447 -135 419 -186 q 464 -111 452 -121 q 488 -101 475 -101 q 508 -106 500 -101 q 517 -125 517 -112 q 516 -135 517 -128 "},"’":{"x_min":108,"x_max":335.5,"ha":434,"o":"m 108 869 q 109 901 108 882 q 111 944 110 920 q 114 993 112 967 q 119 1044 116 1019 q 130 1171 123 1103 q 140 1208 130 1192 q 166 1235 150 1224 q 203 1252 182 1246 q 243 1258 223 1258 q 278 1254 261 1258 q 307 1240 294 1249 q 327 1217 320 1232 q 335 1184 335 1203 q 334 1168 335 1176 q 329 1150 332 1159 q 307 1078 319 1117 q 283 1000 296 1039 q 259 927 271 962 q 238 867 247 892 q 205 819 226 835 q 162 803 184 803 q 124 820 140 803 q 108 869 108 836 "},"-":{"x_min":43,"x_max":477.0625,"ha":521,"o":"m 412 477 q 432 475 421 477 q 454 467 444 473 q 470 451 463 461 q 477 425 477 441 q 474 398 477 412 q 461 373 470 384 q 435 354 452 361 q 390 347 418 347 l 108 347 q 74 354 87 347 q 54 373 61 362 q 45 397 47 384 q 43 420 43 410 q 45 439 43 429 q 53 457 47 449 q 73 471 60 466 q 108 477 87 477 l 412 477 "},"Q":{"x_min":65,"x_max":1107.328125,"ha":1023,"o":"m 1107 721 q 1093 553 1107 642 q 1051 377 1079 465 q 979 208 1023 290 q 877 62 936 127 q 743 -45 818 -2 q 576 -100 668 -88 q 633 -162 608 -132 q 681 -215 658 -192 q 731 -253 705 -238 q 790 -267 757 -267 q 853 -250 823 -267 q 909 -213 884 -233 q 965 -159 939 -190 q 979 -153 973 -153 q 990 -152 986 -152 q 1020 -165 1008 -155 q 1039 -189 1032 -175 q 1050 -219 1046 -204 q 1053 -249 1053 -235 q 1049 -273 1053 -266 q 1042 -284 1045 -280 q 1030 -296 1041 -284 q 997 -326 1018 -308 q 948 -364 977 -343 q 884 -402 919 -385 q 809 -431 849 -419 q 727 -443 770 -443 q 639 -423 675 -443 q 578 -372 603 -403 q 536 -304 552 -341 q 506 -230 519 -266 q 480 -164 492 -194 q 451 -118 468 -134 q 275 -50 348 -100 q 155 72 202 0 q 86 236 108 145 q 65 426 65 327 q 82 616 65 518 q 133 806 99 713 q 219 981 168 898 q 338 1125 270 1063 q 490 1223 406 1187 q 675 1259 575 1259 q 856 1220 776 1259 q 992 1111 937 1181 q 1077 942 1048 1041 q 1107 721 1107 842 m 519 43 q 615 64 571 43 q 697 122 660 86 q 765 209 734 159 q 819 315 795 259 q 860 433 842 372 q 889 553 878 493 q 906 667 901 612 q 912 768 912 723 q 898 911 912 845 q 857 1026 884 977 q 787 1101 829 1074 q 687 1129 745 1129 q 575 1097 630 1129 q 474 1010 521 1065 q 387 885 426 956 q 319 734 347 814 q 275 573 291 655 q 260 415 260 491 q 277 267 260 335 q 328 149 295 199 q 410 71 362 99 q 519 43 458 43 "},"M":{"x_min":-37,"x_max":1642.890625,"ha":1472,"o":"m 298 66 q 285 33 295 46 q 260 13 275 20 q 230 2 246 5 q 199 0 214 0 q 165 3 181 0 q 135 15 148 7 q 115 34 122 22 q 107 59 107 45 q 110 110 107 87 q 118 157 113 133 q 151 304 136 236 q 185 432 166 372 q 211 549 204 492 q 224 665 218 607 q 230 785 231 723 q 228 919 229 848 q 228 935 228 925 q 225 953 228 944 q 218 968 223 961 q 203 974 213 974 q 164 962 187 974 q 115 932 140 951 q 63 888 89 913 q 16 833 38 863 q 3 819 12 823 q -16 815 -5 815 q -23 820 -19 815 q -29 834 -26 826 q -34 851 -32 842 q -37 868 -37 861 q -34 875 -37 872 q 22 1009 -9 955 q 89 1095 54 1063 q 162 1140 125 1127 q 232 1154 198 1154 q 304 1138 275 1154 q 349 1093 333 1122 q 373 1024 366 1065 q 379 934 379 983 q 372 844 379 895 q 357 737 365 793 q 336 624 349 680 q 311 521 323 569 q 363 694 333 611 q 428 849 393 777 q 503 980 463 921 q 585 1081 543 1039 q 671 1146 627 1123 q 756 1169 714 1169 q 814 1155 788 1169 q 859 1113 840 1142 q 889 1041 878 1085 q 899 938 899 998 q 898 921 899 933 q 896 895 897 910 q 892 863 894 880 q 887 829 889 846 q 876 741 882 788 l 890 741 q 955 922 916 842 q 1042 1057 993 1002 q 1145 1143 1090 1113 q 1260 1173 1201 1173 q 1333 1149 1301 1173 q 1387 1083 1365 1124 q 1420 985 1408 1041 q 1431 867 1431 929 q 1420 744 1431 808 q 1397 617 1408 680 q 1375 493 1386 554 q 1354 377 1364 432 q 1336 277 1344 323 q 1328 208 1328 231 q 1343 165 1328 178 q 1385 152 1357 152 q 1418 160 1400 152 q 1452 183 1435 169 q 1486 215 1469 197 q 1519 252 1503 233 q 1590 351 1555 295 q 1596 337 1590 351 q 1612 298 1601 326 q 1642 218 1623 270 q 1573 117 1608 158 q 1499 49 1537 75 q 1424 12 1462 23 q 1348 0 1385 0 q 1276 13 1311 0 q 1214 51 1241 26 q 1171 114 1187 77 q 1155 201 1155 152 q 1155 212 1155 206 q 1156 224 1155 218 q 1168 321 1159 269 q 1187 429 1177 373 q 1207 542 1197 485 q 1228 656 1218 599 q 1248 768 1238 713 q 1258 865 1258 823 q 1255 920 1258 895 q 1247 962 1253 945 q 1230 989 1241 979 q 1199 998 1218 998 q 1126 973 1160 998 q 1062 904 1092 948 q 1005 800 1031 860 q 955 670 979 740 q 915 523 931 600 q 879 365 899 447 q 849 210 859 283 q 825 69 838 137 q 811 37 820 50 q 788 16 801 24 q 761 4 775 7 q 733 0 747 0 q 705 5 718 0 q 680 23 691 11 q 663 53 670 34 q 657 97 657 71 q 652 158 644 115 q 672 260 660 201 q 699 394 683 320 q 727 540 715 468 q 754 685 739 613 q 769 819 769 758 q 766 894 769 861 q 757 951 764 928 q 734 986 749 974 q 696 998 720 998 q 651 972 677 998 q 597 901 626 946 q 537 794 568 856 q 475 662 506 733 q 416 513 445 590 q 369 357 388 435 q 331 204 350 278 q 298 66 313 130 "},"C":{"x_min":65,"x_max":1197.90625,"ha":1023,"o":"m 1197 220 q 1133 181 1164 205 q 1070 127 1102 156 q 1004 67 1038 99 q 930 7 970 35 q 843 -44 890 -19 q 740 -88 797 -70 q 615 -118 683 -107 q 464 -130 547 -130 q 299 -93 372 -130 q 173 4 225 -57 q 93 148 121 66 q 65 321 65 230 q 78 456 65 384 q 117 603 92 528 q 179 752 143 677 q 262 895 216 826 q 364 1021 309 963 q 483 1123 420 1080 q 616 1191 546 1166 q 761 1216 686 1216 q 860 1198 810 1216 q 951 1145 911 1181 q 1016 1054 991 1109 q 1041 925 1041 999 q 1025 823 1041 874 q 982 725 1010 772 q 916 636 954 678 q 835 565 879 595 q 745 517 792 535 q 651 500 698 500 q 559 516 590 500 q 529 564 529 533 q 528 576 529 569 q 528 592 528 584 q 529 617 528 604 q 535 641 531 630 q 547 659 539 652 q 568 665 554 665 q 582 663 576 665 q 596 658 588 661 q 614 654 603 656 q 640 651 624 651 q 728 670 684 651 q 808 724 773 689 q 867 806 844 759 q 890 912 890 854 q 881 970 890 942 q 855 1018 873 997 q 808 1051 837 1039 q 738 1064 779 1064 q 642 1042 689 1064 q 553 984 596 1020 q 472 896 510 947 q 401 788 434 845 q 342 667 368 730 q 298 542 316 605 q 270 422 280 480 q 260 314 260 363 q 277 188 260 241 q 326 98 294 134 q 404 44 358 62 q 508 27 451 27 q 642 45 580 27 q 761 94 704 64 q 869 163 817 125 q 975 239 922 201 q 1082 312 1027 277 q 1197 371 1136 347 l 1197 220 "},"œ":{"x_min":43,"x_max":1081.921875,"ha":882,"o":"m 664 0 q 598 12 629 0 q 543 46 568 24 q 502 96 519 67 q 477 160 485 126 q 437 96 461 126 q 385 46 413 67 q 327 12 357 24 q 266 0 296 0 q 164 27 207 0 q 95 96 122 53 q 55 192 68 138 q 43 301 43 246 q 54 386 43 343 q 85 467 65 428 q 132 539 105 506 q 190 598 158 573 q 256 637 222 623 q 325 651 291 651 q 418 621 373 651 q 499 521 463 590 q 686 651 563 651 q 757 639 724 651 q 813 605 789 627 q 851 551 837 583 q 864 481 864 520 q 844 399 864 440 q 786 322 823 358 q 699 257 750 285 q 590 212 649 228 q 610 182 600 194 q 630 164 620 170 q 651 155 640 157 q 675 152 662 152 q 761 168 716 152 q 849 208 806 184 q 930 260 892 231 q 994 313 967 288 l 1081 224 q 955 112 1022 161 q 892 71 925 91 q 821 35 858 50 q 745 9 784 19 q 664 0 705 0 m 293 130 q 338 154 316 130 q 376 214 359 178 q 402 293 392 250 q 412 377 412 337 q 407 433 412 407 q 393 479 402 460 q 368 509 383 498 q 332 521 353 521 q 279 497 304 521 q 235 438 254 474 q 205 358 216 402 q 194 274 194 314 q 200 218 194 244 q 217 173 205 192 q 247 142 228 153 q 293 130 266 130 m 574 323 q 627 335 599 323 q 681 367 656 347 q 723 408 706 386 q 740 452 740 431 q 728 501 740 482 q 701 521 717 521 q 651 510 672 521 q 617 482 630 499 q 594 444 603 465 q 581 401 586 422 q 576 358 577 379 q 574 323 574 338 "},"!":{"x_min":147,"x_max":668.96875,"ha":803,"o":"m 262 347 q 282 491 268 417 q 316 639 295 565 q 356 785 336 712 q 395 924 376 857 q 430 1049 413 991 q 459 1155 446 1108 q 486 1208 468 1188 q 525 1239 503 1228 q 570 1254 546 1250 q 616 1258 593 1258 q 637 1256 627 1258 q 654 1246 647 1253 q 665 1226 661 1239 q 668 1194 668 1214 q 667 1164 668 1180 q 661 1125 665 1148 q 614 967 638 1048 q 551 796 590 887 q 461 596 511 705 q 349 347 411 487 q 341 333 347 339 q 328 322 336 326 q 310 315 319 318 q 292 313 300 313 q 270 318 279 313 q 260 337 260 324 q 262 347 260 340 m 380 114 q 377 102 378 111 q 373 80 376 93 q 362 53 369 67 q 342 26 355 38 q 309 7 329 15 q 258 -1 288 -1 q 212 4 233 -1 q 177 22 192 10 q 155 54 163 35 q 147 99 147 73 q 154 143 147 122 q 176 181 161 164 q 214 207 191 197 q 271 217 238 217 q 352 191 324 217 q 380 117 380 165 q 380 114 380 115 "},"ç":{"x_min":43,"x_max":661.328125,"ha":511,"o":"m 297 0 q 187 23 234 0 q 107 85 139 46 q 59 174 75 123 q 43 280 43 225 q 56 374 43 319 q 86 470 70 429 q 125 548 102 511 q 180 614 149 586 q 249 658 211 642 q 333 675 287 675 q 409 663 374 675 q 468 630 444 651 q 507 580 493 609 q 521 518 521 552 q 515 473 521 495 q 489 420 508 451 q 452 379 470 390 q 411 369 434 369 q 367 386 377 369 q 357 432 351 412 q 369 482 359 443 q 370 507 370 488 q 366 534 370 523 q 351 545 363 545 q 304 532 324 545 q 271 497 285 518 q 244 437 257 476 q 225 371 230 398 q 217 321 219 345 q 216 281 216 297 q 221 230 216 256 q 238 181 225 203 q 272 145 251 159 q 326 130 293 130 q 398 150 358 130 q 477 201 437 170 q 552 268 516 231 q 614 337 588 304 l 661 258 q 551 129 610 186 q 496 81 526 104 q 435 40 467 58 q 367 11 402 22 q 297 0 333 0 m 352 30 q 342 -81 345 -39 q 335 -147 338 -123 q 331 -182 333 -172 q 328 -200 330 -193 q 325 -216 327 -207 q 321 -244 324 -224 q 308 -288 318 -269 q 283 -320 297 -307 q 252 -340 269 -333 q 218 -347 234 -347 q 191 -342 204 -347 q 169 -327 179 -337 q 153 -301 159 -317 q 148 -266 148 -286 q 158 -206 148 -237 q 187 -140 169 -176 q 231 -62 206 -104 q 283 30 255 -20 q 300 54 288 44 q 324 64 311 64 q 344 59 336 64 q 353 40 353 53 q 352 30 353 37 "},"È":{"x_min":43,"x_max":1040.78125,"ha":877,"o":"m 685 1386 q 690 1369 688 1377 q 691 1353 691 1360 q 680 1320 691 1333 q 652 1308 668 1308 q 629 1313 640 1308 q 606 1333 617 1319 q 583 1360 597 1343 q 553 1397 570 1377 q 517 1441 536 1418 q 481 1488 499 1464 q 446 1532 463 1511 q 417 1571 429 1554 q 392 1637 392 1607 q 400 1674 392 1657 q 423 1704 409 1691 q 455 1723 437 1716 q 490 1729 472 1729 q 527 1719 510 1729 q 554 1686 545 1709 q 612 1554 585 1615 q 634 1502 623 1529 q 656 1453 646 1476 q 673 1412 666 1430 q 685 1386 680 1394 m 1002 167 q 877 66 947 109 q 732 -6 808 23 q 579 -50 657 -35 q 428 -65 501 -65 q 278 -46 348 -65 q 156 9 209 -28 q 73 105 104 47 q 43 242 43 163 q 67 376 43 312 q 143 489 92 440 q 275 569 195 538 q 468 602 356 599 q 339 623 394 602 q 248 681 284 644 q 194 766 212 717 q 176 868 176 814 q 193 961 176 919 q 241 1037 211 1003 q 314 1095 272 1070 q 405 1137 356 1120 q 507 1162 454 1154 q 616 1171 561 1171 q 772 1153 696 1171 q 908 1101 849 1136 q 1004 1015 968 1067 q 1040 894 1040 963 q 1024 846 1040 870 q 984 804 1007 822 q 935 774 960 785 q 892 763 909 763 q 878 788 878 763 q 885 845 878 810 q 909 934 892 881 q 855 964 891 949 q 775 991 819 979 q 679 1011 730 1003 q 579 1019 629 1019 q 492 1010 534 1019 q 419 984 450 1002 q 368 934 387 965 q 349 859 349 904 q 362 797 349 822 q 398 754 376 772 q 448 725 420 737 q 507 705 476 714 q 567 688 537 697 q 621 669 596 680 q 663 643 646 659 q 685 605 680 628 q 688 575 686 590 q 689 546 689 560 q 675 486 689 504 q 620 467 661 467 q 577 469 603 467 q 528 471 551 471 q 422 458 474 471 q 329 417 370 444 q 263 351 288 391 q 238 260 238 312 q 252 177 238 210 q 291 124 266 144 q 350 95 316 104 q 424 86 384 86 q 525 96 472 86 q 632 121 579 105 q 735 159 685 137 q 828 207 785 182 q 904 261 871 233 q 955 317 937 289 l 1002 167 "},"ﬁ":{"x_min":46,"x_max":998.09375,"ha":862,"o":"m 998 144 q 937 97 973 122 q 859 50 901 71 q 773 14 817 28 q 690 0 729 0 q 630 10 654 0 q 591 37 606 20 q 570 80 576 55 q 564 136 564 106 q 570 215 564 171 q 587 308 577 260 q 506 286 546 294 q 435 274 467 277 q 365 269 399 269 q 412 176 391 224 q 446 83 431 134 q 460 -19 460 32 q 458 -45 460 -25 q 452 -94 456 -65 q 441 -157 449 -123 q 421 -227 433 -192 q 390 -295 408 -262 q 349 -354 373 -328 q 294 -395 325 -379 q 224 -410 263 -410 q 159 -393 187 -410 q 112 -348 132 -376 q 80 -280 93 -319 q 59 -199 66 -242 q 49 -112 52 -157 q 46 -25 46 -67 q 47 15 46 -22 q 56 116 49 53 q 72 261 63 179 q 91 436 81 344 q 119 624 101 528 q 163 812 138 721 q 221 985 188 904 q 294 1126 254 1066 q 385 1222 335 1187 q 494 1257 435 1257 q 543 1249 517 1257 q 589 1223 568 1241 q 624 1175 610 1205 q 638 1101 638 1145 q 625 1009 638 1061 q 589 898 612 957 q 534 776 565 839 q 464 649 502 712 q 385 524 427 586 q 300 410 344 463 l 299 399 q 320 407 313 405 q 335 409 328 409 q 351 407 345 409 q 361 404 356 406 q 371 400 366 402 q 383 399 376 399 q 464 406 427 399 q 531 423 501 413 q 586 447 562 434 q 626 471 610 460 l 656 585 q 675 615 660 603 q 707 636 689 628 q 744 647 725 643 q 779 651 764 651 q 818 640 808 651 q 828 612 828 630 q 821 569 828 597 q 804 506 814 541 q 783 429 794 470 q 761 347 771 388 q 744 267 751 306 q 737 196 737 228 q 744 148 737 166 q 772 130 751 130 q 826 147 796 130 q 886 188 856 164 q 946 237 917 212 q 998 282 975 263 l 998 144 m 242 299 q 237 216 240 299 q 229 101 234 133 q 220 30 224 69 q 208 -46 215 -8 q 199 -35 200 -83 q 197 40 197 12 q 202 -119 197 -59 q 212 -209 206 -178 q 227 -249 219 -240 q 243 -258 235 -258 q 285 -237 269 -258 q 302 -205 301 -216 q 306 -176 304 -194 q 309 -115 309 -158 q 305 -43 309 -86 q 297 44 302 -1 q 285 136 292 91 q 271 218 278 182 q 256 277 264 254 q 242 299 248 299 m 406 1039 q 348 866 369 940 q 316 733 327 791 q 298 617 306 675 q 284 511 291 560 q 362 693 322 603 q 436 848 401 783 q 493 962 471 913 q 515 1038 515 1012 q 504 1089 515 1073 q 477 1106 494 1106 q 433 1089 448 1106 q 406 1039 418 1072 m 695 843 q 701 878 695 858 q 723 915 708 898 q 764 945 739 933 q 827 957 789 957 q 872 951 851 957 q 909 935 893 946 q 934 905 924 923 q 943 861 943 886 q 935 816 943 838 q 912 777 928 794 q 870 749 895 760 q 811 739 846 739 q 723 767 751 739 q 695 843 695 795 "},"{":{"x_min":86.390625,"x_max":882.9375,"ha":802,"o":"m 328 950 q 362 1070 338 1018 q 422 1159 387 1122 q 500 1217 457 1196 q 592 1237 543 1237 q 651 1235 617 1237 q 723 1228 686 1234 q 797 1210 760 1222 q 864 1178 834 1198 q 878 1161 874 1171 q 882 1141 882 1152 q 876 1112 882 1127 q 858 1086 870 1098 q 832 1066 847 1074 q 800 1059 817 1059 q 761 1062 783 1059 q 712 1069 738 1065 q 659 1076 686 1073 q 608 1080 632 1080 q 568 1071 586 1080 q 537 1038 551 1062 q 510 971 522 1013 q 488 860 498 928 q 470 755 480 807 q 445 659 461 704 q 401 580 428 614 q 329 529 373 546 q 373 507 355 522 q 402 469 391 491 q 417 420 412 447 q 421 362 421 392 q 416 280 421 323 q 405 196 411 237 q 394 118 399 154 q 389 58 389 82 q 394 11 389 30 q 407 -17 398 -6 q 428 -33 415 -28 q 456 -37 440 -37 q 513 -28 482 -37 q 574 -11 544 -20 q 632 4 604 -3 q 667 12 661 12 q 674 8 671 12 q 680 -4 678 4 q 685 -26 683 -13 q 686 -58 686 -40 q 684 -81 686 -69 q 662 -123 681 -104 q 615 -156 643 -141 q 552 -180 587 -170 q 486 -199 518 -190 q 427 -201 454 -208 q 386 -194 400 -194 q 310 -180 344 -194 q 254 -137 277 -165 q 220 -72 232 -110 q 208 15 208 -35 q 220 134 208 72 q 244 255 232 195 q 246 275 245 265 q 248 297 248 286 q 242 345 248 322 q 223 387 236 369 q 189 417 209 405 q 138 428 169 428 q 98 449 110 428 q 86 498 86 470 q 92 541 86 519 q 109 581 98 563 q 135 611 120 599 q 169 624 150 623 q 240 636 212 624 q 285 670 268 647 q 311 726 302 692 q 328 804 321 759 l 328 950 "},"X":{"x_min":183.21875,"x_max":1353.25,"ha":1169,"o":"m 646 634 q 631 712 641 671 q 610 794 620 753 q 584 875 600 834 q 549 947 569 916 q 501 996 528 978 q 440 1015 474 1015 q 422 1001 436 1015 q 390 965 408 988 q 353 911 373 941 q 317 846 333 880 q 297 824 306 824 q 284 834 290 824 q 273 859 278 844 q 264 894 268 875 q 258 931 261 913 q 255 965 256 949 q 253 988 253 980 q 267 1069 253 1035 q 305 1127 280 1104 q 362 1161 329 1149 q 434 1172 395 1172 q 502 1167 467 1172 q 572 1146 537 1161 q 641 1102 607 1131 q 704 1027 674 1074 q 759 915 734 981 q 804 756 785 848 q 875 856 837 807 q 951 951 912 906 q 1028 1034 989 995 q 1100 1101 1066 1072 q 1165 1145 1135 1129 q 1217 1161 1195 1161 q 1259 1146 1240 1161 q 1291 1106 1277 1131 q 1311 1050 1304 1081 q 1319 986 1319 1018 q 1281 888 1319 921 q 1181 855 1242 855 q 1171 864 1174 855 q 1168 885 1168 872 q 1167 913 1167 898 q 1167 941 1168 928 q 1163 962 1166 953 q 1154 970 1161 970 q 1121 956 1140 970 q 1077 916 1101 941 q 1024 856 1053 891 q 967 782 996 822 q 907 698 937 742 q 849 611 877 655 q 884 459 870 529 q 913 334 899 389 q 938 237 927 279 q 964 166 949 194 q 1001 123 980 137 q 1056 108 1023 108 q 1150 149 1099 108 q 1264 283 1202 190 q 1288 293 1275 293 q 1311 285 1300 293 q 1332 266 1323 278 q 1347 240 1341 254 q 1353 211 1353 225 q 1338 175 1353 190 q 1247 80 1293 121 q 1156 12 1200 39 q 1072 -29 1112 -15 q 998 -43 1031 -43 q 928 -35 959 -43 q 872 -7 897 -27 q 825 48 847 12 q 783 138 803 83 q 743 271 763 194 q 696 454 723 349 q 569 249 632 344 q 514 167 542 208 q 461 89 486 125 q 417 24 436 52 q 386 -20 397 -4 q 339 -57 369 -43 q 276 -71 309 -71 q 206 -51 229 -71 q 183 -3 183 -32 q 215 74 183 32 q 255 125 229 92 q 315 199 282 158 q 387 288 349 241 q 464 381 426 335 q 536 470 501 428 q 596 544 570 512 q 637 595 623 576 q 651 613 652 614 l 646 634 "},"ô":{"x_min":43,"x_max":764,"ha":585,"o":"m 453 1096 q 407 992 429 1041 q 388 949 398 971 q 369 906 378 926 q 352 868 360 886 q 339 838 344 851 q 310 789 324 806 q 281 763 296 771 q 252 753 267 755 q 224 752 238 752 q 209 756 216 752 q 194 768 201 760 q 184 788 188 777 q 181 813 180 799 q 188 839 182 826 l 312 1062 q 349 1125 332 1097 q 382 1170 365 1152 q 419 1198 398 1188 q 471 1207 440 1207 q 520 1196 501 1207 q 553 1163 540 1185 q 575 1110 566 1141 q 591 1038 583 1078 q 601 1000 597 1015 q 607 975 604 986 q 613 955 610 964 q 619 932 615 945 q 627 899 622 918 q 640 849 632 880 q 641 825 642 837 q 619 771 640 794 q 559 749 598 749 q 534 753 546 749 q 513 767 522 757 q 497 795 503 777 q 488 838 490 812 q 474 957 480 908 q 463 1037 467 1006 q 453 1096 457 1074 m 502 522 q 532 439 522 483 q 542 341 542 396 q 533 260 542 301 q 507 182 524 220 q 467 110 491 144 q 412 53 443 77 q 344 14 381 28 q 266 0 308 0 q 164 26 207 0 q 95 94 122 52 q 55 189 68 136 q 43 296 43 242 q 65 450 43 386 q 129 563 87 515 q 231 638 171 611 q 367 666 291 666 q 487 646 431 666 q 593 592 544 626 q 684 508 642 558 q 764 411 727 457 l 751 315 q 701 368 732 340 q 635 431 670 396 q 566 490 600 466 q 508 530 532 514 l 502 522 m 293 130 q 338 154 316 130 q 376 213 359 177 q 402 299 392 248 q 412 388 412 349 q 407 446 412 419 q 393 493 402 473 q 368 524 383 512 q 332 535 353 535 q 279 512 304 535 q 235 451 254 488 q 205 369 216 414 q 194 268 194 325 q 200 215 194 240 q 217 171 205 190 q 247 141 228 153 q 293 130 266 130 "},"¼":{"x_min":37.5,"x_max":1170.28125,"ha":1202,"o":"m 672 954 q 687 971 678 963 q 709 985 697 979 q 735 994 722 990 q 761 997 749 997 q 798 986 783 997 q 814 950 814 976 q 809 917 814 937 q 789 873 803 897 q 721 754 759 823 q 634 599 682 685 q 528 412 586 513 q 400 199 470 312 q 367 166 386 176 q 331 156 348 156 q 289 172 307 156 q 271 218 271 188 q 276 250 271 233 q 292 288 281 268 q 317 331 300 301 q 357 401 334 361 q 407 491 380 442 q 464 591 434 540 q 522 696 493 643 q 580 796 552 749 q 631 885 607 844 q 672 954 655 926 m 103 916 q 103 915 103 916 q 102 915 103 915 l 105 916 q 92 914 97 914 q 71 919 81 914 q 54 933 61 924 q 41 953 46 942 q 37 976 37 964 q 46 1004 37 995 q 82 1023 55 1014 q 155 1043 108 1032 q 279 1077 202 1055 q 304 1082 291 1081 q 329 1084 317 1084 q 359 1080 344 1084 q 386 1066 374 1075 q 405 1044 398 1058 q 412 1014 412 1031 q 411 994 412 1014 q 400 927 409 975 q 374 796 391 879 q 333 586 358 714 l 332 580 l 333 582 q 327 554 331 572 q 314 520 324 537 q 288 492 304 504 q 246 480 271 480 q 187 495 209 480 q 164 544 164 510 q 165 556 164 550 q 167 569 166 562 l 167 567 q 195 701 180 633 q 221 826 209 769 q 247 953 234 891 l 103 916 m 1063 -25 q 1008 -27 1035 -25 q 954 -30 980 -30 q 915 -27 932 -30 q 886 -16 898 -24 q 869 4 875 -9 q 863 39 863 17 q 872 94 863 63 q 895 160 881 125 q 818 152 853 160 q 753 135 784 144 q 699 119 722 126 q 653 112 676 112 q 639 119 643 112 q 635 138 635 127 q 644 175 635 154 q 667 220 653 196 q 689 284 679 256 q 707 338 699 312 q 722 391 715 365 q 735 448 729 418 q 749 514 742 479 q 766 593 757 550 q 782 610 770 603 q 812 622 795 617 q 851 628 830 626 q 893 631 872 631 q 919 629 907 631 q 942 625 932 628 q 957 618 951 622 q 962 609 962 614 q 941 517 952 563 q 912 424 930 471 q 873 330 895 378 q 828 233 852 282 q 873 231 855 232 q 906 231 891 231 l 915 231 q 941 309 928 271 q 964 378 953 347 q 978 404 968 393 q 1001 422 988 415 q 1029 431 1015 428 q 1054 434 1042 434 q 1094 426 1084 434 q 1104 402 1104 417 q 1100 377 1104 393 q 1089 341 1096 361 q 1074 297 1082 321 q 1056 247 1065 274 q 1112 258 1087 253 q 1155 263 1137 263 q 1166 255 1163 263 q 1170 235 1170 247 q 1165 193 1170 209 q 1154 169 1160 178 q 1142 157 1148 160 q 1133 155 1135 155 q 1083 156 1109 155 q 1029 158 1057 157 q 1014 86 1017 117 l 1014 74 q 1024 50 1014 63 q 1043 22 1033 36 q 1063 -1 1054 9 q 1072 -19 1072 -13 q 1070 -24 1072 -23 q 1063 -25 1069 -25 "},"#":{"x_min":108.140625,"x_max":1096.921875,"ha":950,"o":"m 327 651 q 295 655 311 651 q 266 668 278 659 q 245 690 253 676 q 237 724 237 704 q 250 765 237 750 q 286 789 263 781 q 338 800 308 797 q 401 803 368 803 l 437 803 l 530 1010 q 550 1043 537 1026 q 581 1074 563 1061 q 621 1097 599 1088 q 669 1106 643 1106 q 692 1100 683 1106 q 703 1086 700 1094 q 707 1067 706 1077 q 708 1048 708 1057 q 704 1033 708 1043 q 696 1011 701 1023 q 686 986 691 998 q 677 966 681 974 q 643 891 661 931 q 606 803 626 850 q 696 803 649 803 q 789 803 742 803 q 830 920 811 866 q 863 1013 849 974 q 880 1046 869 1029 q 908 1077 891 1063 q 945 1099 924 1091 q 993 1108 967 1108 q 1015 1102 1007 1108 q 1028 1088 1024 1097 q 1034 1070 1033 1080 q 1037 1051 1035 1059 q 1034 1035 1037 1045 q 1028 1013 1031 1025 q 1020 989 1024 1001 q 1012 969 1016 977 q 985 893 999 934 q 955 803 971 851 l 1041 803 q 1069 800 1058 803 q 1086 790 1079 796 q 1094 777 1092 784 q 1096 761 1096 769 q 1089 717 1096 737 q 1061 682 1081 697 q 1010 659 1042 668 q 930 651 978 651 l 906 651 q 875 556 891 605 q 841 457 859 508 l 899 457 q 926 451 915 455 q 943 441 937 447 q 951 428 949 436 q 953 413 953 421 q 945 370 953 390 q 918 336 937 351 q 867 313 899 321 q 787 305 834 305 l 785 305 q 735 173 761 240 q 681 37 709 107 q 663 6 673 18 q 642 -10 653 -4 q 620 -18 631 -17 q 599 -20 609 -20 q 572 -18 585 -20 q 549 -9 559 -15 q 533 9 539 -2 q 527 41 527 21 q 543 117 527 70 l 609 304 q 504 303 559 303 q 390 303 449 303 q 328 171 360 238 q 262 35 297 104 q 241 3 252 15 q 218 -13 230 -7 q 195 -21 207 -19 q 174 -23 184 -23 q 151 -21 163 -23 q 129 -14 139 -19 q 114 1 120 -8 q 108 29 108 12 q 113 66 108 44 q 131 114 118 87 l 215 304 q 209 304 211 304 q 203 305 206 305 q 171 309 187 305 q 142 321 154 313 q 121 344 129 330 q 112 378 112 358 q 119 408 112 396 q 136 429 126 420 q 160 442 147 437 q 186 452 173 448 q 215 456 194 455 q 256 456 237 456 l 282 456 l 369 651 l 327 651 m 542 651 q 502 555 522 604 q 458 455 481 507 l 459 455 q 561 455 510 455 q 664 455 612 455 q 699 552 681 503 q 734 651 716 601 l 542 651 "},"Ê":{"x_min":43,"x_max":1040.78125,"ha":877,"o":"m 717 1655 q 671 1551 693 1600 q 652 1508 662 1530 q 633 1465 642 1485 q 616 1427 624 1445 q 603 1397 608 1410 q 574 1348 588 1365 q 545 1322 560 1330 q 516 1312 531 1314 q 488 1311 502 1311 q 473 1315 480 1311 q 458 1327 465 1319 q 448 1347 452 1336 q 445 1372 444 1358 q 452 1398 446 1385 l 576 1621 q 613 1684 596 1656 q 646 1729 629 1711 q 683 1757 662 1747 q 735 1766 704 1766 q 784 1755 765 1766 q 817 1722 804 1744 q 839 1669 830 1700 q 855 1597 847 1637 q 865 1559 861 1574 q 871 1534 868 1545 q 877 1514 874 1523 q 883 1491 879 1504 q 891 1458 886 1477 q 904 1408 896 1439 q 905 1384 906 1396 q 883 1330 904 1353 q 823 1308 862 1308 q 798 1312 810 1308 q 777 1326 786 1316 q 761 1354 767 1336 q 752 1397 754 1371 q 738 1516 744 1467 q 727 1596 731 1565 q 717 1655 721 1633 m 1002 167 q 877 66 947 109 q 732 -6 808 23 q 579 -50 657 -35 q 428 -65 501 -65 q 278 -46 348 -65 q 156 9 209 -28 q 73 105 104 47 q 43 242 43 163 q 67 376 43 312 q 143 489 92 440 q 275 569 195 538 q 468 602 356 599 q 339 623 394 602 q 248 681 284 644 q 194 766 212 717 q 176 868 176 814 q 193 961 176 919 q 241 1037 211 1003 q 314 1095 272 1070 q 405 1137 356 1120 q 507 1162 454 1154 q 616 1171 561 1171 q 772 1153 696 1171 q 908 1101 849 1136 q 1004 1015 968 1067 q 1040 894 1040 963 q 1024 846 1040 870 q 984 804 1007 822 q 935 774 960 785 q 892 763 909 763 q 878 788 878 763 q 885 845 878 810 q 909 934 892 881 q 855 964 891 949 q 775 991 819 979 q 679 1011 730 1003 q 579 1019 629 1019 q 492 1010 534 1019 q 419 984 450 1002 q 368 934 387 965 q 349 859 349 904 q 362 797 349 822 q 398 754 376 772 q 448 725 420 737 q 507 705 476 714 q 567 688 537 697 q 621 669 596 680 q 663 643 646 659 q 685 605 680 628 q 688 575 686 590 q 689 546 689 560 q 675 486 689 504 q 620 467 661 467 q 577 469 603 467 q 528 471 551 471 q 422 458 474 471 q 329 417 370 444 q 263 351 288 391 q 238 260 238 312 q 252 177 238 210 q 291 124 266 144 q 350 95 316 104 q 424 86 384 86 q 525 96 472 86 q 632 121 579 105 q 735 159 685 137 q 828 207 785 182 q 904 261 871 233 q 955 317 937 289 l 1002 167 "},")":{"x_min":41.015625,"x_max":781.625,"ha":877,"o":"m 520 1172 q 638 1134 588 1172 q 719 1029 687 1095 q 766 875 751 963 q 781 688 781 787 q 766 482 781 587 q 723 275 752 376 q 655 85 695 175 q 564 -70 614 -3 q 453 -176 513 -137 q 323 -215 392 -215 q 233 -205 279 -215 q 147 -176 186 -194 q 78 -134 107 -158 q 41 -86 49 -111 q 41 -83 41 -85 q 41 -80 41 -82 q 50 -54 41 -69 q 75 -26 60 -39 q 106 -4 89 -13 q 135 4 123 4 q 150 0 145 4 q 183 -18 166 -7 q 220 -39 200 -29 q 266 -56 241 -49 q 323 -64 291 -64 q 401 -28 364 -64 q 469 68 438 7 q 526 208 501 128 q 570 374 552 287 q 598 551 588 461 q 608 720 608 640 q 601 839 608 784 q 581 934 595 893 q 545 997 567 974 q 494 1020 523 1020 q 453 1017 476 1020 q 400 1001 429 1014 q 335 962 371 988 q 258 891 300 936 q 240 877 250 881 q 221 873 230 873 q 196 881 208 873 q 176 902 185 889 q 163 930 168 914 q 158 960 158 945 q 171 1000 158 985 q 350 1132 262 1092 q 520 1172 438 1172 "},"Å":{"x_min":87,"x_max":1267.59375,"ha":1095,"o":"m 750 1373 q 760 1431 750 1405 q 787 1479 770 1457 q 828 1516 805 1500 q 876 1544 851 1533 q 928 1561 901 1555 q 977 1566 954 1566 q 1028 1558 1003 1566 q 1073 1531 1053 1549 q 1105 1487 1093 1514 q 1118 1426 1118 1461 q 1098 1331 1118 1371 q 1048 1265 1079 1291 q 980 1225 1017 1238 q 907 1213 942 1213 q 854 1221 882 1213 q 803 1247 826 1229 q 765 1297 780 1266 q 750 1373 750 1328 m 960 1479 q 908 1469 930 1479 q 871 1444 885 1459 q 849 1410 856 1428 q 841 1373 841 1391 q 845 1346 841 1359 q 858 1324 849 1334 q 878 1309 866 1315 q 907 1303 891 1303 q 954 1314 933 1303 q 990 1341 975 1324 q 1012 1378 1004 1358 q 1020 1417 1020 1398 q 1005 1461 1020 1443 q 960 1479 991 1479 m 1267 152 q 1231 118 1253 137 q 1181 79 1209 99 q 1122 42 1154 60 q 1057 9 1090 23 q 990 -13 1024 -4 q 926 -21 956 -21 q 882 -14 904 -21 q 843 13 861 -6 q 814 68 825 33 q 803 160 803 103 q 806 211 803 184 q 815 270 809 238 q 729 124 777 194 q 627 14 681 53 q 516 -45 573 -25 q 400 -66 458 -66 q 281 -43 337 -66 q 181 21 224 -21 q 112 130 137 65 q 87 305 87 195 q 102 443 87 371 q 146 588 117 515 q 217 733 175 661 q 311 870 258 805 q 426 990 363 935 q 560 1086 489 1045 q 710 1149 631 1126 q 873 1172 788 1172 q 909 1168 896 1172 q 930 1159 923 1165 q 939 1147 937 1153 q 941 1136 941 1141 q 941 1130 941 1133 q 940 1126 940 1127 l 940 1122 q 977 1109 959 1112 q 1014 1105 996 1107 q 1049 1098 1033 1104 q 1077 1077 1065 1093 q 1096 1030 1089 1061 q 1103 947 1103 1000 q 1098 855 1103 907 q 1077 749 1092 804 q 1046 637 1062 694 q 1015 526 1030 580 q 986 425 1000 473 q 960 342 973 377 q 956 286 958 312 q 954 233 954 261 q 955 197 954 211 q 959 175 956 183 q 967 164 962 167 q 979 161 971 161 q 1013 168 992 161 q 1057 187 1034 175 q 1106 212 1081 198 q 1155 239 1131 226 q 1199 265 1178 253 q 1233 284 1219 276 l 1267 152 m 948 1028 q 899 1039 924 1035 q 849 1042 873 1042 q 741 1021 794 1042 q 637 963 687 1000 q 541 878 587 927 q 456 772 495 829 q 384 654 416 715 q 329 533 352 593 q 294 415 306 472 q 282 309 282 357 q 320 138 282 190 q 439 85 358 85 q 534 106 489 85 q 618 162 579 127 q 689 250 657 196 q 745 349 721 305 q 785 434 769 393 q 807 505 800 475 l 948 1028 "},"ø":{"x_min":43,"x_max":764.65625,"ha":592,"o":"m 503 509 q 533 426 523 470 q 542 342 542 382 q 534 261 542 302 q 508 182 525 220 q 467 111 491 144 q 412 53 443 78 q 344 14 381 29 q 265 0 307 0 l 243 -73 q 230 -99 237 -89 q 216 -114 223 -109 q 202 -120 209 -119 q 188 -122 195 -122 q 175 -120 182 -122 q 163 -115 168 -119 q 154 -101 158 -110 q 151 -77 151 -92 q 156 -37 151 -60 q 172 22 160 -14 q 113 69 138 40 q 73 135 89 99 q 50 213 57 172 q 43 296 43 254 q 63 431 43 368 q 124 542 84 494 q 219 618 163 589 q 347 650 276 647 q 363 709 355 678 q 383 765 371 739 q 412 807 394 791 q 457 824 429 824 q 468 819 464 824 q 475 808 473 815 q 477 793 477 801 q 477 778 477 785 q 472 765 477 774 q 464 747 467 757 q 458 726 461 737 q 454 709 456 716 l 437 645 q 537 611 491 634 q 623 557 583 588 q 698 489 662 526 q 764 412 733 451 l 751 316 q 702 369 733 341 q 636 425 671 398 q 567 476 601 452 q 508 517 533 500 l 503 509 m 311 517 q 257 483 282 509 q 214 423 233 458 q 185 347 196 387 q 174 268 174 306 q 183 208 174 236 q 210 160 191 180 l 311 517 m 395 489 q 350 322 374 412 q 304 131 327 233 q 353 161 330 136 q 394 221 377 186 q 422 296 411 255 q 433 375 433 337 q 423 440 433 410 q 395 489 414 469 "},"â":{"x_min":43,"x_max":799.578125,"ha":658,"o":"m 504 1102 q 458 998 480 1047 q 439 955 449 977 q 420 912 429 932 q 403 874 411 892 q 390 844 395 857 q 361 795 375 812 q 332 769 347 777 q 303 759 318 761 q 275 758 289 758 q 260 762 267 758 q 245 774 252 766 q 235 794 239 783 q 232 819 231 805 q 239 845 233 832 l 363 1068 q 400 1131 383 1103 q 433 1176 416 1158 q 470 1204 449 1194 q 522 1213 491 1213 q 571 1202 552 1213 q 604 1169 591 1191 q 626 1116 617 1147 q 642 1044 634 1084 q 652 1006 648 1021 q 658 981 655 992 q 664 961 661 970 q 670 938 666 951 q 678 905 673 924 q 691 855 683 886 q 692 831 693 843 q 670 777 691 800 q 610 755 649 755 q 585 759 597 755 q 564 773 573 763 q 548 801 554 783 q 539 844 541 818 q 525 963 531 914 q 514 1043 518 1012 q 504 1102 508 1080 m 799 168 q 757 117 783 146 q 699 60 731 87 q 629 15 666 34 q 554 -3 592 -3 q 479 25 509 -3 q 427 108 449 54 q 386 70 410 89 q 334 34 362 50 q 274 9 305 19 q 213 -1 244 -1 q 149 12 180 -1 q 95 50 118 25 q 57 111 71 75 q 43 192 43 147 q 57 296 43 243 q 101 412 71 349 q 166 519 131 474 q 241 598 200 564 q 328 652 282 632 q 420 672 373 672 q 445 665 436 672 q 459 651 454 659 q 471 636 465 643 q 484 625 476 628 q 501 620 492 621 q 518 619 510 619 q 534 620 526 619 q 549 620 542 620 q 568 618 559 620 q 584 609 577 616 q 595 590 591 602 q 598 556 598 578 q 591 484 598 524 q 576 404 585 445 q 556 309 567 362 q 545 220 545 256 q 551 171 545 189 q 576 154 557 154 q 606 161 590 154 q 637 179 621 168 q 669 205 653 191 q 699 235 685 220 q 767 317 733 271 l 799 168 m 216 221 q 219 187 216 204 q 227 158 221 171 q 243 137 233 145 q 269 129 254 129 q 315 151 294 129 q 350 203 335 172 q 374 266 365 234 q 386 321 384 299 l 437 541 q 383 528 409 541 q 333 490 356 514 q 290 437 309 467 q 251 362 270 406 q 224 284 232 318 q 216 221 216 251 "},"}":{"x_min":43.40625,"x_max":811.046875,"ha":846,"o":"m 682 884 q 673 819 678 853 q 663 752 668 786 q 654 686 658 718 q 649 633 649 654 q 655 598 649 613 q 673 572 660 582 q 706 556 685 561 q 760 550 728 550 q 798 526 786 549 q 811 474 811 504 q 805 432 811 453 q 789 393 800 410 q 763 365 779 376 q 729 354 748 354 q 674 343 697 354 q 633 315 651 332 q 603 276 614 297 q 589 236 592 255 q 576 154 582 193 q 562 73 569 116 q 528 -42 552 10 q 471 -133 505 -95 q 396 -193 438 -172 q 305 -215 354 -215 q 267 -212 292 -215 q 214 -204 243 -209 q 154 -189 185 -198 q 99 -167 124 -180 q 59 -139 74 -155 q 43 -102 43 -122 q 53 -60 43 -78 q 77 -30 63 -42 q 107 -13 91 -19 q 134 -8 122 -8 q 172 -15 155 -8 q 208 -33 190 -23 q 245 -50 226 -42 q 289 -58 265 -58 q 328 -48 311 -58 q 361 -15 346 -39 q 385 51 376 8 q 408 159 394 94 q 427 251 417 204 q 454 341 437 299 q 499 415 471 384 q 570 455 526 445 q 524 483 543 466 q 495 522 506 500 q 480 572 484 545 q 476 630 476 600 q 481 695 476 657 q 492 771 487 734 q 502 841 497 809 q 507 905 507 874 q 502 964 507 940 q 490 1001 498 988 q 469 1020 481 1015 q 441 1025 457 1025 q 389 1022 417 1025 q 334 1015 361 1019 q 283 1007 307 1011 q 243 1004 259 1004 q 218 1009 229 1004 q 200 1023 208 1014 q 189 1042 193 1031 q 186 1065 186 1053 q 194 1097 186 1081 q 221 1124 203 1113 q 298 1155 257 1144 q 379 1173 339 1167 q 453 1181 419 1179 q 513 1183 488 1183 q 587 1168 554 1183 q 642 1126 619 1153 q 676 1060 665 1098 q 688 975 688 1022 q 682 884 688 931 "},"‰":{"x_min":64,"x_max":2084.84375,"ha":2149,"o":"m 308 456 q 203 480 248 456 q 126 547 157 505 q 79 644 95 589 q 64 759 64 699 q 73 858 64 809 q 101 954 82 908 q 148 1039 120 999 q 214 1108 176 1079 q 298 1155 251 1138 q 403 1172 346 1172 q 512 1150 467 1172 q 588 1088 558 1127 q 631 999 617 1050 q 645 890 645 947 q 634 789 645 840 q 603 689 624 738 q 553 599 583 641 q 486 524 523 556 q 404 474 449 492 q 308 456 359 456 m 321 586 q 380 614 352 586 q 431 687 409 643 q 466 786 453 732 q 479 891 479 840 q 473 949 479 921 q 457 997 468 977 q 428 1030 446 1018 q 385 1042 410 1042 q 321 1018 349 1042 q 275 956 293 994 q 247 869 256 917 q 237 773 237 822 q 242 702 237 736 q 258 642 247 668 q 284 601 268 616 q 321 586 300 586 m 931 1150 q 948 1174 937 1163 q 975 1195 959 1186 q 1013 1210 991 1204 q 1063 1216 1035 1216 q 1087 1203 1081 1216 q 1094 1173 1094 1191 q 1091 1148 1094 1161 q 1086 1121 1089 1134 q 1078 1097 1082 1108 q 1071 1080 1074 1086 q 1010 953 1045 1028 q 934 788 975 877 q 848 601 893 698 q 757 407 803 503 q 668 224 712 312 q 586 65 624 136 q 558 32 575 45 q 523 13 541 20 q 486 3 504 5 q 455 0 468 0 q 426 5 438 0 q 406 19 413 10 q 396 40 399 28 q 393 65 393 51 q 400 114 393 89 q 417 161 407 140 q 450 225 428 182 q 503 328 472 269 q 571 459 534 388 q 648 607 608 531 q 728 761 688 683 q 805 910 767 839 q 874 1044 842 982 q 931 1150 907 1105 m 1132 43 q 1026 66 1071 43 q 951 128 981 89 q 905 219 920 167 q 890 327 890 270 q 899 430 890 378 q 926 531 908 483 q 973 620 945 579 q 1038 693 1001 662 q 1122 741 1075 724 q 1226 759 1169 759 q 1329 735 1286 759 q 1401 669 1373 710 q 1442 573 1429 628 q 1455 457 1455 518 q 1445 361 1455 410 q 1415 266 1434 312 q 1366 180 1395 220 q 1302 109 1338 140 q 1223 61 1266 79 q 1132 43 1181 43 m 1144 174 q 1199 199 1172 174 q 1245 263 1225 224 q 1277 351 1265 303 q 1289 445 1289 399 q 1284 515 1289 482 q 1270 574 1280 548 q 1245 614 1261 599 q 1208 629 1230 629 q 1145 603 1172 629 q 1100 536 1118 578 q 1072 442 1081 495 q 1063 335 1063 389 q 1068 275 1063 304 q 1082 223 1073 245 q 1108 187 1092 201 q 1144 174 1123 174 m 1761 43 q 1655 66 1700 43 q 1580 128 1610 89 q 1534 219 1549 167 q 1519 327 1519 270 q 1528 430 1519 378 q 1555 531 1537 483 q 1602 620 1574 579 q 1667 693 1630 662 q 1751 741 1704 724 q 1855 759 1798 759 q 1958 735 1915 759 q 2030 669 2002 710 q 2071 573 2058 628 q 2084 457 2084 518 q 2074 361 2084 410 q 2044 266 2063 312 q 1995 180 2024 220 q 1931 109 1967 140 q 1852 61 1895 79 q 1761 43 1810 43 m 1773 174 q 1828 199 1801 174 q 1874 263 1854 224 q 1906 351 1894 303 q 1918 445 1918 399 q 1913 515 1918 482 q 1899 574 1909 548 q 1874 614 1890 599 q 1837 629 1859 629 q 1774 603 1801 629 q 1729 536 1747 578 q 1701 442 1710 495 q 1692 335 1692 389 q 1697 275 1692 304 q 1711 223 1702 245 q 1737 187 1721 201 q 1773 174 1752 174 "},"Ä":{"x_min":87,"x_max":1267.59375,"ha":1095,"o":"m 1197 1425 q 1196 1412 1197 1422 q 1193 1389 1196 1403 q 1183 1362 1190 1376 q 1164 1335 1176 1348 q 1133 1315 1152 1323 q 1087 1307 1114 1307 q 1018 1330 1045 1307 q 992 1407 992 1354 q 998 1451 992 1430 q 1017 1489 1004 1472 q 1050 1515 1030 1505 q 1099 1525 1070 1525 q 1172 1500 1147 1525 q 1197 1425 1197 1474 m 880 1425 q 879 1412 880 1422 q 875 1389 879 1403 q 865 1362 872 1376 q 846 1335 858 1348 q 815 1315 834 1323 q 770 1307 797 1307 q 701 1330 727 1307 q 675 1407 675 1354 q 681 1451 675 1430 q 700 1489 687 1472 q 733 1515 712 1505 q 782 1525 753 1525 q 855 1500 829 1525 q 880 1425 880 1474 m 1267 152 q 1231 118 1253 137 q 1181 79 1209 99 q 1122 42 1154 60 q 1057 9 1090 23 q 990 -13 1024 -4 q 926 -21 956 -21 q 882 -14 904 -21 q 843 13 861 -6 q 814 68 825 33 q 803 160 803 103 q 806 211 803 184 q 815 270 809 238 q 729 124 777 194 q 627 14 681 53 q 516 -45 573 -25 q 400 -66 458 -66 q 281 -43 337 -66 q 181 21 224 -21 q 112 130 137 65 q 87 305 87 195 q 102 443 87 371 q 146 588 117 515 q 217 733 175 661 q 311 870 258 805 q 426 990 363 935 q 560 1086 489 1045 q 710 1149 631 1126 q 873 1172 788 1172 q 909 1168 896 1172 q 930 1159 923 1165 q 939 1147 937 1153 q 941 1136 941 1141 q 941 1130 941 1133 q 940 1126 940 1127 l 940 1122 q 977 1109 959 1112 q 1014 1105 996 1107 q 1049 1098 1033 1104 q 1077 1077 1065 1093 q 1096 1030 1089 1061 q 1103 947 1103 1000 q 1098 855 1103 907 q 1077 749 1092 804 q 1046 637 1062 694 q 1015 526 1030 580 q 986 425 1000 473 q 960 342 973 377 q 956 286 958 312 q 954 233 954 261 q 955 197 954 211 q 959 175 956 183 q 967 164 962 167 q 979 161 971 161 q 1013 168 992 161 q 1057 187 1034 175 q 1106 212 1081 198 q 1155 239 1131 226 q 1199 265 1178 253 q 1233 284 1219 276 l 1267 152 m 948 1028 q 899 1039 924 1035 q 849 1042 873 1042 q 741 1021 794 1042 q 637 963 687 1000 q 541 878 587 927 q 456 772 495 829 q 384 654 416 715 q 329 533 352 593 q 294 415 306 472 q 282 309 282 357 q 320 138 282 190 q 439 85 358 85 q 534 106 489 85 q 618 162 579 127 q 689 250 657 196 q 745 349 721 305 q 785 434 769 393 q 807 505 800 475 l 948 1028 "},"¸":{"x_min":246,"x_max":451.5,"ha":803,"o":"m 450 30 q 440 -81 443 -39 q 433 -147 436 -123 q 429 -182 431 -172 q 426 -200 428 -193 q 423 -216 425 -207 q 419 -244 422 -224 q 406 -288 416 -269 q 381 -320 395 -307 q 350 -340 367 -333 q 316 -347 332 -347 q 289 -342 302 -347 q 267 -327 277 -337 q 251 -301 257 -317 q 246 -266 246 -286 q 256 -206 246 -237 q 285 -140 267 -176 q 329 -62 304 -104 q 381 30 353 -20 q 398 54 386 44 q 422 64 409 64 q 442 59 434 64 q 451 40 451 53 q 450 30 451 37 "},"a":{"x_min":43,"x_max":799.578125,"ha":658,"o":"m 799 168 q 757 117 783 146 q 699 60 731 87 q 629 15 666 34 q 554 -3 592 -3 q 479 25 509 -3 q 427 108 449 54 q 386 70 410 89 q 334 34 362 50 q 274 9 305 19 q 213 -1 244 -1 q 149 12 180 -1 q 95 50 118 25 q 57 111 71 75 q 43 192 43 147 q 57 296 43 243 q 101 412 71 349 q 166 519 131 474 q 241 598 200 564 q 328 652 282 632 q 420 672 373 672 q 445 665 436 672 q 459 651 454 659 q 471 636 465 643 q 484 625 476 628 q 501 620 492 621 q 518 619 510 619 q 534 620 526 619 q 549 620 542 620 q 568 618 559 620 q 584 609 577 616 q 595 590 591 602 q 598 556 598 578 q 591 484 598 524 q 576 404 585 445 q 556 309 567 362 q 545 220 545 256 q 551 171 545 189 q 576 154 557 154 q 606 161 590 154 q 637 179 621 168 q 669 205 653 191 q 699 235 685 220 q 767 317 733 271 l 799 168 m 216 221 q 219 187 216 204 q 227 158 221 171 q 243 137 233 145 q 269 129 254 129 q 315 151 294 129 q 350 203 335 172 q 374 266 365 234 q 386 321 384 299 l 437 541 q 383 528 409 541 q 333 490 356 514 q 290 437 309 467 q 251 362 270 406 q 224 284 232 318 q 216 221 216 251 "},"—":{"x_min":42.734375,"x_max":716.203125,"ha":760,"o":"m 106 260 q 83 264 94 260 q 63 276 72 268 q 48 299 54 285 q 42 333 42 313 q 49 374 42 359 q 66 398 55 390 q 93 409 78 406 q 125 411 108 411 l 634 411 q 675 406 659 411 q 700 393 691 401 q 712 373 709 384 q 716 350 716 363 q 711 315 716 331 q 697 286 707 298 q 671 267 687 274 q 631 260 655 260 l 106 260 "},"=":{"x_min":236.703125,"x_max":1099.40625,"ha":1158,"o":"m 327 259 q 295 263 311 259 q 265 275 278 267 q 244 298 252 284 q 236 332 236 312 q 249 373 236 358 q 285 397 263 389 q 338 407 308 405 q 400 410 368 410 q 475 410 430 410 q 577 410 521 410 q 695 410 633 410 q 819 410 757 410 q 939 410 881 410 q 1043 411 996 410 q 1071 408 1060 411 q 1088 398 1082 404 q 1097 384 1094 392 q 1099 369 1099 377 q 1091 325 1099 345 q 1064 290 1083 305 q 1012 267 1045 275 q 932 259 980 259 l 327 259 "},"N":{"x_min":-28,"x_max":1316.484375,"ha":1096,"o":"m 310 516 q 402 757 357 655 q 491 933 448 860 q 576 1052 535 1006 q 656 1125 617 1099 q 732 1162 695 1152 q 802 1172 768 1172 q 868 1154 841 1172 q 913 1109 895 1137 q 938 1047 930 1081 q 946 982 946 1014 q 940 888 946 939 q 925 778 934 836 q 905 659 916 721 q 885 539 894 598 q 869 424 876 480 q 863 317 863 367 q 864 280 863 300 q 868 240 865 260 q 878 199 872 219 q 895 164 884 180 q 922 139 906 148 q 961 129 938 129 q 1030 146 994 129 q 1101 187 1066 162 q 1168 240 1136 211 q 1223 294 1199 269 q 1261 335 1247 319 q 1275 353 1275 352 l 1316 205 q 1266 147 1294 176 q 1207 93 1239 119 q 1139 45 1175 67 q 1066 7 1104 23 q 991 -18 1029 -9 q 917 -27 954 -27 q 834 -11 870 -27 q 772 32 798 5 q 729 97 746 60 q 701 176 711 134 q 686 260 690 217 q 682 342 682 302 q 690 446 682 395 q 711 546 699 497 q 738 642 723 596 q 765 735 753 689 q 786 825 777 781 q 795 908 795 868 q 793 937 795 919 q 787 973 792 956 q 773 1002 783 990 q 748 1015 764 1015 q 692 989 720 1015 q 632 917 663 963 q 572 809 602 872 q 511 675 541 747 q 451 523 481 603 q 394 363 422 443 q 341 205 367 283 q 293 58 315 127 q 249 6 274 21 q 194 -9 224 -9 q 160 -1 176 -9 q 130 20 143 5 q 110 56 118 35 q 103 104 103 77 q 105 156 103 133 q 113 202 108 179 q 144 344 130 279 q 171 469 158 410 q 193 585 183 528 q 213 699 203 642 q 227 819 222 755 q 237 955 233 883 q 237 972 237 962 q 234 991 237 982 q 227 1007 232 1001 q 212 1014 222 1014 q 179 1000 199 1014 q 139 961 160 986 q 98 904 119 937 q 59 832 76 870 q 46 816 55 821 q 26 812 37 812 q 8 818 17 812 q -9 833 0 824 q -22 852 -17 842 q -28 870 -28 862 q -25 877 -28 874 q 25 1012 -2 957 q 86 1101 54 1067 q 152 1151 118 1136 q 217 1167 185 1167 q 297 1152 265 1167 q 351 1110 330 1137 q 380 1046 371 1084 q 388 963 388 1009 q 355 733 388 906 q 322 560 322 560 q 324 567 322 560 q 298 520 326 574 l 310 516 "},"˚":{"x_min":64,"x_max":432.34375,"ha":500,"o":"m 64 898 q 74 956 64 930 q 101 1004 84 982 q 142 1041 119 1025 q 190 1069 165 1058 q 242 1086 215 1080 q 291 1091 268 1091 q 342 1083 317 1091 q 387 1056 367 1074 q 419 1012 407 1039 q 432 951 432 986 q 412 856 432 896 q 362 790 393 816 q 294 750 331 763 q 221 738 256 738 q 168 746 196 738 q 117 772 140 754 q 79 822 94 791 q 64 898 64 853 m 274 1004 q 222 994 244 1004 q 185 969 199 984 q 163 935 170 953 q 155 898 155 916 q 159 871 155 884 q 172 849 163 859 q 192 834 180 840 q 221 828 205 828 q 268 839 247 828 q 304 866 289 849 q 326 903 318 883 q 334 942 334 923 q 319 986 334 968 q 274 1004 305 1004 "},"ú":{"x_min":62,"x_max":820.046875,"ha":658,"o":"m 373 836 q 385 862 377 844 q 402 903 392 880 q 423 952 412 926 q 446 1004 434 979 q 504 1136 472 1065 q 530 1169 512 1159 q 568 1179 548 1179 q 603 1173 586 1179 q 635 1154 621 1166 q 657 1124 649 1141 q 666 1087 666 1107 q 641 1021 666 1055 q 612 982 628 1004 q 577 938 595 961 q 540 891 559 914 q 505 847 522 868 q 474 810 488 827 q 452 783 460 793 q 429 763 440 769 q 406 758 417 758 q 378 770 390 758 q 367 803 367 783 q 368 819 367 810 q 373 836 370 827 m 595 632 q 594 582 595 613 q 586 513 593 550 q 569 422 579 475 q 553 335 559 370 q 542 274 547 300 q 537 237 537 248 q 537 202 537 218 q 541 174 538 186 q 550 156 544 162 q 568 149 556 149 q 604 157 583 149 q 650 177 626 164 q 699 205 674 189 q 747 239 724 221 q 788 274 769 257 q 818 306 807 291 q 819 265 818 284 q 819 230 819 247 q 819 196 819 214 q 820 157 820 178 q 783 125 805 142 q 734 92 761 108 q 677 60 707 75 q 616 32 647 44 q 556 14 586 21 q 502 7 527 7 q 459 17 477 7 q 428 45 441 27 q 406 88 415 63 q 391 144 397 113 q 339 86 366 112 q 284 40 312 59 q 227 10 256 21 q 171 -1 198 -1 q 129 6 149 -1 q 94 31 109 13 q 70 77 79 49 q 62 149 62 106 q 75 285 62 237 q 113 491 95 354 q 118 519 115 501 q 127 556 121 536 q 143 598 134 577 q 166 636 153 619 q 196 663 178 653 q 234 675 213 674 q 286 663 270 673 q 301 637 301 652 q 288 548 295 589 q 273 464 280 506 q 256 369 265 422 q 241 285 246 317 q 232 235 235 254 q 228 215 228 216 q 231 191 228 203 q 238 171 233 180 q 250 156 243 162 q 268 150 258 150 q 298 158 283 150 q 327 181 314 166 q 352 217 342 195 q 369 267 363 239 l 444 636 q 470 664 447 653 q 523 675 493 675 q 576 663 556 675 q 595 632 595 651 "},"⁄":{"x_min":150.5625,"x_max":846.421875,"ha":846,"o":"m 629 1150 q 654 1188 638 1169 q 692 1223 670 1208 q 742 1249 714 1239 q 803 1259 770 1259 q 828 1252 819 1259 q 840 1236 836 1246 q 845 1215 845 1226 q 846 1194 846 1204 q 842 1176 846 1188 q 833 1151 838 1164 q 821 1123 827 1137 q 811 1100 815 1109 q 729 910 775 1021 q 627 662 684 798 q 501 369 570 526 q 348 43 432 212 q 320 8 335 21 q 290 -11 305 -4 q 260 -19 275 -17 q 231 -22 245 -22 q 202 -20 217 -22 q 177 -13 188 -19 q 158 4 165 -7 q 150 37 150 15 q 157 79 150 55 q 177 133 163 102 q 206 200 186 155 q 254 307 226 245 q 314 442 281 368 q 381 595 346 516 q 452 753 416 673 q 520 907 487 833 q 580 1043 552 980 q 629 1150 609 1105 "},"2":{"x_min":7,"x_max":619.21875,"ha":658,"o":"m 513 1 q 473 6 493 1 q 433 22 453 12 q 393 45 413 32 q 353 72 372 57 q 269 23 313 42 q 176 1 225 4 q 109 13 140 1 q 55 46 78 26 q 20 94 33 67 q 7 150 7 122 q 14 198 7 174 q 37 242 21 222 q 78 275 54 263 q 139 288 103 288 q 234 271 193 288 q 310 232 275 255 q 348 284 330 256 q 380 342 366 312 q 401 402 393 372 q 409 462 409 433 q 399 541 409 510 q 374 590 390 572 q 341 613 359 607 q 305 620 323 620 q 265 612 284 620 q 230 592 245 605 q 206 561 215 579 q 197 521 197 543 q 217 496 197 509 q 278 470 236 484 q 279 464 279 466 q 264 447 279 456 q 224 430 248 438 q 173 417 201 422 q 120 412 144 412 q 109 418 114 418 q 100 419 104 419 q 58 468 71 442 q 46 522 46 494 q 67 606 46 561 q 126 682 89 652 q 213 731 163 712 q 320 750 263 750 q 360 747 335 750 q 414 734 385 744 q 473 707 443 724 q 527 663 503 691 q 567 589 551 636 q 582 488 582 542 q 572 417 582 458 q 543 331 562 377 q 496 239 524 286 q 433 150 468 192 q 482 132 457 139 q 537 125 507 125 q 554 135 545 125 q 572 158 564 146 q 587 181 580 170 q 598 192 594 192 q 613 184 607 192 q 619 158 619 177 q 608 85 619 129 q 598 57 604 72 q 581 29 592 42 q 554 9 570 17 q 513 1 537 1 m 167 131 q 236 158 195 131 q 205 174 219 168 q 179 180 190 180 q 134 174 147 180 q 121 161 121 169 q 125 150 121 155 q 135 140 129 145 q 150 133 141 136 q 167 131 158 131 "},"ü":{"x_min":62,"x_max":820.046875,"ha":658,"o":"m 690 876 q 689 863 690 873 q 686 840 689 854 q 676 813 683 827 q 657 786 669 799 q 626 766 645 774 q 580 758 607 758 q 511 781 538 758 q 485 858 485 805 q 491 902 485 881 q 510 940 497 923 q 543 966 523 956 q 592 976 563 976 q 665 951 640 976 q 690 876 690 925 m 373 876 q 372 863 373 873 q 368 840 372 854 q 358 813 365 827 q 339 786 351 799 q 308 766 327 774 q 263 758 290 758 q 194 781 220 758 q 168 858 168 805 q 174 902 168 881 q 193 940 180 923 q 226 966 205 956 q 275 976 246 976 q 348 951 322 976 q 373 876 373 925 m 595 632 q 594 582 595 613 q 586 513 593 550 q 569 422 579 475 q 553 335 559 370 q 542 274 547 300 q 537 237 537 248 q 537 202 537 218 q 541 174 538 186 q 550 156 544 162 q 568 149 556 149 q 604 157 583 149 q 650 177 626 164 q 699 205 674 189 q 747 239 724 221 q 788 274 769 257 q 818 306 807 291 q 819 265 818 284 q 819 230 819 247 q 819 196 819 214 q 820 157 820 178 q 783 125 805 142 q 734 92 761 108 q 677 60 707 75 q 616 32 647 44 q 556 14 586 21 q 502 7 527 7 q 459 17 477 7 q 428 45 441 27 q 406 88 415 63 q 391 144 397 113 q 339 86 366 112 q 284 40 312 59 q 227 10 256 21 q 171 -1 198 -1 q 129 6 149 -1 q 94 31 109 13 q 70 77 79 49 q 62 149 62 106 q 75 285 62 237 q 113 491 95 354 q 118 519 115 501 q 127 556 121 536 q 143 598 134 577 q 166 636 153 619 q 196 663 178 653 q 234 675 213 674 q 286 663 270 673 q 301 637 301 652 q 288 548 295 589 q 273 464 280 506 q 256 369 265 422 q 241 285 246 317 q 232 235 235 254 q 228 215 228 216 q 231 191 228 203 q 238 171 233 180 q 250 156 243 162 q 268 150 258 150 q 298 158 283 150 q 327 181 314 166 q 352 217 342 195 q 369 267 363 239 l 444 636 q 470 664 447 653 q 523 675 493 675 q 576 663 556 675 q 595 632 595 651 "},"Z":{"x_min":-32.046875,"x_max":878.296875,"ha":730,"o":"m 430 890 q 367 902 394 893 q 317 918 339 911 q 278 931 295 925 q 246 937 261 937 q 222 931 233 937 q 199 912 210 926 q 174 877 187 899 q 146 822 161 855 q 107 765 127 780 q 73 749 88 749 q 55 760 61 749 q 50 791 50 772 q 51 807 50 798 q 53 824 52 815 q 87 961 65 908 q 138 1043 110 1014 q 196 1083 166 1073 q 252 1094 226 1094 q 345 1087 322 1094 q 391 1072 367 1079 q 440 1056 415 1064 q 498 1048 464 1048 q 545 1047 523 1047 q 587 1047 567 1047 q 685 1048 649 1047 q 740 1050 721 1049 q 767 1052 760 1051 q 776 1053 773 1053 q 817 1035 805 1053 q 830 985 830 1017 q 828 964 830 975 q 825 941 827 953 q 815 928 824 937 q 787 908 807 919 q 642 753 708 831 q 522 603 576 676 q 426 466 468 530 q 353 351 384 402 q 304 268 323 301 q 276 225 284 235 l 273 209 q 284 204 273 209 q 312 191 294 198 q 350 173 329 183 q 394 156 372 164 q 438 142 416 148 q 475 137 459 137 q 573 148 530 137 q 652 177 617 160 q 717 213 688 194 q 771 246 746 231 q 800 257 786 257 q 829 248 815 257 q 854 227 843 240 q 871 198 865 214 q 878 167 878 182 q 866 131 878 145 q 800 85 841 111 q 708 36 759 59 q 600 -3 657 12 q 483 -20 542 -20 q 451 -14 474 -20 q 391 2 429 -9 q 302 36 354 15 q 181 86 250 56 q 112 45 147 57 q 50 32 78 32 q -9 50 13 32 q -32 100 -32 68 q -14 160 -32 126 q 43 234 2 194 l 541 890 q 509 889 525 890 q 474 888 492 888 q 430 890 453 888 "},"u":{"x_min":62,"x_max":820.046875,"ha":658,"o":"m 595 632 q 594 582 595 613 q 586 513 593 550 q 569 422 579 475 q 553 335 559 370 q 542 274 547 300 q 537 237 537 248 q 537 202 537 218 q 541 174 538 186 q 550 156 544 162 q 568 149 556 149 q 604 157 583 149 q 650 177 626 164 q 699 205 674 189 q 747 239 724 221 q 788 274 769 257 q 818 306 807 291 q 819 265 818 284 q 819 230 819 247 q 819 196 819 214 q 820 157 820 178 q 783 125 805 142 q 734 92 761 108 q 677 60 707 75 q 616 32 647 44 q 556 14 586 21 q 502 7 527 7 q 459 17 477 7 q 428 45 441 27 q 406 88 415 63 q 391 144 397 113 q 339 86 366 112 q 284 40 312 59 q 227 10 256 21 q 171 -1 198 -1 q 129 6 149 -1 q 94 31 109 13 q 70 77 79 49 q 62 149 62 106 q 75 285 62 237 q 113 491 95 354 q 118 519 115 501 q 127 556 121 536 q 143 598 134 577 q 166 636 153 619 q 196 663 178 653 q 234 675 213 674 q 286 663 270 673 q 301 637 301 652 q 288 548 295 589 q 273 464 280 506 q 256 369 265 422 q 241 285 246 317 q 232 235 235 254 q 228 215 228 216 q 231 191 228 203 q 238 171 233 180 q 250 156 243 162 q 268 150 258 150 q 298 158 283 150 q 327 181 314 166 q 352 217 342 195 q 369 267 363 239 l 444 636 q 470 664 447 653 q 523 675 493 675 q 576 663 556 675 q 595 632 595 651 "},"˜":{"x_min":43.40625,"x_max":604.96875,"ha":651,"o":"m 425 832 q 442 853 434 841 q 458 874 449 862 q 475 900 466 886 q 509 932 489 922 q 548 943 529 943 q 588 930 571 943 q 604 893 604 917 q 595 857 604 876 q 574 818 587 842 q 542 771 561 794 q 497 732 522 748 q 438 716 471 716 q 399 721 417 716 q 360 742 382 727 q 305 783 337 757 q 222 848 273 808 q 206 827 214 838 q 189 806 198 818 q 172 781 181 794 q 139 748 159 759 q 99 738 119 738 q 60 751 76 738 q 43 787 43 764 q 52 823 43 804 q 73 863 61 839 q 106 910 86 887 q 151 949 125 933 q 210 965 177 965 q 248 959 231 965 q 288 939 265 954 q 342 898 310 924 q 425 832 375 872 "},"Ó":{"x_min":65,"x_max":1106.625,"ha":1096,"o":"m 667 1386 q 679 1412 671 1394 q 696 1453 686 1430 q 717 1502 706 1476 q 740 1554 728 1529 q 798 1686 766 1615 q 824 1719 806 1709 q 862 1729 842 1729 q 897 1723 880 1729 q 929 1704 915 1716 q 951 1674 943 1691 q 960 1637 960 1657 q 935 1571 960 1605 q 906 1532 922 1554 q 871 1488 889 1511 q 834 1441 853 1464 q 799 1397 816 1418 q 768 1360 782 1377 q 746 1333 754 1343 q 723 1313 734 1319 q 700 1308 711 1308 q 672 1320 684 1308 q 661 1353 661 1333 q 662 1369 661 1360 q 667 1386 664 1377 m 503 -130 q 320 -88 402 -130 q 182 25 239 -47 q 95 201 126 99 q 65 424 65 302 q 74 559 65 490 q 103 696 83 628 q 151 831 122 765 q 218 955 180 897 q 304 1064 256 1014 q 409 1149 351 1113 q 532 1205 466 1185 q 674 1225 598 1225 q 856 1188 776 1225 q 992 1085 937 1151 q 1077 927 1047 1019 q 1106 725 1106 836 q 1088 536 1106 634 q 1036 343 1070 438 q 949 162 1001 248 q 831 11 898 76 q 681 -91 764 -53 q 503 -130 599 -130 m 519 27 q 620 48 573 27 q 706 106 667 69 q 777 193 745 143 q 834 299 809 242 q 878 417 859 356 q 909 537 897 478 q 927 652 921 596 q 933 752 933 707 q 918 875 933 817 q 875 976 904 933 q 803 1043 846 1018 q 701 1068 759 1068 q 580 1037 638 1068 q 470 955 522 1007 q 376 835 419 904 q 303 692 333 767 q 255 539 272 617 q 238 390 238 461 q 257 246 238 313 q 313 131 277 179 q 401 55 349 82 q 519 27 453 27 "},"k":{"x_min":80.03125,"x_max":810.109375,"ha":658,"o":"m 304 374 q 358 443 329 405 q 415 516 387 481 q 472 588 443 550 q 514 634 500 625 q 565 660 535 650 q 633 671 596 671 q 670 662 652 671 q 700 637 687 653 q 720 597 713 620 q 728 544 728 573 q 709 477 728 516 q 670 409 690 438 q 626 351 650 380 q 582 293 602 322 q 548 234 561 263 q 534 176 534 205 q 546 141 534 152 q 583 130 558 130 q 613 140 597 130 q 645 164 629 149 q 680 198 662 179 q 713 236 697 216 q 743 273 729 255 q 769 303 757 290 l 810 134 q 756 81 789 105 q 687 38 724 56 q 609 10 649 20 q 531 0 568 0 q 451 11 482 0 q 403 40 420 22 q 379 82 385 59 q 372 130 372 105 q 376 169 372 145 q 390 221 380 192 q 420 284 401 250 q 469 359 439 319 q 492 382 481 372 q 509 400 502 392 q 521 414 517 408 q 525 429 525 421 q 520 452 525 443 q 505 461 515 461 q 475 446 494 461 q 435 393 456 430 l 236 45 q 203 10 219 20 q 165 0 187 0 q 119 12 136 0 q 93 44 102 24 q 82 90 84 64 q 80 147 80 117 q 82 251 80 186 q 90 393 85 316 q 105 555 96 470 q 127 720 114 640 q 139 787 132 748 q 159 872 147 827 q 186 967 172 917 q 219 1063 199 1016 q 265 1151 239 1109 q 321 1224 290 1193 q 390 1274 352 1256 q 471 1292 427 1292 q 528 1281 506 1292 q 564 1250 551 1270 q 582 1203 577 1230 q 588 1143 588 1175 q 573 1018 588 1085 q 536 883 559 951 q 487 753 514 816 q 437 638 461 689 q 394 552 412 587 q 369 506 375 517 l 288 384 l 304 374 m 437 1141 q 399 1127 415 1141 q 369 1088 383 1113 q 340 1028 355 1063 q 308 948 326 992 q 290 870 299 910 q 274 788 280 831 q 261 705 267 746 q 249 629 255 664 q 233 461 239 543 q 265 559 248 506 q 301 665 283 613 q 334 762 318 716 q 360 840 349 808 q 373 877 364 855 q 392 925 382 900 q 413 979 403 951 q 432 1033 423 1007 q 446 1081 441 1058 q 452 1119 452 1103 q 437 1141 452 1141 "},"ˇ":{"x_min":74,"x_max":533.15625,"ha":586,"o":"m 278 802 q 317 906 298 857 q 334 949 325 927 q 350 992 342 971 q 365 1030 358 1012 q 377 1059 372 1047 q 403 1109 390 1091 q 430 1135 416 1127 q 458 1145 444 1143 q 487 1146 472 1146 q 501 1142 493 1146 q 516 1129 510 1137 q 528 1110 523 1121 q 533 1085 533 1099 q 528 1059 533 1072 l 417 836 q 384 773 398 800 q 354 727 369 745 q 318 700 338 709 q 267 691 297 691 q 217 702 237 691 q 182 735 196 713 q 157 788 168 756 q 137 860 147 819 q 124 897 129 882 q 116 922 120 912 q 110 943 113 933 q 103 966 107 952 q 92 999 99 979 q 77 1049 86 1018 q 74 1060 75 1054 q 74 1072 74 1066 q 79 1102 74 1088 q 93 1126 84 1116 q 117 1143 103 1137 q 151 1149 132 1149 q 176 1145 164 1149 q 198 1131 187 1141 q 216 1103 208 1121 q 228 1059 223 1086 q 249 941 240 990 q 265 861 258 892 q 278 802 272 824 "},"Ù":{"x_min":65,"x_max":1041.625,"ha":950,"o":"m 1032 1386 q 1037 1369 1035 1377 q 1038 1353 1038 1360 q 1027 1320 1038 1333 q 999 1308 1015 1308 q 976 1313 987 1308 q 953 1333 964 1319 q 930 1360 944 1343 q 900 1397 917 1377 q 864 1441 883 1418 q 828 1488 846 1464 q 793 1532 810 1511 q 764 1571 776 1554 q 739 1637 739 1607 q 747 1674 739 1657 q 770 1704 756 1691 q 802 1723 784 1716 q 837 1729 819 1729 q 874 1719 857 1729 q 901 1686 892 1709 q 959 1554 932 1615 q 981 1502 970 1529 q 1003 1453 993 1476 q 1020 1412 1013 1430 q 1032 1386 1027 1394 m 846 1063 q 859 1119 848 1098 q 886 1152 870 1140 q 923 1168 903 1164 q 964 1172 944 1172 q 997 1168 983 1172 q 1021 1153 1011 1164 q 1036 1125 1031 1143 q 1041 1080 1041 1108 q 1019 731 1041 893 q 956 438 996 570 q 858 204 915 306 q 732 33 801 102 q 584 -72 663 -36 q 420 -108 505 -108 q 250 -66 318 -108 q 140 43 181 -25 q 82 205 99 113 q 65 399 65 297 q 82 586 65 479 q 109 747 100 693 q 138 870 118 801 q 180 998 159 939 q 206 1059 193 1037 q 232 1092 219 1081 q 258 1105 245 1102 q 284 1107 270 1107 q 330 1105 310 1107 q 363 1096 350 1102 q 383 1077 377 1089 q 390 1045 390 1065 l 390 1040 q 395 1022 393 1032 q 405 1002 397 1013 q 383 932 396 976 q 348 832 371 888 q 313 715 325 777 q 283 586 301 653 q 251 453 265 519 q 238 330 238 388 q 248 217 238 269 q 283 126 258 164 q 345 65 307 87 q 441 43 384 43 q 525 68 485 43 q 599 135 564 92 q 665 240 634 179 q 722 374 696 301 q 768 531 747 448 q 804 702 789 614 q 831 882 820 791 q 846 1063 841 974 "},"Ÿ":{"x_min":132.9375,"x_max":1115.671875,"ha":1023,"o":"m 1063 1425 q 1062 1412 1063 1422 q 1059 1389 1062 1403 q 1049 1362 1056 1376 q 1030 1335 1042 1348 q 999 1315 1018 1323 q 953 1307 980 1307 q 884 1330 911 1307 q 858 1407 858 1354 q 864 1451 858 1430 q 883 1489 870 1472 q 916 1515 896 1505 q 965 1525 936 1525 q 1038 1500 1013 1525 q 1063 1425 1063 1474 m 746 1425 q 745 1412 746 1422 q 741 1389 745 1403 q 731 1362 738 1376 q 712 1335 724 1348 q 681 1315 700 1323 q 636 1307 663 1307 q 567 1330 593 1307 q 541 1407 541 1354 q 547 1451 541 1430 q 566 1489 553 1472 q 599 1515 578 1505 q 648 1525 619 1525 q 721 1500 695 1525 q 746 1425 746 1474 m 763 342 q 628 166 761 335 q 546 69 583 110 q 479 2 510 29 q 419 -39 448 -24 q 364 -60 391 -54 q 307 -67 337 -67 q 252 -54 280 -67 q 201 -26 224 -42 q 162 4 178 -10 q 143 28 146 20 q 136 44 139 34 q 132 64 132 54 q 137 82 132 74 q 153 90 142 90 q 164 88 158 90 q 205 69 185 75 q 243 63 225 63 q 335 81 294 63 q 408 127 375 99 q 466 192 440 156 q 530 287 492 228 q 583 379 567 345 q 613 436 599 412 q 564 555 589 496 q 512 668 539 614 q 456 768 484 722 q 399 849 428 814 q 339 902 369 883 q 278 922 308 922 q 251 917 261 922 q 236 907 242 913 q 229 891 231 900 q 227 873 227 882 q 228 853 227 863 q 229 835 229 843 q 224 821 229 824 q 210 819 218 819 q 186 835 197 819 q 168 878 175 851 q 156 939 160 905 q 152 1011 152 974 q 158 1034 152 1022 q 178 1056 164 1046 q 211 1073 191 1066 q 259 1079 231 1079 q 401 1040 337 1079 q 520 934 465 1001 q 622 777 575 867 q 714 585 670 687 q 791 727 754 657 q 859 858 828 797 q 915 968 891 919 q 956 1047 940 1017 q 989 1073 965 1063 q 1039 1083 1012 1083 q 1067 1079 1053 1083 q 1091 1066 1081 1075 q 1108 1043 1102 1058 q 1115 1009 1115 1029 q 1098 939 1115 980 q 1054 846 1082 903 q 987 719 1026 790 q 902 569 949 649 q 804 409 855 490 l 763 342 "},"€":{"x_min":-44,"x_max":1066.78125,"ha":1259,"o":"m 542 478 q 563 475 551 478 q 584 468 574 473 q 600 452 593 462 q 607 426 607 442 q 604 398 607 412 q 592 373 601 385 q 565 355 582 362 q 520 347 549 347 l 261 347 q 260 333 260 339 q 260 319 260 326 q 279 183 260 238 q 333 93 299 127 q 412 43 366 58 q 509 27 457 27 q 615 40 560 27 q 723 74 670 53 q 826 127 776 96 q 917 191 876 157 q 952 202 933 202 q 977 197 965 202 q 999 183 989 191 q 1013 162 1008 174 q 1019 137 1019 150 q 1011 108 1019 123 q 986 79 1003 92 q 876 0 936 37 q 751 -66 817 -38 q 615 -112 685 -95 q 474 -130 544 -130 q 371 -119 422 -130 q 275 -86 320 -109 q 191 -27 229 -63 q 124 58 152 8 q 80 176 96 109 q 65 326 65 242 q 65 337 65 332 q 65 347 65 342 l 21 347 q -12 355 0 347 q -32 374 -25 363 q -41 398 -39 385 q -44 421 -44 411 q -41 440 -44 430 q -33 458 -39 450 q -13 472 -26 467 q 21 478 0 478 l 81 478 q 91 521 86 499 q 103 565 96 542 l 65 565 q 31 572 44 565 q 11 591 18 580 q 2 615 4 602 q 0 638 0 628 q 2 657 0 647 q 10 675 4 667 q 30 689 17 684 q 65 695 44 695 l 151 695 q 217 826 180 761 q 300 949 255 891 q 398 1055 345 1007 q 508 1140 450 1104 q 629 1195 566 1175 q 761 1216 693 1216 q 908 1193 849 1216 q 1002 1133 967 1170 q 1052 1049 1037 1096 q 1066 953 1066 1002 q 1055 859 1066 905 q 1027 777 1044 812 q 992 719 1011 741 q 957 697 973 697 q 931 700 948 697 q 899 709 915 703 q 872 725 884 715 q 861 748 861 735 q 861 752 861 749 q 861 756 861 754 q 872 795 865 773 q 886 843 879 818 q 898 893 893 867 q 904 943 904 919 q 896 989 904 967 q 870 1028 889 1011 q 818 1054 851 1045 q 737 1064 786 1064 q 623 1033 678 1064 q 519 952 568 1003 q 428 835 470 902 q 353 695 385 768 l 586 695 q 607 693 595 695 q 628 685 618 691 q 644 669 637 679 q 651 643 651 659 q 648 616 651 630 q 636 591 645 602 q 609 572 626 579 q 564 565 593 565 l 303 565 q 290 521 296 542 q 280 478 284 499 l 542 478 "},"¢":{"x_min":43,"x_max":600.546875,"ha":608,"o":"m 349 693 q 354 720 349 706 q 366 744 358 733 q 384 762 373 755 q 409 769 395 769 q 421 763 416 769 q 430 750 426 758 q 435 732 433 741 q 437 717 437 723 q 432 688 433 706 q 429 658 430 670 l 428 647 q 499 628 467 642 q 553 594 530 614 q 588 548 575 574 q 600 494 600 523 q 595 449 600 471 q 580 408 590 426 q 555 380 570 390 q 523 369 541 369 q 489 379 499 369 q 475 403 479 388 q 471 436 471 418 q 467 471 471 454 q 453 501 463 487 q 418 519 442 514 q 404 343 412 439 q 388 137 397 248 q 465 169 426 148 q 532 209 504 190 q 548 213 540 213 q 566 208 557 213 q 583 193 576 202 q 594 172 590 184 q 599 148 599 160 q 594 127 599 137 q 578 110 589 117 q 522 67 553 87 q 460 31 495 49 q 385 3 425 13 l 370 -87 q 362 -112 367 -103 q 353 -126 358 -121 q 342 -133 347 -131 q 330 -134 336 -134 q 323 -134 326 -134 q 316 -133 320 -133 q 304 -127 310 -133 q 295 -111 299 -121 q 289 -88 291 -101 q 287 -60 287 -75 q 288 -31 287 -47 q 291 7 289 -15 q 183 31 229 8 q 105 92 136 54 q 58 180 74 130 q 43 284 43 230 q 51 360 43 320 q 78 438 60 399 q 121 512 95 476 q 180 576 147 548 q 255 624 214 604 q 345 648 296 643 l 349 693 m 216 280 q 220 235 216 259 q 233 189 224 210 q 259 153 242 168 q 302 132 275 137 q 309 220 305 173 q 317 315 313 266 q 325 413 321 364 q 333 508 329 462 q 271 463 294 493 q 236 399 248 433 q 220 333 224 365 q 216 280 216 301 "},"ß":{"x_min":43,"x_max":876.921875,"ha":869,"o":"m 224 -26 q 216 -61 224 -46 q 194 -87 207 -77 q 163 -102 180 -97 q 129 -107 146 -107 q 97 -102 112 -107 q 71 -91 83 -98 q 51 -72 59 -83 q 43 -46 43 -60 q 49 153 44 52 q 64 351 53 253 q 92 541 74 449 q 138 715 110 633 q 205 863 166 796 q 295 979 243 931 q 414 1055 347 1028 q 565 1082 481 1082 q 699 1061 641 1082 q 796 1006 757 1040 q 856 928 836 971 q 876 840 876 885 q 858 746 876 792 q 802 661 840 699 q 703 600 763 624 q 558 574 642 576 q 688 551 632 574 q 780 491 743 528 q 836 404 817 453 q 854 301 854 354 q 830 196 854 249 q 757 99 806 142 q 635 29 708 56 q 464 2 561 2 q 383 10 425 2 q 299 32 342 18 l 317 148 q 372 136 344 139 q 428 132 401 132 q 531 143 481 132 q 618 176 580 153 q 679 236 656 199 q 703 325 703 273 q 690 395 703 368 q 656 439 677 422 q 609 465 635 456 q 555 479 582 473 q 500 490 527 485 q 453 504 474 495 q 419 529 432 514 q 407 572 407 545 q 408 609 407 594 q 417 633 410 624 q 438 647 424 643 q 476 652 452 652 q 575 664 530 652 q 654 700 621 677 q 706 758 687 724 q 725 835 725 792 q 712 885 725 863 q 679 922 700 907 q 629 944 658 937 q 566 952 599 952 q 458 928 505 952 q 376 863 411 904 q 315 764 340 821 q 273 643 290 708 q 246 507 256 578 q 231 364 236 435 q 224 226 226 294 q 223 99 223 158 q 223 32 223 62 q 224 -26 222 2 "},"é":{"x_min":61,"x_max":731.75,"ha":511,"o":"m 344 832 q 356 858 348 840 q 373 899 363 876 q 394 948 383 922 q 417 1000 405 975 q 475 1132 443 1061 q 501 1165 483 1155 q 539 1175 519 1175 q 574 1169 557 1175 q 606 1150 592 1162 q 628 1120 620 1137 q 637 1083 637 1103 q 612 1017 637 1051 q 583 978 599 1000 q 548 934 566 957 q 511 887 530 910 q 476 843 493 864 q 445 806 459 823 q 423 779 431 789 q 400 759 411 765 q 377 754 388 754 q 349 766 361 754 q 338 799 338 779 q 339 815 338 806 q 344 832 341 823 m 314 0 q 203 23 251 0 q 124 87 156 47 q 76 178 92 126 q 61 288 61 231 q 75 377 61 325 q 104 469 89 429 q 142 546 119 509 q 196 610 165 582 q 265 654 227 638 q 350 671 303 671 q 420 658 388 671 q 477 624 453 646 q 515 571 501 602 q 528 501 528 540 q 501 409 528 460 q 436 322 473 358 q 349 257 400 285 q 239 212 298 228 q 259 182 249 194 q 279 164 269 170 q 301 155 290 157 q 325 152 312 152 q 411 168 366 152 q 499 208 456 184 q 579 260 541 231 q 644 313 617 288 l 731 224 q 604 112 672 161 q 542 71 575 91 q 471 35 508 50 q 395 9 434 19 q 314 0 355 0 m 223 323 q 277 335 248 323 q 331 367 306 347 q 380 418 356 386 q 404 472 404 451 q 392 521 404 502 q 365 540 381 540 q 314 530 335 540 q 280 502 294 519 q 257 464 266 485 q 237 410 249 442 q 225 358 226 379 q 223 323 223 337 "},"s":{"x_min":2.515625,"x_max":742.34375,"ha":585,"o":"m 67 256 q 129 310 105 289 q 176 362 153 332 q 214 409 200 391 q 247 453 228 428 q 293 515 266 478 q 364 607 320 552 q 383 631 372 619 q 407 652 394 642 q 436 667 420 661 q 472 673 452 673 q 522 665 505 673 q 548 648 540 658 q 558 626 556 638 q 559 607 559 615 q 546 570 559 590 q 518 532 533 550 q 488 498 502 513 q 472 475 474 483 q 475 436 472 454 q 483 402 478 419 q 494 366 489 385 q 505 323 500 348 q 506 255 510 298 q 502 168 502 212 q 555 198 527 184 q 614 225 583 211 q 676 257 644 240 q 741 300 709 275 l 742 146 q 645 87 700 115 q 528 39 589 60 q 405 6 467 18 q 288 -6 343 -6 q 213 1 248 -6 q 152 23 178 8 q 110 63 126 38 q 90 123 94 88 q 72 120 81 121 q 54 119 62 119 q 33 120 43 119 q 17 125 24 121 q 6 139 10 129 q 2 168 2 149 q 10 198 2 184 q 29 223 18 212 q 51 243 40 234 q 67 256 62 251 m 152 168 q 170 158 160 168 q 192 135 180 147 q 222 112 205 123 q 261 102 239 102 q 305 111 287 102 q 332 135 322 120 q 346 169 342 149 q 351 210 351 188 q 348 247 351 228 q 349 295 346 267 q 347 339 352 323 q 340 365 343 354 l 152 168 "},"B":{"x_min":-103.53125,"x_max":1040.625,"ha":950,"o":"m 61 904 q -17 784 17 824 q -73 744 -51 744 q -103 812 -103 744 q -84 931 -103 878 q -31 1025 -65 984 q 50 1094 2 1065 q 153 1141 97 1123 q 271 1169 209 1160 q 399 1178 333 1178 q 553 1166 476 1178 q 702 1135 630 1155 q 835 1086 773 1115 q 942 1022 896 1057 q 1014 947 988 987 q 1040 862 1040 906 q 1017 759 1040 810 q 946 667 995 708 q 822 599 898 626 q 640 571 746 573 q 758 549 707 571 q 842 490 808 527 q 892 401 876 453 q 909 296 909 349 q 898 210 909 254 q 863 127 886 167 q 806 52 840 87 q 725 -8 771 17 q 620 -49 678 -34 q 492 -65 562 -65 q 399 -59 448 -65 q 300 -45 350 -54 q 202 -23 251 -36 q 112 3 154 -11 q 78 16 93 7 q 64 47 64 25 q 69 281 64 161 q 93 517 75 400 q 140 721 110 635 q 225 889 170 808 q 312 923 273 923 q 395 867 362 923 q 342 772 364 824 q 308 679 320 720 q 288 579 297 639 q 273 462 278 519 q 267 390 270 429 q 263 313 265 350 q 260 237 261 275 q 259 165 259 200 q 259 150 259 160 q 261 130 259 140 q 265 111 262 120 q 273 98 268 102 q 362 74 314 84 q 457 65 409 65 q 568 79 514 65 q 665 124 623 93 q 732 203 707 155 q 758 326 758 251 q 743 393 758 367 q 704 438 728 420 q 649 467 680 456 q 586 486 618 478 q 523 503 554 495 q 468 524 492 511 q 429 556 444 537 q 415 605 415 575 q 416 630 415 619 q 424 647 418 640 q 443 657 431 654 q 477 661 456 661 q 530 658 506 661 q 582 656 554 656 q 700 672 647 656 q 789 715 752 688 q 846 779 826 742 q 867 857 867 815 q 851 907 867 884 q 807 948 835 930 q 741 979 779 966 q 658 1002 703 993 q 564 1016 613 1011 q 463 1020 514 1020 q 336 1015 381 1020 q 220 993 274 1008 q 124 956 166 979 q 61 904 82 933 "},"…":{"x_min":217,"x_max":1019.734375,"ha":1063,"o":"m 737 118 q 737 106 737 116 q 732 83 736 96 q 721 55 728 70 q 699 28 713 41 q 663 8 684 16 q 610 0 641 0 q 564 6 585 0 q 529 24 544 12 q 507 55 515 36 q 499 100 499 74 q 506 144 499 123 q 528 182 513 165 q 566 208 543 199 q 623 218 590 218 q 708 192 679 218 q 737 118 737 166 m 1019 118 q 1019 106 1019 116 q 1014 83 1018 96 q 1003 55 1010 70 q 981 28 995 41 q 945 8 966 16 q 892 0 923 0 q 846 6 867 0 q 811 24 826 12 q 789 55 797 36 q 781 100 781 74 q 788 144 781 123 q 810 182 795 165 q 848 208 825 199 q 905 218 872 218 q 990 192 961 218 q 1019 118 1019 166 m 455 118 q 455 106 455 116 q 450 83 454 96 q 439 55 446 70 q 417 28 431 41 q 381 8 402 16 q 328 0 359 0 q 282 6 303 0 q 247 24 262 12 q 225 55 233 36 q 217 100 217 74 q 224 144 217 123 q 246 182 231 165 q 284 208 261 199 q 341 218 308 218 q 426 192 397 218 q 455 118 455 166 "},"?":{"x_min":267,"x_max":788.84375,"ha":876,"o":"m 481 395 q 452 346 471 363 q 411 330 434 330 q 369 340 387 330 q 352 373 352 350 q 372 479 352 434 q 422 560 392 524 q 487 625 451 595 q 551 687 522 655 q 601 756 581 719 q 622 844 622 794 q 611 892 622 873 q 584 924 600 912 q 547 943 567 937 q 506 949 526 949 q 473 939 490 949 q 441 916 456 929 q 415 888 426 902 q 402 865 404 874 q 376 844 390 851 q 345 838 361 838 q 320 845 333 838 q 298 864 308 851 q 283 892 289 876 q 277 928 277 909 q 287 958 277 943 q 335 1010 307 987 q 395 1048 363 1033 q 462 1071 427 1063 q 530 1079 496 1079 q 618 1066 572 1079 q 701 1025 663 1053 q 764 954 739 997 q 788 852 788 911 q 771 730 788 781 q 727 642 754 680 q 665 576 699 605 q 596 521 631 548 q 532 464 562 493 q 481 395 501 434 m 505 118 q 505 106 505 116 q 500 83 504 96 q 489 55 496 70 q 466 28 481 41 q 430 8 452 16 q 377 0 409 0 q 332 6 352 0 q 297 24 312 12 q 275 55 283 36 q 267 100 267 74 q 274 144 267 123 q 296 182 281 165 q 334 208 310 199 q 390 218 358 218 q 476 192 447 218 q 505 118 505 166 "},"H":{"x_min":240,"x_max":1548.5,"ha":1462,"o":"m 1220 504 q 1181 322 1208 469 q 1167 194 1167 248 q 1186 120 1167 147 q 1250 93 1206 93 q 1291 103 1267 93 q 1345 135 1315 113 q 1413 190 1376 156 q 1497 271 1451 224 q 1505 252 1499 267 q 1521 212 1511 239 q 1548 139 1530 185 q 1446 51 1497 89 q 1346 -11 1395 13 q 1253 -50 1298 -37 q 1172 -63 1209 -63 q 1092 -48 1129 -63 q 1029 -4 1056 -33 q 987 65 1003 23 q 972 161 972 107 q 976 211 972 181 q 987 281 980 242 q 1007 377 995 320 q 1032 485 1019 434 q 857 466 941 475 q 690 450 773 458 q 652 332 671 392 q 616 224 633 273 q 584 135 599 175 q 559 69 569 94 q 493 -35 512 -19 q 436 -62 461 -62 q 404 -57 420 -62 q 376 -43 388 -52 q 357 -21 364 -34 q 350 7 350 -8 q 352 27 350 18 q 417 237 377 137 q 485 436 456 341 q 413 442 447 436 q 350 463 379 448 q 298 504 321 478 q 260 571 275 530 q 256 593 257 583 q 254 613 254 603 q 275 643 254 643 q 304 629 288 643 q 344 585 319 615 q 407 587 375 586 q 476 588 439 588 l 541 588 q 588 709 565 651 q 628 824 616 785 q 647 896 640 860 q 654 965 654 932 q 649 1014 654 991 q 633 1052 644 1036 q 605 1076 622 1067 q 563 1085 588 1085 q 516 1078 543 1085 q 457 1056 490 1072 q 386 1017 424 1041 q 303 956 348 992 q 274 937 288 943 q 250 932 261 932 q 242 950 245 932 q 240 994 240 968 q 256 1061 240 1029 q 301 1120 273 1093 q 365 1168 329 1146 q 440 1206 402 1190 q 517 1229 479 1221 q 587 1237 555 1237 q 679 1224 635 1237 q 755 1183 722 1211 q 808 1109 788 1154 q 827 998 827 1063 q 820 924 827 968 q 800 827 813 879 q 771 715 788 774 q 734 594 754 655 q 891 603 804 598 q 1066 613 978 608 q 1144 847 1104 725 q 1233 1085 1184 968 q 1276 1147 1250 1124 q 1339 1170 1303 1170 q 1368 1166 1354 1170 q 1392 1153 1382 1162 q 1408 1132 1403 1145 q 1414 1101 1414 1118 q 1412 1063 1414 1084 q 1401 1017 1410 1041 q 1368 927 1386 974 q 1332 828 1350 879 q 1297 725 1314 778 q 1262 620 1279 672 q 1327 628 1296 626 q 1376 631 1359 630 q 1390 632 1383 632 q 1401 633 1396 633 q 1435 629 1422 633 q 1455 617 1448 625 q 1465 599 1462 610 q 1468 576 1468 589 q 1462 553 1468 562 q 1446 538 1455 544 q 1426 531 1437 533 q 1407 528 1416 528 q 1380 525 1388 526 q 1368 524 1372 524 q 1364 523 1365 523 q 1359 523 1363 523 q 1344 521 1355 522 q 1313 518 1334 520 q 1266 510 1289 514 q 1220 504 1243 507 "},"î":{"x_min":65,"x_max":528.6875,"ha":364,"o":"m 340 1096 q 294 992 316 1041 q 275 949 285 971 q 256 906 265 926 q 239 868 247 886 q 226 838 231 851 q 197 789 211 806 q 168 763 183 771 q 139 753 154 755 q 111 752 125 752 q 96 756 103 752 q 81 768 88 760 q 71 788 75 777 q 68 813 67 799 q 75 839 69 826 l 199 1062 q 236 1125 219 1097 q 269 1170 252 1152 q 306 1198 285 1188 q 358 1207 327 1207 q 407 1196 388 1207 q 440 1163 427 1185 q 462 1110 453 1141 q 478 1038 470 1078 q 488 1000 484 1015 q 494 975 491 986 q 500 955 497 964 q 506 932 502 945 q 514 899 509 918 q 527 849 519 880 q 528 825 529 837 q 506 771 527 794 q 446 749 485 749 q 421 753 433 749 q 400 767 409 757 q 384 795 390 777 q 375 838 377 812 q 361 957 367 908 q 350 1037 354 1006 q 340 1096 344 1074 m 499 144 q 438 97 474 122 q 360 50 402 71 q 274 14 317 28 q 191 0 230 0 q 131 10 155 0 q 92 37 107 20 q 71 80 77 55 q 65 136 65 106 q 74 235 65 179 q 98 353 83 292 q 129 474 113 413 q 156 585 144 534 q 175 615 161 602 q 207 635 189 627 q 245 647 225 643 q 279 650 264 650 q 318 640 308 650 q 328 612 328 629 q 321 569 328 597 q 304 505 313 541 q 283 428 294 469 q 262 347 273 387 q 245 267 251 306 q 238 197 238 228 q 245 148 238 166 q 273 130 252 130 q 327 147 297 130 q 387 188 357 164 q 447 238 418 212 q 499 282 476 264 l 499 144 "},"c":{"x_min":43,"x_max":661.328125,"ha":511,"o":"m 297 0 q 187 23 234 0 q 107 85 139 46 q 59 174 75 123 q 43 280 43 225 q 56 374 43 319 q 86 470 70 429 q 125 548 102 511 q 180 614 149 586 q 249 658 211 642 q 333 675 287 675 q 409 663 374 675 q 468 630 444 651 q 507 580 493 609 q 521 518 521 552 q 515 473 521 495 q 489 420 508 451 q 452 379 470 390 q 411 369 434 369 q 367 386 377 369 q 357 432 351 412 q 369 482 359 443 q 370 507 370 488 q 366 534 370 523 q 351 545 363 545 q 304 532 324 545 q 271 497 285 518 q 244 437 257 476 q 225 371 230 398 q 217 321 219 345 q 216 281 216 297 q 221 230 216 256 q 238 181 225 203 q 272 145 251 159 q 326 130 293 130 q 398 150 358 130 q 477 201 437 170 q 552 268 516 231 q 614 337 588 304 l 661 258 q 551 129 610 186 q 496 81 526 104 q 435 40 467 58 q 367 11 402 22 q 297 0 333 0 "},"¶":{"x_min":65.078125,"x_max":968.78125,"ha":887,"o":"m 619 86 q 643 235 632 161 q 666 380 654 309 q 687 514 677 450 q 704 631 696 578 q 653 625 682 628 q 598 618 624 622 q 559 408 578 512 q 542 315 551 363 q 524 217 533 266 q 507 122 515 169 q 491 35 498 76 q 478 17 486 25 q 457 5 469 10 q 431 -2 446 0 q 403 -5 417 -5 q 371 -1 387 -5 q 342 9 355 2 q 322 28 330 17 q 315 55 315 39 q 319 77 315 65 q 324 111 320 84 q 335 179 328 139 q 348 268 341 219 q 363 367 356 316 q 403 628 381 483 q 248 650 312 628 q 143 708 184 672 q 84 789 103 744 q 65 878 65 833 q 84 957 65 919 q 137 1029 103 995 q 219 1091 171 1063 q 324 1139 267 1119 q 449 1171 382 1160 q 587 1182 516 1182 q 725 1177 669 1182 q 814 1166 780 1172 q 877 1150 854 1158 q 923 1123 903 1140 q 954 1085 940 1108 q 968 1029 968 1062 q 964 997 968 1014 q 951 931 959 976 q 933 824 943 886 q 910 690 922 762 q 884 545 897 617 q 852 392 872 472 q 829 262 832 312 q 810 159 826 212 q 787 85 793 107 q 769 47 780 63 q 744 21 758 31 q 715 5 730 10 q 685 0 700 0 q 637 16 657 0 q 617 64 617 33 q 619 86 617 76 "},"−":{"x_min":130.21875,"x_max":694.5,"ha":825,"o":"m 213 391 q 177 396 192 391 q 150 409 161 401 q 135 429 140 418 q 130 452 130 440 q 136 476 130 464 q 153 499 142 489 q 183 515 165 509 q 224 521 200 521 l 630 521 q 679 505 663 521 q 694 469 694 490 q 687 430 694 445 q 670 405 680 414 q 646 394 659 397 q 621 391 634 391 l 213 391 "},"•":{"x_min":174,"x_max":586.359375,"ha":760,"o":"m 174 368 q 198 471 174 426 q 260 546 222 515 q 344 591 298 576 q 434 607 390 607 q 493 599 465 607 q 541 575 521 592 q 574 528 562 557 q 586 455 586 498 q 565 335 586 388 q 510 245 544 282 q 434 189 477 209 q 347 170 391 170 q 284 180 315 170 q 229 213 254 190 q 189 274 204 236 q 174 368 174 312 "},"¥":{"x_min":52.90625,"x_max":1125.84375,"ha":1216,"o":"m 840 369 q 869 367 853 369 q 900 361 885 366 q 923 348 914 356 q 933 326 933 339 q 929 303 933 315 q 911 282 925 292 q 873 267 898 273 q 807 261 849 261 l 640 261 q 601 158 621 201 q 561 87 581 116 q 519 41 541 58 q 474 15 497 24 q 427 3 451 6 q 377 1 403 1 q 339 6 357 1 q 308 22 322 12 q 288 45 295 31 q 280 75 280 59 q 284 104 280 90 q 295 129 288 118 q 310 146 301 139 q 328 152 318 152 q 356 149 342 152 q 384 137 370 146 q 406 131 393 131 q 431 166 416 131 q 463 261 445 202 l 399 261 q 349 267 368 261 q 320 283 330 273 q 306 303 309 292 q 303 322 303 313 q 306 337 303 329 q 319 352 309 345 q 348 364 329 360 q 399 369 367 369 l 491 369 l 507 435 l 402 435 q 350 441 370 435 q 320 457 330 447 q 307 477 310 466 q 303 496 303 487 q 306 511 303 503 q 320 526 309 519 q 350 538 330 534 q 402 543 370 543 l 503 543 q 481 657 493 601 q 456 763 469 713 q 428 857 443 814 q 398 931 414 900 q 363 980 381 962 q 325 998 345 998 q 251 966 301 998 q 137 867 202 935 q 124 878 134 869 q 98 903 115 886 q 52 949 81 919 q 135 1035 93 998 q 218 1098 177 1073 q 295 1136 258 1123 q 361 1149 331 1149 q 461 1105 418 1149 q 536 983 503 1060 q 592 805 568 907 q 637 589 617 704 q 740 742 691 667 q 832 883 790 817 q 909 1001 875 948 q 965 1088 943 1054 q 980 1104 971 1097 q 1002 1115 990 1111 q 1027 1123 1013 1120 q 1054 1126 1041 1126 q 1081 1123 1068 1126 q 1104 1112 1094 1120 q 1120 1094 1114 1105 q 1125 1065 1125 1082 q 1118 1028 1125 1049 q 1095 979 1111 1006 q 1044 903 1077 949 q 969 802 1011 858 q 878 680 927 745 q 778 543 829 614 l 858 543 q 889 541 872 543 q 920 535 906 540 q 945 522 935 530 q 954 500 954 513 q 950 477 954 489 q 932 456 946 466 q 893 441 918 447 q 824 435 867 435 l 706 435 l 682 369 l 840 369 "},"(":{"x_min":219,"x_max":1087.8125,"ha":950,"o":"m 435 -259 q 338 -232 379 -259 q 271 -155 297 -204 q 231 -38 244 -106 q 219 109 219 29 q 231 275 219 187 q 266 452 243 363 q 320 630 288 542 q 392 798 352 718 q 480 946 433 878 q 579 1065 526 1015 q 688 1144 632 1115 q 804 1172 745 1172 q 895 1157 848 1172 q 981 1118 941 1142 q 1050 1062 1021 1093 q 1087 998 1078 1031 q 1087 996 1087 997 q 1087 993 1087 994 q 1077 967 1087 981 q 1053 938 1068 952 q 1022 916 1038 925 q 992 907 1005 907 q 978 912 983 907 q 945 942 962 924 q 908 978 928 960 q 862 1008 887 995 q 804 1020 837 1020 q 723 994 763 1020 q 647 923 684 968 q 577 817 610 878 q 515 685 543 756 q 464 539 487 615 q 426 387 442 463 q 401 240 410 311 q 392 109 392 169 q 397 21 392 61 q 411 -47 401 -18 q 438 -92 421 -76 q 479 -108 454 -108 q 517 -104 496 -108 q 563 -89 537 -101 q 621 -50 589 -76 q 695 21 653 -24 q 714 34 704 30 q 733 39 724 39 q 757 30 745 39 q 778 10 769 22 q 791 -17 786 -2 q 796 -48 796 -33 q 793 -69 796 -59 q 783 -87 790 -80 q 604 -220 693 -180 q 435 -259 516 -259 "},"U":{"x_min":65,"x_max":1041.625,"ha":950,"o":"m 846 1063 q 859 1119 848 1098 q 886 1152 870 1140 q 923 1168 903 1164 q 964 1172 944 1172 q 997 1168 983 1172 q 1021 1153 1011 1164 q 1036 1125 1031 1143 q 1041 1080 1041 1108 q 1019 731 1041 893 q 956 438 996 570 q 858 204 915 306 q 732 33 801 102 q 584 -72 663 -36 q 420 -108 505 -108 q 250 -66 318 -108 q 140 43 181 -25 q 82 205 99 113 q 65 399 65 297 q 82 586 65 479 q 109 747 100 693 q 138 870 118 801 q 180 998 159 939 q 206 1059 193 1037 q 232 1092 219 1081 q 258 1105 245 1102 q 284 1107 270 1107 q 330 1105 310 1107 q 363 1096 350 1102 q 383 1077 377 1089 q 390 1045 390 1065 l 390 1040 q 395 1022 393 1032 q 405 1002 397 1013 q 383 932 396 976 q 348 832 371 888 q 313 715 325 777 q 283 586 301 653 q 251 453 265 519 q 238 330 238 388 q 248 217 238 269 q 283 126 258 164 q 345 65 307 87 q 441 43 384 43 q 525 68 485 43 q 599 135 564 92 q 665 240 634 179 q 722 374 696 301 q 768 531 747 448 q 804 702 789 614 q 831 882 820 791 q 846 1063 841 974 "},"Ñ":{"x_min":-28,"x_max":1316.484375,"ha":1096,"o":"m 969 1424 q 986 1445 978 1433 q 1002 1466 993 1454 q 1019 1492 1010 1478 q 1053 1524 1033 1514 q 1092 1535 1073 1535 q 1132 1522 1115 1535 q 1148 1485 1148 1509 q 1139 1449 1148 1468 q 1118 1410 1131 1434 q 1086 1363 1105 1386 q 1041 1324 1066 1340 q 982 1308 1015 1308 q 943 1313 961 1308 q 904 1334 926 1319 q 849 1375 881 1349 q 766 1440 817 1400 q 750 1419 758 1430 q 733 1398 742 1410 q 716 1373 725 1386 q 683 1340 703 1351 q 643 1330 663 1330 q 604 1343 620 1330 q 587 1379 587 1356 q 596 1415 587 1396 q 617 1455 605 1431 q 650 1502 630 1479 q 695 1541 669 1525 q 754 1557 721 1557 q 792 1551 775 1557 q 832 1531 809 1546 q 886 1490 854 1516 q 969 1424 919 1464 m 310 516 q 402 757 357 655 q 491 933 448 860 q 576 1052 535 1006 q 656 1125 617 1099 q 732 1162 695 1152 q 802 1172 768 1172 q 868 1154 841 1172 q 913 1109 895 1137 q 938 1047 930 1081 q 946 982 946 1014 q 940 888 946 939 q 925 778 934 836 q 905 659 916 721 q 885 539 894 598 q 869 424 876 480 q 863 317 863 367 q 864 280 863 300 q 868 240 865 260 q 878 199 872 219 q 895 164 884 180 q 922 139 906 148 q 961 129 938 129 q 1030 146 994 129 q 1101 187 1066 162 q 1168 240 1136 211 q 1223 294 1199 269 q 1261 335 1247 319 q 1275 353 1275 352 l 1316 205 q 1266 147 1294 176 q 1207 93 1239 119 q 1139 45 1175 67 q 1066 7 1104 23 q 991 -18 1029 -9 q 917 -27 954 -27 q 834 -11 870 -27 q 772 32 798 5 q 729 97 746 60 q 701 176 711 134 q 686 260 690 217 q 682 342 682 302 q 690 446 682 395 q 711 546 699 497 q 738 642 723 596 q 765 735 753 689 q 786 825 777 781 q 795 908 795 868 q 793 937 795 919 q 787 973 792 956 q 773 1002 783 990 q 748 1015 764 1015 q 692 989 720 1015 q 632 917 663 963 q 572 809 602 872 q 511 675 541 747 q 451 523 481 603 q 394 363 422 443 q 341 205 367 283 q 293 58 315 127 q 249 6 274 21 q 194 -9 224 -9 q 160 -1 176 -9 q 130 20 143 5 q 110 56 118 35 q 103 104 103 77 q 105 156 103 133 q 113 202 108 179 q 144 344 130 279 q 171 469 158 410 q 193 585 183 528 q 213 699 203 642 q 227 819 222 755 q 237 955 233 883 q 237 972 237 962 q 234 991 237 982 q 227 1007 232 1001 q 212 1014 222 1014 q 179 1000 199 1014 q 139 961 160 986 q 98 904 119 937 q 59 832 76 870 q 46 816 55 821 q 26 812 37 812 q 8 818 17 812 q -9 833 0 824 q -22 852 -17 842 q -28 870 -28 862 q -25 877 -28 874 q 25 1012 -2 957 q 86 1101 54 1067 q 152 1151 118 1136 q 217 1167 185 1167 q 297 1152 265 1167 q 351 1110 330 1137 q 380 1046 371 1084 q 388 963 388 1009 q 355 733 388 906 q 322 560 322 560 q 324 567 322 560 q 298 520 326 574 l 310 516 "},"F":{"x_min":86.765625,"x_max":1467.671875,"ha":950,"o":"m 441 822 q 441 812 441 821 q 433 795 440 804 q 411 778 427 785 q 367 771 396 771 q 307 775 329 771 q 275 787 285 779 q 262 804 264 794 q 260 824 260 814 q 310 997 260 925 q 453 1116 361 1070 q 672 1184 544 1162 q 955 1206 800 1206 q 1171 1196 1058 1206 q 1406 1175 1284 1186 q 1454 1147 1441 1165 q 1467 1108 1467 1128 q 1463 1080 1467 1094 q 1452 1052 1460 1065 q 1432 1031 1445 1039 q 1431 1023 1420 1023 q 1447 1023 1451 1023 q 1439 1024 1443 1024 q 1325 1034 1386 1028 q 1197 1045 1264 1039 q 1070 1052 1131 1051 q 948 1054 1010 1054 q 904 1052 929 1054 q 854 1048 878 1051 q 798 1043 827 1046 q 796 1029 798 1037 q 793 1004 795 1021 q 785 959 790 987 q 775 891 779 931 q 763 792 771 852 q 748 643 755 733 l 1123 643 q 1148 637 1139 643 q 1161 621 1157 631 q 1166 602 1165 612 q 1166 581 1166 591 q 1152 535 1166 551 q 1123 520 1138 520 q 1092 519 1118 520 q 1027 517 1065 518 q 944 514 989 516 q 856 511 899 513 q 780 509 814 510 q 731 508 746 508 q 702 350 716 426 q 665 207 688 273 q 609 87 641 141 q 533 -5 577 33 q 431 -65 489 -43 q 299 -86 374 -86 q 262 -84 284 -86 q 216 -77 240 -82 q 169 -65 193 -72 q 128 -45 146 -57 q 98 -19 109 -34 q 86 15 86 -3 q 91 42 86 26 q 104 74 95 59 q 127 102 113 90 q 161 113 141 113 q 208 106 183 113 q 259 89 233 98 q 313 72 286 80 q 369 65 341 65 q 413 83 391 65 q 453 132 434 101 q 489 206 471 164 q 521 298 506 248 q 548 400 536 347 q 572 507 560 454 l 488 508 q 459 510 477 508 q 427 519 442 513 q 400 535 411 525 q 389 561 389 546 q 395 581 389 572 q 416 595 401 591 q 482 609 454 603 q 533 619 511 615 q 572 626 555 623 q 604 631 589 629 q 630 765 620 711 q 646 862 639 819 q 659 944 653 906 q 673 1026 664 982 q 570 986 614 1009 q 497 935 526 962 q 455 879 469 908 q 441 822 441 850 "},":":{"x_min":217,"x_max":496.734375,"ha":477,"o":"m 496 574 q 496 561 496 571 q 491 538 495 551 q 480 511 487 525 q 458 484 472 496 q 422 464 443 472 q 369 456 400 456 q 323 461 344 456 q 288 479 303 467 q 266 510 274 491 q 258 556 258 529 q 265 599 258 578 q 287 637 272 621 q 325 664 302 654 q 381 674 349 674 q 467 648 438 674 q 496 574 496 622 m 455 118 q 455 106 455 116 q 450 83 454 96 q 439 55 446 70 q 417 28 431 41 q 381 8 402 16 q 328 0 359 0 q 282 6 303 0 q 247 24 262 12 q 225 55 233 36 q 217 100 217 74 q 224 144 217 123 q 246 182 231 165 q 284 208 261 199 q 341 218 308 218 q 426 192 397 218 q 455 118 455 166 "},"Û":{"x_min":65,"x_max":1041.625,"ha":950,"o":"m 767 1655 q 721 1551 743 1600 q 702 1508 712 1530 q 683 1465 692 1485 q 666 1427 674 1445 q 653 1397 658 1410 q 624 1348 638 1365 q 595 1322 610 1330 q 566 1312 581 1314 q 538 1311 552 1311 q 523 1315 530 1311 q 508 1327 515 1319 q 498 1347 502 1336 q 495 1372 494 1358 q 502 1398 496 1385 l 626 1621 q 663 1684 646 1656 q 696 1729 679 1711 q 733 1757 712 1747 q 785 1766 754 1766 q 834 1755 815 1766 q 867 1722 854 1744 q 889 1669 880 1700 q 905 1597 897 1637 q 915 1559 911 1574 q 921 1534 918 1545 q 927 1514 924 1523 q 933 1491 929 1504 q 941 1458 936 1477 q 954 1408 946 1439 q 955 1384 956 1396 q 933 1330 954 1353 q 873 1308 912 1308 q 848 1312 860 1308 q 827 1326 836 1316 q 811 1354 817 1336 q 802 1397 804 1371 q 788 1516 794 1467 q 777 1596 781 1565 q 767 1655 771 1633 m 846 1063 q 859 1119 848 1098 q 886 1152 870 1140 q 923 1168 903 1164 q 964 1172 944 1172 q 997 1168 983 1172 q 1021 1153 1011 1164 q 1036 1125 1031 1143 q 1041 1080 1041 1108 q 1019 731 1041 893 q 956 438 996 570 q 858 204 915 306 q 732 33 801 102 q 584 -72 663 -36 q 420 -108 505 -108 q 250 -66 318 -108 q 140 43 181 -25 q 82 205 99 113 q 65 399 65 297 q 82 586 65 479 q 109 747 100 693 q 138 870 118 801 q 180 998 159 939 q 206 1059 193 1037 q 232 1092 219 1081 q 258 1105 245 1102 q 284 1107 270 1107 q 330 1105 310 1107 q 363 1096 350 1102 q 383 1077 377 1089 q 390 1045 390 1065 l 390 1040 q 395 1022 393 1032 q 405 1002 397 1013 q 383 932 396 976 q 348 832 371 888 q 313 715 325 777 q 283 586 301 653 q 251 453 265 519 q 238 330 238 388 q 248 217 238 269 q 283 126 258 164 q 345 65 307 87 q 441 43 384 43 q 525 68 485 43 q 599 135 564 92 q 665 240 634 179 q 722 374 696 301 q 768 531 747 448 q 804 702 789 614 q 831 882 820 791 q 846 1063 841 974 "},"*":{"x_min":21.578125,"x_max":677.703125,"ha":732,"o":"m 471 1158 q 455 1112 464 1137 q 436 1061 446 1086 q 418 1011 427 1036 q 401 969 409 987 q 452 997 423 981 q 507 1027 481 1013 q 570 1062 538 1044 q 582 1067 576 1066 q 596 1069 588 1069 q 626 1061 611 1069 q 652 1042 641 1054 q 670 1015 663 1029 q 677 985 677 1000 q 666 954 677 968 q 626 932 654 940 q 582 924 606 928 q 532 915 557 919 q 484 906 508 910 q 439 899 460 902 q 480 881 457 891 q 525 860 502 871 q 571 839 548 849 q 612 819 593 828 q 640 795 632 808 q 649 768 649 782 q 641 741 649 754 q 621 716 633 727 q 592 700 608 706 q 562 693 577 693 q 523 709 538 693 q 467 761 494 735 q 419 806 444 783 q 379 846 395 829 q 378 789 378 823 q 377 724 377 755 q 375 649 376 688 q 368 623 375 634 q 347 603 360 611 q 319 590 335 595 q 288 586 304 586 q 264 589 276 586 q 244 599 253 592 q 229 615 235 606 q 224 639 224 625 q 224 651 224 645 q 227 665 225 658 q 243 710 234 686 q 262 760 253 735 q 281 809 272 785 q 298 851 290 833 q 246 823 276 839 q 191 793 217 808 q 129 760 161 776 q 103 753 117 753 q 73 761 88 753 q 47 781 58 768 q 28 808 35 793 q 21 838 21 823 q 33 869 21 855 q 72 890 44 882 q 116 898 92 894 q 165 907 140 903 q 214 915 190 911 q 258 922 237 919 q 218 941 240 930 q 173 961 195 951 q 127 982 150 972 q 87 1002 105 993 q 50 1052 50 1023 q 58 1080 50 1066 q 78 1104 66 1093 q 106 1121 91 1115 q 138 1128 122 1128 q 176 1112 161 1128 q 232 1060 205 1086 q 280 1015 255 1038 q 323 975 305 991 q 323 1032 323 998 q 325 1097 324 1065 q 326 1174 325 1135 q 334 1201 326 1189 q 353 1221 341 1213 q 380 1233 365 1229 q 411 1237 395 1237 q 455 1224 436 1237 q 474 1183 474 1211 q 473 1172 474 1178 q 471 1158 472 1166 "},"†":{"x_min":85.3125,"x_max":693.125,"ha":781,"o":"m 635 824 q 676 811 660 824 q 693 771 693 798 q 686 740 693 751 q 670 724 680 729 q 647 717 659 718 q 622 715 634 715 l 445 715 q 415 577 430 647 q 386 443 399 506 q 361 328 372 379 q 343 249 350 277 q 323 206 337 221 q 295 184 310 191 q 265 175 280 176 q 238 173 249 173 q 215 180 224 173 q 200 198 205 187 q 192 222 194 208 q 189 250 189 236 q 190 270 189 260 q 193 287 191 279 q 207 351 197 307 q 231 452 218 394 q 260 578 244 510 q 292 715 276 647 l 150 715 q 113 720 126 715 q 94 732 100 725 q 86 748 88 739 q 85 765 85 757 q 92 793 85 782 q 109 811 98 804 q 132 821 119 818 q 157 824 145 824 l 317 824 q 340 926 329 879 q 359 1008 351 974 q 370 1036 362 1022 q 391 1062 378 1050 q 424 1081 405 1073 q 466 1088 442 1088 q 487 1084 479 1088 q 500 1071 495 1079 q 507 1054 505 1064 q 509 1033 509 1044 q 506 1000 509 1017 q 501 971 503 983 q 487 906 495 943 q 469 824 479 869 l 635 824 "},"°":{"x_min":43,"x_max":455.546875,"ha":500,"o":"m 43 893 q 67 985 43 945 q 130 1052 92 1025 q 213 1093 168 1079 q 298 1106 258 1106 q 354 1097 326 1106 q 405 1068 382 1087 q 441 1020 427 1049 q 455 951 455 990 q 433 843 455 888 q 377 767 411 797 q 301 721 342 736 q 219 706 259 706 q 160 716 190 706 q 103 747 129 726 q 59 804 76 769 q 43 893 43 840 m 279 1010 q 220 999 245 1010 q 178 971 195 988 q 153 933 161 954 q 145 892 145 912 q 150 863 145 876 q 164 838 154 849 q 187 821 173 827 q 219 815 201 815 q 272 827 249 815 q 312 857 296 839 q 336 898 328 876 q 345 941 345 920 q 329 989 345 969 q 279 1010 313 1010 "},"V":{"x_min":21,"x_max":895.9375,"ha":728,"o":"m 58 327 q 56 350 58 328 q 52 410 54 373 q 46 496 49 447 q 39 598 42 544 q 32 706 35 651 q 26 812 29 761 q 22 905 24 862 q 21 975 21 947 q 31 1039 21 1016 q 55 1072 41 1061 q 85 1084 69 1082 q 112 1086 101 1086 q 153 1079 137 1086 q 178 1059 169 1072 q 191 1027 187 1046 q 194 984 194 1008 l 224 177 l 666 1026 q 682 1057 671 1042 q 710 1083 694 1072 q 746 1101 726 1094 q 787 1107 766 1107 q 825 1086 811 1107 q 839 1030 839 1065 q 826 965 839 1006 q 792 873 813 924 q 742 764 771 822 q 683 645 714 706 q 620 526 652 585 q 560 414 589 466 q 548 382 552 399 q 544 348 544 365 q 554 298 544 322 q 586 254 564 273 q 640 224 607 235 q 718 213 673 213 q 742 217 729 213 q 770 230 756 222 q 799 248 784 238 q 828 268 814 258 q 895 324 861 293 l 880 183 q 768 110 824 137 q 663 83 712 83 q 581 95 617 83 q 520 131 545 108 q 482 186 495 154 q 470 259 470 219 q 474 303 470 279 q 398 147 433 209 q 331 47 363 84 q 268 -6 298 9 q 207 -22 237 -22 q 141 -8 167 -22 q 100 29 115 5 q 77 87 85 53 q 67 159 70 120 q 63 240 64 198 q 58 327 62 283 "},"å":{"x_min":43,"x_max":799.578125,"ha":658,"o":"m 302 915 q 312 973 302 947 q 339 1021 322 999 q 380 1058 357 1042 q 428 1086 403 1075 q 480 1103 453 1097 q 529 1108 506 1108 q 580 1100 555 1108 q 625 1073 605 1091 q 657 1029 645 1056 q 670 968 670 1003 q 650 873 670 913 q 600 807 631 833 q 532 767 569 780 q 459 755 494 755 q 406 763 434 755 q 355 789 378 771 q 317 839 332 808 q 302 915 302 870 m 512 1021 q 460 1011 482 1021 q 423 986 437 1001 q 401 952 408 970 q 393 915 393 933 q 397 888 393 901 q 410 866 401 876 q 430 851 418 857 q 459 845 443 845 q 506 856 485 845 q 542 883 527 866 q 564 920 556 900 q 572 959 572 940 q 557 1003 572 985 q 512 1021 543 1021 m 799 168 q 757 117 783 146 q 699 60 731 87 q 629 15 666 34 q 554 -3 592 -3 q 479 25 509 -3 q 427 108 449 54 q 386 70 410 89 q 334 34 362 50 q 274 9 305 19 q 213 -1 244 -1 q 149 12 180 -1 q 95 50 118 25 q 57 111 71 75 q 43 192 43 147 q 57 296 43 243 q 101 412 71 349 q 166 519 131 474 q 241 598 200 564 q 328 652 282 632 q 420 672 373 672 q 445 665 436 672 q 459 651 454 659 q 471 636 465 643 q 484 625 476 628 q 501 620 492 621 q 518 619 510 619 q 534 620 526 619 q 549 620 542 620 q 568 618 559 620 q 584 609 577 616 q 595 590 591 602 q 598 556 598 578 q 591 484 598 524 q 576 404 585 445 q 556 309 567 362 q 545 220 545 256 q 551 171 545 189 q 576 154 557 154 q 606 161 590 154 q 637 179 621 168 q 669 205 653 191 q 699 235 685 220 q 767 317 733 271 l 799 168 m 216 221 q 219 187 216 204 q 227 158 221 171 q 243 137 233 145 q 269 129 254 129 q 315 151 294 129 q 350 203 335 172 q 374 266 365 234 q 386 321 384 299 l 437 541 q 383 528 409 541 q 333 490 356 514 q 290 437 309 467 q 251 362 270 406 q 224 284 232 318 q 216 221 216 251 "}," ":{"x_min":0,"x_max":0,"ha":370},"0":{"x_min":73,"x_max":584.921875,"ha":658,"o":"m 280 0 q 189 23 228 0 q 124 85 150 46 q 85 175 98 124 q 73 284 73 227 q 82 386 73 334 q 108 487 91 438 q 152 579 126 536 q 212 655 178 622 q 288 706 246 687 q 379 725 330 725 q 475 703 435 725 q 538 644 516 681 q 572 557 560 606 q 584 452 584 508 q 575 349 584 402 q 550 245 565 296 q 509 150 536 195 q 446 72 481 106 q 370 19 412 39 q 280 0 328 0 m 291 130 q 327 147 309 130 q 360 190 345 163 q 389 253 376 218 q 412 326 403 289 q 427 401 422 364 q 433 470 433 439 q 429 519 433 496 q 419 558 426 542 q 402 585 412 575 q 376 595 391 595 q 338 578 356 595 q 304 535 320 562 q 277 474 289 508 q 257 402 265 439 q 244 328 248 365 q 239 261 239 292 q 242 209 239 233 q 252 168 245 186 q 268 140 258 150 q 291 130 278 130 "},"”":{"x_min":108,"x_max":599.5,"ha":805,"o":"m 108 869 q 109 901 108 882 q 111 944 110 920 q 114 993 112 967 q 119 1044 116 1019 q 130 1171 123 1103 q 140 1208 130 1192 q 166 1235 150 1224 q 203 1252 182 1246 q 243 1258 223 1258 q 278 1254 261 1258 q 307 1240 294 1249 q 327 1217 320 1232 q 335 1184 335 1203 q 334 1168 335 1176 q 329 1150 332 1159 q 307 1078 319 1117 q 283 1000 296 1039 q 259 927 271 962 q 238 867 247 892 q 205 819 226 835 q 162 803 184 803 q 124 820 140 803 q 108 869 108 836 m 372 869 q 373 901 372 882 q 375 944 374 920 q 378 993 376 967 q 383 1044 380 1019 q 394 1171 387 1103 q 404 1208 394 1192 q 430 1235 414 1224 q 467 1252 446 1246 q 507 1258 487 1258 q 542 1254 525 1258 q 571 1240 558 1249 q 591 1217 584 1232 q 599 1184 599 1203 q 598 1168 599 1176 q 593 1150 596 1159 q 571 1078 583 1117 q 547 1000 560 1039 q 523 927 535 962 q 502 867 511 892 q 469 819 490 835 q 426 803 448 803 q 388 820 404 803 q 372 869 372 836 "},"¾":{"x_min":24,"x_max":1178.921875,"ha":1216,"o":"m 673 954 q 688 971 678 964 q 710 985 698 979 q 736 994 722 991 q 762 998 749 998 q 799 987 783 998 q 815 950 815 976 q 809 917 815 937 q 789 873 804 897 q 721 752 760 822 q 635 599 683 683 q 528 416 587 515 q 400 207 470 317 q 367 175 386 185 q 331 165 348 165 q 289 181 307 165 q 270 228 270 198 q 275 256 270 240 q 292 288 280 271 q 317 328 300 299 q 357 399 333 358 q 407 488 380 439 q 464 589 435 537 q 523 694 493 642 q 580 795 553 747 q 632 885 608 844 q 673 954 655 926 m 129 720 q 144 679 129 691 q 180 666 159 666 q 208 671 194 666 q 233 687 222 677 q 252 711 245 697 q 260 741 260 725 q 252 794 260 773 q 229 828 245 815 q 190 848 214 841 q 135 859 167 855 q 112 866 117 860 q 108 881 108 872 q 109 898 108 889 q 114 915 110 907 q 124 928 118 923 q 139 933 130 933 q 177 941 160 933 q 205 959 193 948 q 223 984 217 970 q 230 1011 230 998 q 219 1047 230 1032 q 185 1063 208 1063 q 151 1053 165 1063 q 137 1031 137 1044 q 141 1022 137 1027 q 149 1013 145 1017 q 158 1004 154 1008 q 162 998 162 1000 q 154 990 162 994 q 136 983 146 986 q 117 978 126 980 q 105 976 107 976 q 92 978 99 976 q 80 988 85 981 q 72 1007 75 995 q 69 1038 69 1019 q 82 1087 69 1066 q 119 1121 96 1107 q 173 1141 143 1134 q 234 1147 202 1147 q 296 1139 266 1147 q 350 1115 326 1131 q 388 1076 374 1099 q 403 1024 403 1053 q 399 994 403 1010 q 382 962 394 978 q 346 932 369 946 q 287 907 324 917 q 354 881 326 899 q 399 841 381 864 q 425 791 417 818 q 433 735 433 764 q 417 678 433 707 q 373 627 401 650 q 305 590 344 604 q 218 576 265 576 q 129 587 166 576 q 69 618 92 598 q 35 666 46 638 q 24 728 24 694 q 30 762 24 748 q 46 785 36 776 q 70 797 57 793 q 98 801 84 801 q 127 797 111 801 q 156 790 142 794 q 179 779 169 785 q 188 767 188 773 q 178 760 188 763 q 158 753 169 757 q 138 741 147 748 q 129 720 129 733 m 1063 -25 q 1004 -27 1033 -25 q 946 -30 974 -30 q 909 -26 925 -30 q 881 -14 893 -23 q 864 10 870 -5 q 859 52 859 26 q 865 116 859 80 q 882 194 872 153 q 805 185 840 194 q 739 166 770 177 q 679 147 707 155 q 624 140 651 140 q 607 148 612 140 q 601 169 601 157 q 612 211 601 187 q 640 261 622 235 q 665 323 654 292 q 686 384 677 354 q 704 445 695 415 q 720 510 713 476 q 735 584 727 545 q 754 673 743 624 q 771 691 759 683 q 802 703 784 698 q 840 711 819 708 q 881 713 860 713 q 912 711 897 713 q 938 707 927 710 q 955 700 949 704 q 962 691 962 696 q 932 557 932 557 q 912 494 932 557 q 869 380 892 430 q 821 276 846 329 q 864 274 847 275 q 896 274 882 273 l 905 274 q 931 354 918 315 q 956 432 945 393 q 971 465 960 451 q 997 487 983 478 q 1026 499 1011 495 q 1053 503 1041 503 q 1096 493 1085 503 q 1108 464 1108 482 q 1103 433 1108 452 q 1091 390 1099 414 q 1074 338 1084 366 q 1055 285 1065 309 q 1116 293 1089 289 q 1162 297 1143 297 q 1175 291 1171 297 q 1178 277 1178 286 q 1173 231 1178 248 q 1161 204 1168 213 q 1148 191 1155 194 q 1138 188 1141 188 q 1084 189 1112 188 q 1025 191 1056 190 q 1016 147 1020 169 q 1010 107 1012 126 l 1010 93 q 1020 64 1010 81 q 1042 32 1030 48 q 1063 3 1053 16 q 1073 -17 1073 -10 q 1071 -23 1073 -21 q 1063 -25 1069 -25 "},"@":{"x_min":76,"x_max":1442.84375,"ha":1516,"o":"m 1002 699 q 969 704 986 702 q 936 707 952 707 q 851 684 892 707 q 772 625 809 662 q 703 541 735 589 q 649 444 672 494 q 614 346 626 394 q 601 258 601 297 q 623 179 601 207 q 690 152 644 152 q 748 164 720 152 q 799 198 775 177 q 842 245 822 219 q 876 297 861 271 q 900 349 890 324 q 913 392 909 374 l 1002 699 m 76 144 q 92 302 76 221 q 138 462 108 383 q 213 616 169 541 q 313 758 257 692 q 435 881 369 825 q 576 977 501 937 q 734 1040 651 1018 q 905 1063 817 1063 q 1036 1051 971 1063 q 1161 1016 1102 1040 q 1272 954 1221 992 q 1361 864 1323 916 q 1421 743 1399 811 q 1442 589 1442 675 q 1442 553 1442 572 q 1438 516 1441 535 q 1414 416 1432 470 q 1366 309 1395 362 q 1297 207 1336 256 q 1211 120 1258 157 q 1108 59 1163 82 q 994 37 1054 37 q 964 42 979 37 q 937 60 949 47 q 917 96 924 73 q 910 157 910 120 q 912 192 910 173 q 918 232 914 210 q 860 141 892 180 q 791 75 828 102 q 715 35 754 48 q 637 22 676 22 q 554 36 594 22 q 485 80 515 51 q 437 153 455 110 q 420 254 420 197 q 438 379 420 313 q 490 510 456 445 q 572 634 524 575 q 680 738 620 693 q 810 810 740 783 q 958 837 880 837 q 983 834 973 837 q 997 829 992 832 q 1003 821 1002 825 q 1004 814 1004 817 q 1004 810 1004 812 q 1004 807 1004 809 l 1004 805 q 1037 797 1019 798 q 1070 794 1054 796 q 1101 790 1086 793 q 1127 776 1116 786 q 1144 745 1138 765 q 1151 690 1151 724 q 1144 630 1151 664 q 1128 560 1138 596 q 1107 486 1118 524 q 1087 413 1097 449 q 1068 346 1077 377 q 1053 291 1060 315 q 1044 233 1044 257 q 1049 205 1044 215 q 1066 194 1054 194 q 1116 209 1091 194 q 1165 251 1141 224 q 1208 313 1188 278 q 1243 390 1228 349 q 1267 476 1258 431 q 1276 564 1276 520 q 1247 736 1276 665 q 1167 850 1218 806 q 1050 913 1117 894 q 905 933 982 933 q 727 897 811 933 q 572 802 643 862 q 446 666 501 743 q 351 504 390 589 q 291 335 312 420 q 271 175 271 250 q 292 67 271 115 q 359 -15 312 19 q 481 -67 406 -49 q 666 -86 556 -86 q 953 -61 828 -86 q 1170 4 1078 -37 q 1198 11 1186 11 q 1218 6 1210 11 q 1232 -6 1226 1 q 1240 -25 1237 -15 q 1242 -47 1242 -36 q 1237 -78 1242 -63 q 1222 -98 1231 -93 q 1078 -162 1156 -134 q 917 -207 999 -189 q 753 -234 835 -226 q 601 -243 671 -243 q 372 -214 470 -243 q 207 -134 273 -185 q 109 -11 142 -82 q 76 144 76 60 "},"ö":{"x_min":43,"x_max":764,"ha":585,"o":"m 678 866 q 677 853 678 863 q 674 830 677 844 q 664 803 671 817 q 645 776 657 789 q 614 756 633 764 q 568 748 595 748 q 499 771 526 748 q 473 848 473 795 q 479 892 473 871 q 498 930 485 913 q 531 956 511 946 q 580 966 551 966 q 653 941 628 966 q 678 866 678 915 m 361 866 q 360 853 361 863 q 356 830 360 844 q 346 803 353 817 q 327 776 339 789 q 296 756 315 764 q 251 748 278 748 q 182 771 208 748 q 156 848 156 795 q 162 892 156 871 q 181 930 168 913 q 214 956 193 946 q 263 966 234 966 q 336 941 310 966 q 361 866 361 915 m 502 522 q 532 439 522 483 q 542 341 542 396 q 533 260 542 301 q 507 182 524 220 q 467 110 491 144 q 412 53 443 77 q 344 14 381 28 q 266 0 308 0 q 164 26 207 0 q 95 94 122 52 q 55 189 68 136 q 43 296 43 242 q 65 450 43 386 q 129 563 87 515 q 231 638 171 611 q 367 666 291 666 q 487 646 431 666 q 593 592 544 626 q 684 508 642 558 q 764 411 727 457 l 751 315 q 701 368 732 340 q 635 431 670 396 q 566 490 600 466 q 508 530 532 514 l 502 522 m 293 130 q 338 154 316 130 q 376 213 359 177 q 402 299 392 248 q 412 388 412 349 q 407 446 412 419 q 393 493 402 473 q 368 524 383 512 q 332 535 353 535 q 279 512 304 535 q 235 451 254 488 q 205 369 216 414 q 194 268 194 325 q 200 215 194 240 q 217 171 205 190 q 247 141 228 153 q 293 130 266 130 "},"i":{"x_min":65,"x_max":499.078125,"ha":365,"o":"m 499 144 q 438 97 474 122 q 360 50 402 71 q 274 14 318 28 q 191 0 230 0 q 131 10 155 0 q 92 37 107 20 q 71 80 77 55 q 65 136 65 106 q 74 236 65 179 q 94 351 90 338 q 133 487 104 382 q 168 602 161 575 q 187 632 171 619 q 218 653 201 645 q 255 664 236 660 q 289 668 274 668 q 327 658 317 668 q 337 630 337 647 q 330 587 337 615 q 314 525 323 560 q 288 436 305 491 q 264 342 270 381 q 248 265 258 304 q 238 196 238 227 q 245 148 238 166 q 273 130 252 130 q 327 147 297 130 q 387 188 357 164 q 447 238 418 212 q 499 282 476 264 l 499 144 m 196 856 q 202 891 196 871 q 224 928 209 911 q 265 958 240 946 q 328 970 290 970 q 373 964 352 970 q 410 948 394 959 q 435 918 425 936 q 444 874 444 899 q 436 829 444 851 q 413 790 429 807 q 371 762 396 773 q 312 752 347 752 q 224 780 252 752 q 196 856 196 808 "},"Õ":{"x_min":65,"x_max":1106.625,"ha":1096,"o":"m 828 1424 q 845 1445 837 1433 q 861 1466 852 1454 q 878 1492 869 1478 q 912 1524 892 1514 q 951 1535 932 1535 q 991 1522 974 1535 q 1007 1485 1007 1509 q 998 1449 1007 1468 q 977 1410 990 1434 q 945 1363 964 1386 q 900 1324 925 1340 q 841 1308 874 1308 q 802 1313 820 1308 q 763 1334 785 1319 q 708 1375 740 1349 q 625 1440 676 1400 q 609 1419 617 1430 q 592 1398 601 1410 q 575 1373 584 1386 q 542 1340 562 1351 q 502 1330 522 1330 q 463 1343 479 1330 q 446 1379 446 1356 q 455 1415 446 1396 q 476 1455 464 1431 q 509 1502 489 1479 q 554 1541 528 1525 q 613 1557 580 1557 q 651 1551 634 1557 q 691 1531 668 1546 q 745 1490 713 1516 q 828 1424 778 1464 m 503 -130 q 320 -88 402 -130 q 182 25 239 -47 q 95 201 126 99 q 65 424 65 302 q 74 559 65 490 q 103 696 83 628 q 151 831 122 765 q 218 955 180 897 q 304 1064 256 1014 q 409 1149 351 1113 q 532 1205 466 1185 q 674 1225 598 1225 q 856 1188 776 1225 q 992 1085 937 1151 q 1077 927 1047 1019 q 1106 725 1106 836 q 1088 536 1106 634 q 1036 343 1070 438 q 949 162 1001 248 q 831 11 898 76 q 681 -91 764 -53 q 503 -130 599 -130 m 519 27 q 620 48 573 27 q 706 106 667 69 q 777 193 745 143 q 834 299 809 242 q 878 417 859 356 q 909 537 897 478 q 927 652 921 596 q 933 752 933 707 q 918 875 933 817 q 875 976 904 933 q 803 1043 846 1018 q 701 1068 759 1068 q 580 1037 638 1068 q 470 955 522 1007 q 376 835 419 904 q 303 692 333 767 q 255 539 272 617 q 238 390 238 461 q 257 246 238 313 q 313 131 277 179 q 401 55 349 82 q 519 27 453 27 "},"þ":{"x_min":-44.765625,"x_max":812.171875,"ha":694,"o":"m 274 544 q 370 619 327 591 q 456 647 413 647 q 525 630 495 647 q 577 584 556 613 q 609 518 598 555 q 620 439 620 480 q 618 374 620 405 q 608 314 615 343 q 588 255 601 284 q 555 195 576 226 q 605 223 580 209 q 655 253 630 236 q 707 289 681 269 q 759 336 732 309 l 812 224 q 737 165 774 190 q 661 122 700 140 q 580 89 622 103 q 490 65 538 76 q 459 42 479 54 q 420 21 439 31 q 372 0 398 10 l 355 0 q 268 9 312 0 q 185 33 224 19 l 106 -418 q 94 -445 102 -435 q 78 -461 87 -456 q 60 -468 69 -466 q 40 -470 50 -470 q 28 -469 34 -470 q 17 -469 22 -469 q -8 -462 3 -469 q -27 -443 -19 -455 q -40 -415 -35 -431 q -44 -381 -44 -399 q -44 -364 -44 -373 q -42 -344 -43 -354 q -18 -206 -28 -265 q 0 -100 -8 -147 q 14 -13 7 -53 q 28 66 21 26 q 42 149 34 106 q 59 249 49 192 q 81 378 69 305 q 110 547 93 450 q 113 566 110 547 q 122 616 116 584 q 135 692 127 648 q 153 785 142 735 q 176 889 164 835 q 199 998 187 944 q 222 1045 206 1032 q 256 1058 239 1058 q 282 1053 267 1058 q 312 1041 297 1049 q 344 1023 328 1033 q 371 1001 359 1013 q 391 977 384 990 q 399 954 399 965 q 390 949 399 952 q 370 943 381 946 q 349 937 359 940 q 338 933 339 935 l 274 544 m 382 496 q 336 486 359 496 q 293 455 313 476 q 258 402 273 434 q 236 324 243 370 q 224 257 229 287 q 214 202 218 226 q 210 152 212 176 q 254 141 232 146 q 295 134 274 137 q 336 130 317 130 q 378 144 359 130 q 412 180 397 157 q 437 232 427 203 q 455 292 448 261 q 465 354 462 324 q 469 411 469 385 q 465 443 469 428 q 452 470 461 458 q 425 488 442 481 q 382 496 408 496 "},"]":{"x_min":43,"x_max":618.484375,"ha":629,"o":"m 470 38 q 461 4 466 23 q 447 -33 456 -14 q 426 -69 439 -51 q 394 -101 413 -87 q 346 -123 374 -115 q 281 -132 319 -132 l 115 -132 q 84 -124 97 -132 q 61 -104 70 -116 q 47 -80 52 -93 q 43 -56 43 -66 q 50 -28 43 -41 q 69 -3 57 -14 q 95 13 81 7 q 123 19 110 19 l 282 19 q 286 48 282 21 q 296 123 290 76 q 312 231 303 169 q 331 361 321 292 q 352 504 341 430 q 372 638 363 577 q 393 782 381 700 q 411 910 405 865 q 422 982 418 956 q 426 1008 426 1008 l 250 1008 q 224 1013 237 1008 q 202 1029 212 1019 q 185 1058 191 1038 q 179 1092 179 1078 q 184 1117 179 1102 q 201 1144 190 1131 q 228 1166 212 1157 q 263 1176 244 1176 l 498 1176 q 558 1168 535 1176 q 595 1147 581 1160 q 613 1116 608 1133 q 618 1081 618 1099 q 614 1041 618 1061 q 606 1004 610 1021 q 580 848 593 942 q 557 677 567 754 q 536 523 547 600 q 516 374 525 445 q 470 38 492 208 "},"m":{"x_min":64.84375,"x_max":1030.640625,"ha":877,"o":"m 368 123 q 370 148 368 132 q 374 186 371 165 q 380 230 376 207 q 387 277 383 254 q 405 394 394 331 l 395 394 q 376 363 387 384 q 346 303 365 343 q 298 201 328 264 q 222 46 268 138 q 190 10 208 19 q 150 0 172 0 q 106 12 123 0 q 80 42 89 23 q 67 87 70 62 q 64 138 64 111 q 68 204 64 166 q 77 284 71 242 q 92 381 82 327 q 111 475 103 435 q 127 549 119 516 q 142 604 135 583 q 155 639 148 626 q 168 659 161 652 q 187 669 176 666 q 215 671 198 671 q 255 669 241 671 q 277 661 270 668 q 285 642 284 655 q 287 609 287 630 q 286 582 287 597 q 283 550 285 567 q 279 515 281 533 q 273 480 274 481 q 254 376 264 433 l 261 367 q 279 404 262 369 q 315 471 296 438 q 357 541 334 505 q 399 606 379 578 q 441 653 419 634 q 494 671 463 671 q 542 654 522 671 q 563 607 563 637 q 559 556 563 580 q 551 510 555 525 q 540 466 547 492 q 524 401 536 443 q 519 381 521 394 q 519 376 519 377 l 526 367 q 545 403 528 369 q 584 471 563 437 q 628 541 604 504 q 671 606 651 578 q 711 652 691 633 q 759 671 730 671 q 813 654 791 671 q 835 607 835 637 q 830 517 835 560 q 816 423 825 475 q 802 330 806 372 q 797 241 797 288 q 806 181 797 204 q 829 157 816 157 q 859 164 844 157 q 891 179 875 170 q 923 201 907 189 q 953 228 939 214 q 1019 299 986 259 l 1030 138 q 971 91 1000 115 q 908 46 941 66 q 836 13 876 26 q 747 0 797 0 q 706 16 723 0 q 679 59 690 31 q 665 125 669 87 q 661 207 661 163 q 664 299 661 250 q 672 396 667 347 l 662 396 l 524 48 q 485 10 507 20 q 435 0 463 0 q 400 12 413 0 q 380 41 387 23 q 371 81 373 59 q 368 123 368 103 "},"8":{"x_min":16,"x_max":574.921875,"ha":547,"o":"m 100 562 q 124 668 100 631 q 188 729 149 705 q 277 766 228 754 q 375 778 326 778 q 451 770 414 778 q 514 746 487 762 q 558 705 542 729 q 574 648 574 681 q 557 538 574 590 q 512 453 540 485 q 447 397 484 421 q 370 354 410 374 q 428 308 400 332 q 478 258 456 285 q 513 200 500 231 q 526 134 526 170 q 507 44 526 84 q 454 -25 488 4 q 373 -70 419 -54 q 271 -86 326 -86 q 184 -78 229 -86 q 101 -47 139 -69 q 40 15 64 -24 q 16 117 16 55 q 33 207 16 168 q 78 278 50 247 q 141 333 105 309 q 214 378 177 357 q 127 462 155 413 q 100 562 100 511 m 348 695 q 311 688 328 695 q 280 670 293 682 q 259 641 267 658 q 251 583 251 624 q 255 546 251 566 q 266 507 259 527 q 284 470 274 488 q 308 436 294 451 q 351 472 330 450 q 387 518 371 494 q 413 576 403 542 q 423 629 423 610 q 416 658 423 646 q 399 679 410 671 q 375 691 389 687 q 348 695 362 695 m 353 168 q 336 227 353 202 q 296 276 320 253 q 245 250 269 264 q 204 218 221 236 q 177 179 187 201 q 167 130 167 158 q 174 93 167 109 q 192 66 181 77 q 216 49 203 55 q 242 43 230 43 q 282 51 262 43 q 318 74 302 59 q 343 113 334 90 q 353 168 353 136 "},"ž":{"x_min":18.3125,"x_max":613.796875,"ha":438,"o":"m 319 877 q 358 981 339 932 q 375 1024 366 1002 q 391 1067 383 1046 q 406 1105 399 1087 q 418 1134 413 1122 q 444 1184 431 1166 q 471 1210 457 1202 q 499 1220 485 1218 q 528 1221 513 1221 q 542 1217 534 1221 q 557 1204 551 1212 q 569 1185 564 1196 q 574 1160 574 1174 q 569 1134 574 1147 l 458 911 q 425 848 439 875 q 395 802 410 820 q 359 775 379 784 q 308 766 338 766 q 258 777 278 766 q 223 810 237 788 q 198 863 209 831 q 178 935 188 894 q 165 972 170 957 q 157 997 161 987 q 151 1018 154 1008 q 144 1041 148 1027 q 133 1074 140 1054 q 118 1124 127 1093 q 115 1135 116 1129 q 115 1147 115 1141 q 120 1177 115 1163 q 134 1201 125 1191 q 158 1218 144 1212 q 192 1224 173 1224 q 217 1220 205 1224 q 239 1206 228 1216 q 257 1178 249 1196 q 269 1134 264 1161 q 290 1016 281 1065 q 306 936 299 967 q 319 877 313 899 m 18 121 q 23 146 18 136 q 37 165 29 156 q 58 183 46 174 q 82 206 69 193 l 299 507 q 278 517 287 512 q 262 526 269 522 q 248 531 255 529 q 231 534 240 534 q 196 533 210 534 q 171 528 181 532 q 154 516 162 524 q 137 493 146 508 q 101 446 115 461 q 75 431 87 431 q 60 440 65 431 q 56 467 56 450 q 56 481 56 474 q 59 497 57 489 q 88 594 69 557 q 130 651 107 631 q 179 678 153 671 q 226 685 204 685 q 259 677 242 685 q 291 660 275 670 q 323 642 307 650 q 358 634 340 634 q 382 633 371 633 q 403 633 394 633 q 446 634 430 633 q 471 636 463 635 q 483 639 480 638 q 489 640 486 640 q 523 623 512 640 q 533 577 533 606 q 529 537 533 554 q 516 523 528 532 q 475 507 503 514 q 448 464 467 492 q 404 403 429 437 q 349 327 379 370 q 295 253 319 284 q 253 199 271 222 q 229 168 235 176 l 225 154 q 238 149 226 154 q 265 139 249 144 q 298 128 280 133 q 328 123 315 123 q 380 132 356 123 q 423 153 403 140 q 460 181 443 166 q 494 209 478 196 q 525 231 510 222 q 558 239 541 239 q 581 233 571 239 q 599 217 592 227 q 610 196 606 208 q 613 172 613 184 q 598 132 613 153 q 558 91 583 111 q 500 54 533 72 q 431 22 467 36 q 357 1 394 9 q 286 -6 319 -6 q 271 -3 283 -6 q 241 4 260 -1 q 197 20 222 11 q 142 45 172 30 q 97 37 116 37 q 62 44 77 37 q 37 63 47 51 q 23 89 27 74 q 18 121 18 104 "},"R":{"x_min":43,"x_max":1381.40625,"ha":1169,"o":"m 1237 856 q 1226 788 1237 824 q 1193 717 1215 752 q 1136 649 1171 681 q 1052 590 1101 616 q 941 547 1004 564 q 801 525 879 530 q 880 480 848 508 q 932 418 911 452 q 967 349 954 384 q 988 274 980 315 q 1005 201 997 233 q 1023 143 1013 168 q 1047 102 1032 117 q 1086 86 1061 86 q 1136 94 1109 86 q 1193 116 1164 102 q 1250 150 1222 131 q 1302 194 1278 170 l 1381 61 q 1368 52 1381 61 q 1332 29 1355 43 q 1277 0 1309 15 q 1208 -31 1246 -17 q 1128 -55 1170 -46 q 1041 -65 1085 -65 q 957 -40 992 -65 q 897 23 922 -16 q 856 115 873 63 q 830 210 840 166 q 807 318 821 255 q 781 418 793 380 q 749 480 769 455 q 701 505 730 505 l 654 505 q 614 239 633 357 q 563 39 595 121 q 484 -86 532 -42 q 368 -130 437 -130 q 269 -109 314 -130 q 187 -52 224 -88 q 124 31 151 -16 q 79 134 97 79 q 52 249 61 190 q 43 366 43 308 q 69 572 43 471 q 144 762 95 673 q 263 927 193 852 q 421 1056 333 1002 q 611 1141 508 1111 q 829 1172 714 1172 q 930 1163 880 1172 q 1025 1135 980 1153 q 1109 1089 1071 1116 q 1177 1027 1148 1062 q 1221 949 1205 992 q 1237 856 1237 907 m 817 1020 q 616 989 704 1020 q 462 905 528 958 q 348 782 395 852 q 272 635 301 712 q 229 480 243 559 q 216 330 216 401 q 226 220 216 275 q 256 120 235 165 q 308 49 276 76 q 386 21 340 21 q 427 39 409 21 q 458 87 444 57 q 482 157 472 118 q 496 240 492 197 q 505 326 501 283 q 513 407 509 370 q 518 474 517 445 q 520 519 520 504 q 440 564 467 543 q 413 612 413 584 q 414 629 413 619 q 418 649 415 640 q 428 664 421 658 q 445 671 434 671 q 464 671 450 671 q 494 672 478 672 q 522 674 509 673 q 540 674 535 674 l 540 673 q 543 705 541 688 q 548 742 544 722 q 560 784 552 763 q 581 822 568 805 q 612 850 594 839 q 656 861 630 861 q 702 845 691 861 q 713 807 713 830 l 713 801 q 698 732 712 775 q 672 635 684 690 q 864 657 788 637 q 984 710 939 678 q 1046 779 1028 741 q 1064 851 1064 816 q 1048 915 1064 884 q 1001 969 1032 945 q 923 1006 969 992 q 817 1020 877 1020 "},"á":{"x_min":43,"x_max":799.578125,"ha":658,"o":"m 411 833 q 423 859 415 841 q 440 900 430 877 q 461 949 450 923 q 484 1001 472 976 q 542 1133 510 1062 q 568 1166 550 1156 q 606 1176 586 1176 q 641 1170 624 1176 q 673 1151 659 1163 q 695 1121 687 1138 q 704 1084 704 1104 q 679 1018 704 1052 q 650 979 666 1001 q 615 935 633 958 q 578 888 597 911 q 543 844 560 865 q 512 807 526 824 q 490 780 498 790 q 467 760 478 766 q 444 755 455 755 q 416 767 428 755 q 405 800 405 780 q 406 816 405 807 q 411 833 408 824 m 799 168 q 757 117 783 146 q 699 60 731 87 q 629 15 666 34 q 554 -3 592 -3 q 479 25 509 -3 q 427 108 449 54 q 386 70 410 89 q 334 34 362 50 q 274 9 305 19 q 213 -1 244 -1 q 149 12 180 -1 q 95 50 118 25 q 57 111 71 75 q 43 192 43 147 q 57 296 43 243 q 101 412 71 349 q 166 519 131 474 q 241 598 200 564 q 328 652 282 632 q 420 672 373 672 q 445 665 436 672 q 459 651 454 659 q 471 636 465 643 q 484 625 476 628 q 501 620 492 621 q 518 619 510 619 q 534 620 526 619 q 549 620 542 620 q 568 618 559 620 q 584 609 577 616 q 595 590 591 602 q 598 556 598 578 q 591 484 598 524 q 576 404 585 445 q 556 309 567 362 q 545 220 545 256 q 551 171 545 189 q 576 154 557 154 q 606 161 590 154 q 637 179 621 168 q 669 205 653 191 q 699 235 685 220 q 767 317 733 271 l 799 168 m 216 221 q 219 187 216 204 q 227 158 221 171 q 243 137 233 145 q 269 129 254 129 q 315 151 294 129 q 350 203 335 172 q 374 266 365 234 q 386 321 384 299 l 437 541 q 383 528 409 541 q 333 490 356 514 q 290 437 309 467 q 251 362 270 406 q 224 284 232 318 q 216 221 216 251 "},"×":{"x_min":239,"x_max":694.765625,"ha":868,"o":"m 468 261 l 362 147 q 328 122 344 130 q 295 115 311 115 q 255 131 271 115 q 239 172 239 147 q 247 205 239 187 q 272 241 255 223 l 378 347 l 268 456 q 249 484 255 470 q 243 514 243 499 q 248 540 243 528 q 260 561 252 552 q 278 576 268 571 q 301 581 289 581 q 351 557 326 581 l 468 432 l 582 558 q 607 577 595 571 q 632 583 620 583 q 655 577 645 583 q 673 562 666 572 q 685 541 681 553 q 690 516 690 529 q 684 485 690 500 q 664 457 678 471 l 561 347 l 660 240 q 686 204 678 222 q 694 170 694 186 q 678 130 694 146 q 637 113 662 113 q 605 121 622 113 q 570 146 588 128 l 468 261 "},"o":{"x_min":43,"x_max":764,"ha":585,"o":"m 502 522 q 532 439 522 483 q 542 341 542 396 q 533 260 542 301 q 507 182 524 220 q 467 110 491 144 q 412 53 443 77 q 344 14 381 28 q 266 0 308 0 q 164 26 207 0 q 95 94 122 52 q 55 189 68 136 q 43 296 43 242 q 65 450 43 386 q 129 563 87 515 q 231 638 171 611 q 367 666 291 666 q 487 646 431 666 q 593 592 544 626 q 684 508 642 558 q 764 411 727 457 l 751 315 q 701 368 732 340 q 635 431 670 396 q 566 490 600 466 q 508 530 532 514 l 502 522 m 293 130 q 338 154 316 130 q 376 213 359 177 q 402 299 392 248 q 412 388 412 349 q 407 446 412 419 q 393 493 402 473 q 368 524 383 512 q 332 535 353 535 q 279 512 304 535 q 235 451 254 488 q 205 369 216 414 q 194 268 194 325 q 200 215 194 240 q 217 171 205 190 q 247 141 228 153 q 293 130 266 130 "},"5":{"x_min":31,"x_max":548.328125,"ha":564,"o":"m 324 574 q 276 581 295 577 q 243 588 257 584 q 217 593 228 591 q 194 595 206 595 q 185 594 190 595 q 175 593 180 594 q 180 561 180 564 q 187 528 185 542 q 194 445 189 502 q 270 449 235 449 q 383 437 337 449 q 461 404 430 424 q 509 357 492 383 q 535 303 526 331 q 546 249 544 276 q 548 201 548 222 q 527 125 548 162 q 469 56 506 87 q 381 8 432 26 q 268 -10 329 -10 q 160 3 205 -10 q 86 41 115 16 q 44 101 57 66 q 31 178 31 136 q 38 221 31 204 q 59 249 46 238 q 89 264 72 259 q 124 268 106 268 q 159 265 139 268 q 196 255 179 261 q 224 241 212 249 q 235 227 235 234 q 224 218 235 222 q 198 209 213 215 q 173 194 184 203 q 161 169 161 185 q 166 129 161 146 q 179 103 171 113 q 199 88 188 93 q 223 83 210 83 q 268 93 245 83 q 310 119 291 102 q 341 158 329 135 q 353 209 353 181 q 343 264 353 242 q 314 301 333 287 q 265 323 295 315 q 196 334 236 330 q 142 339 176 337 q 99 345 108 341 q 84 358 90 349 q 76 384 79 366 q 71 453 73 401 q 69 547 70 505 q 67 585 68 567 q 66 618 66 602 q 73 698 66 672 q 91 736 81 725 q 111 746 100 746 q 168 746 140 746 q 158 741 128 746 q 218 732 188 737 q 280 721 248 726 q 333 716 311 716 q 347 719 340 716 q 361 724 354 723 q 405 736 392 731 q 423 744 418 741 q 429 749 428 747 q 438 751 430 751 q 475 726 464 751 q 487 660 487 701 q 487 657 487 661 q 483 647 487 653 q 470 631 479 640 q 442 613 460 623 q 396 593 424 603 q 324 574 367 583 "},"õ":{"x_min":43,"x_max":764,"ha":585,"o":"m 521 865 q 538 886 530 874 q 554 907 545 895 q 571 933 562 919 q 605 965 585 955 q 644 976 625 976 q 684 963 667 976 q 700 926 700 950 q 691 890 700 909 q 670 851 683 875 q 638 804 657 827 q 593 765 618 781 q 534 749 567 749 q 495 754 513 749 q 456 775 478 760 q 401 816 433 790 q 318 881 369 841 q 302 860 310 871 q 285 839 294 851 q 268 814 277 827 q 235 781 255 792 q 195 771 215 771 q 156 784 172 771 q 139 820 139 797 q 148 856 139 837 q 169 896 157 872 q 202 943 182 920 q 247 982 221 966 q 306 998 273 998 q 344 992 327 998 q 384 972 361 987 q 438 931 406 957 q 521 865 471 905 m 502 522 q 532 439 522 483 q 542 341 542 396 q 533 260 542 301 q 507 182 524 220 q 467 110 491 144 q 412 53 443 77 q 344 14 381 28 q 266 0 308 0 q 164 26 207 0 q 95 94 122 52 q 55 189 68 136 q 43 296 43 242 q 65 450 43 386 q 129 563 87 515 q 231 638 171 611 q 367 666 291 666 q 487 646 431 666 q 593 592 544 626 q 684 508 642 558 q 764 411 727 457 l 751 315 q 701 368 732 340 q 635 431 670 396 q 566 490 600 466 q 508 530 532 514 l 502 522 m 293 130 q 338 154 316 130 q 376 213 359 177 q 402 299 392 248 q 412 388 412 349 q 407 446 412 419 q 393 493 402 473 q 368 524 383 512 q 332 535 353 535 q 279 512 304 535 q 235 451 254 488 q 205 369 216 414 q 194 268 194 325 q 200 215 194 240 q 217 171 205 190 q 247 141 228 153 q 293 130 266 130 "},"7":{"x_min":49.515625,"x_max":600.25,"ha":412,"o":"m 183 -37 q 164 -35 177 -37 q 136 -25 150 -32 q 110 -3 121 -17 q 99 33 99 10 q 99 38 99 36 q 99 44 99 40 q 135 169 110 106 q 195 296 160 232 q 274 426 229 360 q 368 561 318 493 q 316 578 336 571 q 280 589 295 584 q 253 598 265 594 q 225 602 241 602 q 189 601 203 602 q 165 596 174 600 q 147 584 155 592 q 130 561 139 576 q 94 514 109 529 q 69 499 80 499 q 53 508 58 499 q 49 535 49 518 q 50 550 49 542 q 52 566 50 557 q 81 662 62 625 q 123 719 100 699 q 172 746 147 739 q 219 754 198 754 q 252 745 224 754 q 308 727 279 736 q 366 708 337 717 q 424 698 396 699 q 449 697 438 697 q 470 697 460 697 q 513 698 497 697 q 537 702 529 700 q 549 706 546 704 q 555 708 553 708 q 589 691 579 708 q 600 645 600 674 q 596 606 600 627 q 585 593 595 601 q 561 575 575 584 q 535 556 548 565 q 514 542 521 547 q 438 422 469 481 q 385 299 408 362 q 341 166 362 235 q 297 17 321 97 q 278 -12 292 -1 q 248 -28 265 -23 q 214 -35 231 -34 q 183 -37 196 -37 "},"K":{"x_min":83.875,"x_max":1549.65625,"ha":1316,"o":"m 836 1014 q 827 895 831 955 q 818 784 822 834 q 810 673 813 726 q 937 677 879 673 q 1043 694 996 681 q 1127 732 1090 707 q 1187 798 1163 757 q 1224 899 1212 839 q 1237 1042 1237 958 q 1237 1095 1237 1075 q 1244 1126 1237 1115 q 1269 1141 1251 1137 q 1323 1150 1287 1146 q 1366 1142 1350 1150 q 1392 1125 1383 1135 q 1404 1105 1401 1115 q 1408 1087 1407 1094 q 1409 1047 1409 1072 q 1410 1000 1409 1021 q 1400 860 1410 923 q 1368 745 1390 796 q 1307 656 1345 694 q 1214 593 1270 618 q 1084 555 1158 567 q 911 542 1009 542 q 992 348 991 350 q 1085 159 1032 272 q 1151 76 1106 112 q 1227 47 1185 47 q 1284 55 1253 47 q 1347 75 1315 62 q 1411 106 1380 88 q 1470 146 1443 125 l 1549 14 q 1536 6 1549 14 q 1500 -15 1523 -2 q 1446 -43 1477 -28 q 1376 -72 1414 -59 q 1296 -95 1338 -86 q 1209 -104 1253 -104 q 1123 -88 1161 -104 q 1056 -47 1085 -73 q 990 42 1026 -20 q 933 145 953 104 q 892 233 914 186 q 852 323 871 280 q 810 405 832 365 q 759 477 787 445 q 675 240 723 339 q 567 79 627 142 q 439 -13 508 15 q 294 -43 370 -43 q 231 -39 267 -43 q 162 -28 195 -36 q 106 -7 130 -20 q 83 24 83 5 q 92 58 83 42 q 110 88 101 73 q 119 101 113 93 q 133 115 125 108 q 151 127 141 122 q 170 132 160 132 q 176 132 174 132 q 223 115 199 121 q 270 108 248 108 q 380 146 331 108 q 469 247 430 183 q 539 399 509 312 q 591 586 569 486 q 628 794 614 686 q 657 1007 643 901 l 665 1063 q 557 1049 605 1063 q 471 1011 509 1035 q 405 954 433 986 q 360 886 378 922 q 333 814 342 851 q 325 744 325 777 q 322 732 325 740 q 312 716 320 724 q 287 701 303 707 q 241 694 270 694 q 181 701 203 694 q 147 717 159 708 q 133 736 136 726 q 130 753 130 746 l 130 759 q 130 761 130 761 q 178 919 141 853 q 269 1031 215 985 q 387 1104 322 1076 q 517 1147 452 1132 q 643 1167 582 1162 q 749 1172 703 1172 q 792 1166 775 1172 q 818 1150 808 1160 q 831 1129 827 1140 q 834 1106 834 1117 q 839 1056 841 1078 q 836 1014 838 1034 "},",":{"x_min":195,"x_max":455.4375,"ha":413,"o":"m 199 -48 q 204 -25 201 -39 q 212 4 207 -11 q 221 38 216 20 q 231 74 226 56 q 256 161 243 115 q 269 186 260 175 q 290 204 278 197 q 318 214 303 211 q 348 218 333 218 q 386 213 367 218 q 421 197 405 208 q 445 173 436 187 q 455 139 455 158 q 450 113 455 126 q 437 85 445 100 q 409 41 424 64 q 379 -5 394 18 q 349 -49 363 -28 q 323 -86 334 -71 q 287 -119 307 -109 q 249 -129 268 -129 q 211 -114 227 -129 q 195 -73 195 -99 q 199 -48 195 -62 "},"d":{"x_min":37,"x_max":855.03125,"ha":730,"o":"m 384 541 q 305 484 340 520 q 247 389 270 448 q 211 288 224 330 q 199 211 199 245 q 202 190 199 201 q 213 171 205 179 q 236 157 222 163 q 275 152 251 152 q 299 157 287 152 q 322 171 311 163 q 342 191 332 180 q 360 214 352 202 q 395 277 379 242 q 391 307 393 286 q 389 371 390 328 q 388 441 389 414 q 387 491 387 468 q 386 528 387 513 q 384 541 385 542 m 855 141 q 760 70 806 101 q 718 45 740 57 q 675 23 697 32 q 635 7 654 13 q 598 1 615 1 q 570 5 589 1 q 528 23 550 9 q 483 61 505 36 q 444 128 460 86 q 390 79 418 102 q 332 38 362 55 q 271 10 302 21 q 209 0 240 0 q 132 18 165 0 q 79 67 100 37 q 47 136 58 98 q 37 216 37 175 q 48 305 37 260 q 80 392 59 350 q 128 481 101 435 q 197 565 154 527 q 285 622 240 603 q 382 646 330 641 q 400 801 384 734 q 436 946 417 868 q 486 1088 456 1023 q 552 1201 516 1153 q 629 1275 588 1248 q 714 1302 670 1302 q 768 1285 746 1302 q 804 1241 791 1269 q 824 1177 818 1214 q 831 1102 831 1141 q 830 1052 831 1078 q 801 871 829 955 q 745 705 773 788 q 679 543 717 623 q 603 376 619 420 q 596 353 599 367 q 589 323 592 339 q 584 290 586 307 q 582 258 582 274 q 584 220 582 238 q 592 188 586 202 q 606 166 597 174 q 628 158 615 158 q 656 163 641 158 q 688 177 671 168 q 723 197 705 186 q 756 220 740 208 q 834 282 794 247 l 855 141 m 704 1004 q 709 1079 709 1052 q 702 1130 709 1116 q 683 1145 695 1145 q 643 1117 661 1145 q 614 1046 625 1089 q 591 952 603 1003 q 572 852 578 901 q 562 764 566 803 q 557 709 559 725 q 553 644 554 675 q 550 587 551 612 q 549 542 549 561 q 549 512 549 522 l 549 505 q 619 685 587 595 q 645 765 632 723 q 670 847 658 806 q 692 928 683 888 q 704 1004 701 968 "},"¨":{"x_min":87,"x_max":609.5,"ha":695,"o":"m 609 885 q 608 872 609 882 q 605 849 608 863 q 595 822 602 836 q 576 795 588 808 q 545 775 564 783 q 499 767 526 767 q 430 790 457 767 q 404 867 404 814 q 410 911 404 890 q 429 949 416 932 q 462 975 442 965 q 511 985 482 985 q 584 960 559 985 q 609 885 609 934 m 292 885 q 291 872 292 882 q 287 849 291 863 q 277 822 284 836 q 258 795 270 808 q 227 775 246 783 q 182 767 209 767 q 113 790 139 767 q 87 867 87 814 q 93 911 87 890 q 112 949 99 932 q 145 975 124 965 q 194 985 165 985 q 267 960 241 985 q 292 885 292 934 "},"Ô":{"x_min":65,"x_max":1106.625,"ha":1096,"o":"m 760 1655 q 714 1551 736 1600 q 695 1508 705 1530 q 676 1465 685 1485 q 659 1427 667 1445 q 646 1397 651 1410 q 617 1348 631 1365 q 588 1322 603 1330 q 559 1312 574 1314 q 531 1311 545 1311 q 516 1315 523 1311 q 501 1327 508 1319 q 491 1347 495 1336 q 488 1372 487 1358 q 495 1398 489 1385 l 619 1621 q 656 1684 639 1656 q 689 1729 672 1711 q 726 1757 705 1747 q 778 1766 747 1766 q 827 1755 808 1766 q 860 1722 847 1744 q 882 1669 873 1700 q 898 1597 890 1637 q 908 1559 904 1574 q 914 1534 911 1545 q 920 1514 917 1523 q 926 1491 922 1504 q 934 1458 929 1477 q 947 1408 939 1439 q 948 1384 949 1396 q 926 1330 947 1353 q 866 1308 905 1308 q 841 1312 853 1308 q 820 1326 829 1316 q 804 1354 810 1336 q 795 1397 797 1371 q 781 1516 787 1467 q 770 1596 774 1565 q 760 1655 764 1633 m 503 -130 q 320 -88 402 -130 q 182 25 239 -47 q 95 201 126 99 q 65 424 65 302 q 74 559 65 490 q 103 696 83 628 q 151 831 122 765 q 218 955 180 897 q 304 1064 256 1014 q 409 1149 351 1113 q 532 1205 466 1185 q 674 1225 598 1225 q 856 1188 776 1225 q 992 1085 937 1151 q 1077 927 1047 1019 q 1106 725 1106 836 q 1088 536 1106 634 q 1036 343 1070 438 q 949 162 1001 248 q 831 11 898 76 q 681 -91 764 -53 q 503 -130 599 -130 m 519 27 q 620 48 573 27 q 706 106 667 69 q 777 193 745 143 q 834 299 809 242 q 878 417 859 356 q 909 537 897 478 q 927 652 921 596 q 933 752 933 707 q 918 875 933 817 q 875 976 904 933 q 803 1043 846 1018 q 701 1068 759 1068 q 580 1037 638 1068 q 470 955 522 1007 q 376 835 419 904 q 303 692 333 767 q 255 539 272 617 q 238 390 238 461 q 257 246 238 313 q 313 131 277 179 q 401 55 349 82 q 519 27 453 27 "},"E":{"x_min":43,"x_max":1040.78125,"ha":877,"o":"m 1002 167 q 877 66 947 109 q 732 -6 808 23 q 579 -50 657 -35 q 428 -65 501 -65 q 278 -46 348 -65 q 156 9 209 -28 q 73 105 104 47 q 43 242 43 163 q 67 376 43 312 q 143 489 92 440 q 275 569 195 538 q 468 602 356 599 q 339 623 394 602 q 248 681 284 644 q 194 766 212 717 q 176 868 176 814 q 193 961 176 919 q 241 1037 211 1003 q 314 1095 272 1070 q 405 1137 356 1120 q 507 1162 454 1154 q 616 1171 561 1171 q 772 1153 696 1171 q 908 1101 849 1136 q 1004 1015 968 1067 q 1040 894 1040 963 q 1024 846 1040 870 q 984 804 1007 822 q 935 774 960 785 q 892 763 909 763 q 878 788 878 763 q 885 845 878 810 q 909 934 892 881 q 855 964 891 949 q 775 991 819 979 q 679 1011 730 1003 q 579 1019 629 1019 q 492 1010 534 1019 q 419 984 450 1002 q 368 934 387 965 q 349 859 349 904 q 362 797 349 822 q 398 754 376 772 q 448 725 420 737 q 507 705 476 714 q 567 688 537 697 q 621 669 596 680 q 663 643 646 659 q 685 605 680 628 q 688 575 686 590 q 689 546 689 560 q 675 486 689 504 q 620 467 661 467 q 577 469 603 467 q 528 471 551 471 q 422 458 474 471 q 329 417 370 444 q 263 351 288 391 q 238 260 238 312 q 252 177 238 210 q 291 124 266 144 q 350 95 316 104 q 424 86 384 86 q 525 96 472 86 q 632 121 579 105 q 735 159 685 137 q 828 207 785 182 q 904 261 871 233 q 955 317 937 289 l 1002 167 "},"Y":{"x_min":132.9375,"x_max":1115.671875,"ha":1023,"o":"m 763 342 q 628 166 761 335 q 546 69 583 110 q 479 2 510 29 q 419 -39 448 -24 q 364 -60 391 -54 q 307 -67 337 -67 q 252 -54 280 -67 q 201 -26 224 -42 q 162 4 178 -10 q 143 28 146 20 q 136 44 139 34 q 132 64 132 54 q 137 82 132 74 q 153 90 142 90 q 164 88 158 90 q 205 69 185 75 q 243 63 225 63 q 335 81 294 63 q 408 127 375 99 q 466 192 440 156 q 530 287 492 228 q 583 379 567 345 q 613 436 599 412 q 564 555 589 496 q 512 668 539 614 q 456 768 484 722 q 399 849 428 814 q 339 902 369 883 q 278 922 308 922 q 251 917 261 922 q 236 907 242 913 q 229 891 231 900 q 227 873 227 882 q 228 853 227 863 q 229 835 229 843 q 224 821 229 824 q 210 819 218 819 q 186 835 197 819 q 168 878 175 851 q 156 939 160 905 q 152 1011 152 974 q 158 1034 152 1022 q 178 1056 164 1046 q 211 1073 191 1066 q 259 1079 231 1079 q 401 1040 337 1079 q 520 934 465 1001 q 622 777 575 867 q 714 585 670 687 q 791 727 754 657 q 859 858 828 797 q 915 968 891 919 q 956 1047 940 1017 q 989 1073 965 1063 q 1039 1083 1012 1083 q 1067 1079 1053 1083 q 1091 1066 1081 1075 q 1108 1043 1102 1058 q 1115 1009 1115 1029 q 1098 939 1115 980 q 1054 846 1082 903 q 987 719 1026 790 q 902 569 949 649 q 804 409 855 490 l 763 342 "},"\"":{"x_min":143,"x_max":634.5,"ha":805,"o":"m 143 869 q 144 901 143 882 q 146 944 145 920 q 149 993 147 967 q 154 1044 151 1019 q 165 1171 158 1103 q 175 1208 165 1192 q 201 1235 185 1224 q 238 1252 217 1246 q 278 1258 258 1258 q 313 1254 296 1258 q 342 1240 329 1249 q 362 1217 355 1232 q 370 1184 370 1203 q 369 1168 370 1176 q 364 1150 367 1159 q 342 1078 354 1117 q 318 1000 331 1039 q 294 927 306 962 q 273 867 282 892 q 240 819 261 835 q 197 803 219 803 q 159 820 175 803 q 143 869 143 836 m 407 869 q 408 901 407 882 q 410 944 409 920 q 413 993 411 967 q 418 1044 415 1019 q 429 1171 422 1103 q 439 1208 429 1192 q 465 1235 449 1224 q 502 1252 481 1246 q 542 1258 522 1258 q 577 1254 560 1258 q 606 1240 593 1249 q 626 1217 619 1232 q 634 1184 634 1203 q 633 1168 634 1176 q 628 1150 631 1159 q 606 1078 618 1117 q 582 1000 595 1039 q 558 927 570 962 q 537 867 546 892 q 504 819 525 835 q 461 803 483 803 q 423 820 439 803 q 407 869 407 836 "},"‹":{"x_min":54.9375,"x_max":640.921875,"ha":739,"o":"m 500 58 q 403 97 446 79 q 325 133 360 116 q 262 167 290 151 q 208 199 233 183 q 161 230 183 214 q 113 261 138 245 q 70 308 86 280 q 54 366 54 335 q 62 408 54 386 q 87 451 70 430 q 129 492 103 472 q 191 527 155 511 l 529 670 q 547 675 538 674 q 564 677 556 677 q 595 672 581 677 q 619 656 609 666 q 635 634 629 646 q 640 607 640 621 q 625 563 640 586 q 573 524 610 541 l 217 368 l 535 212 q 559 199 545 208 q 587 176 574 189 q 610 145 600 162 q 619 107 619 127 q 614 88 619 98 q 599 69 609 77 q 575 55 589 61 q 543 49 561 49 q 500 58 523 49 "},"˙":{"x_min":100,"x_max":338.734375,"ha":585,"o":"m 338 856 q 338 844 338 854 q 333 821 337 834 q 322 793 329 808 q 300 766 314 779 q 264 746 285 754 q 211 738 242 738 q 165 744 186 738 q 130 762 145 750 q 108 793 116 774 q 100 838 100 812 q 107 882 100 861 q 129 920 114 903 q 167 946 144 937 q 224 956 191 956 q 309 930 280 956 q 338 856 338 904 "},"ê":{"x_min":61,"x_max":731.75,"ha":511,"o":"m 436 1101 q 390 997 412 1046 q 371 954 381 976 q 352 911 361 931 q 335 873 343 891 q 322 843 327 856 q 293 794 307 811 q 264 768 279 776 q 235 758 250 760 q 207 757 221 757 q 192 761 199 757 q 177 773 184 765 q 167 793 171 782 q 164 818 163 804 q 171 844 165 831 l 295 1067 q 332 1130 315 1102 q 365 1175 348 1157 q 402 1203 381 1193 q 454 1212 423 1212 q 503 1201 484 1212 q 536 1168 523 1190 q 558 1115 549 1146 q 574 1043 566 1083 q 584 1005 580 1020 q 590 980 587 991 q 596 960 593 969 q 602 937 598 950 q 610 904 605 923 q 623 854 615 885 q 624 830 625 842 q 602 776 623 799 q 542 754 581 754 q 517 758 529 754 q 496 772 505 762 q 480 800 486 782 q 471 843 473 817 q 457 962 463 913 q 446 1042 450 1011 q 436 1101 440 1079 m 314 0 q 203 23 251 0 q 124 87 156 47 q 76 178 92 126 q 61 288 61 231 q 75 377 61 325 q 104 469 89 429 q 142 546 119 509 q 196 610 165 582 q 265 654 227 638 q 350 671 303 671 q 420 658 388 671 q 477 624 453 646 q 515 571 501 602 q 528 501 528 540 q 501 409 528 460 q 436 322 473 358 q 349 257 400 285 q 239 212 298 228 q 259 182 249 194 q 279 164 269 170 q 301 155 290 157 q 325 152 312 152 q 411 168 366 152 q 499 208 456 184 q 579 260 541 231 q 644 313 617 288 l 731 224 q 604 112 672 161 q 542 71 575 91 q 471 35 508 50 q 395 9 434 19 q 314 0 355 0 m 223 323 q 277 335 248 323 q 331 367 306 347 q 380 418 356 386 q 404 472 404 451 q 392 521 404 502 q 365 540 381 540 q 314 530 335 540 q 280 502 294 519 q 257 464 266 485 q 237 410 249 442 q 225 358 226 379 q 223 323 223 337 "},"Ï":{"x_min":-67.828125,"x_max":916.5,"ha":585,"o":"m 916 1425 q 915 1412 916 1422 q 912 1389 915 1403 q 902 1362 909 1376 q 883 1335 895 1348 q 852 1315 871 1323 q 806 1307 833 1307 q 737 1330 764 1307 q 711 1407 711 1354 q 717 1451 711 1430 q 736 1489 723 1472 q 769 1515 749 1505 q 818 1525 789 1525 q 891 1500 866 1525 q 916 1425 916 1474 m 599 1425 q 598 1412 599 1422 q 594 1389 598 1403 q 584 1362 591 1376 q 565 1335 577 1348 q 534 1315 553 1323 q 489 1307 516 1307 q 420 1330 446 1307 q 394 1407 394 1354 q 400 1451 394 1430 q 419 1489 406 1472 q 452 1515 431 1505 q 501 1525 472 1525 q 574 1500 548 1525 q 599 1425 599 1474 m 210 950 q 207 949 210 950 q 203 973 205 949 q 201 1038 201 997 q 209 1059 201 1046 q 234 1088 216 1073 q 280 1118 252 1103 q 353 1146 309 1133 q 456 1165 397 1158 q 593 1173 515 1173 q 698 1166 660 1173 q 754 1149 735 1160 q 778 1125 773 1139 q 782 1096 782 1110 q 779 1067 782 1081 q 761 1041 775 1052 q 718 1023 747 1029 q 640 1016 690 1016 q 596 1018 618 1016 q 564 888 577 946 q 539 783 550 831 q 519 692 528 735 q 499 607 509 650 q 478 516 489 564 q 452 409 467 469 q 418 274 437 349 q 375 104 399 199 q 393 103 379 104 q 427 98 408 101 q 467 89 446 95 q 506 76 489 84 q 535 57 524 68 q 547 33 547 47 q 498 -21 547 5 q 452 -21 484 -21 q 378 -21 421 -21 q 286 -21 335 -21 q 187 -21 237 -21 q 91 -21 138 -22 q 10 -21 45 -21 q -46 -20 -25 -20 q -67 -18 -67 -19 q -61 -11 -67 -16 q -46 0 -54 -7 q -31 19 -38 7 q -21 47 -23 30 q 1 68 -20 58 q 53 87 23 79 q 118 101 84 96 q 179 108 152 106 q 224 286 201 197 q 264 457 247 374 q 304 621 282 540 q 347 774 326 701 q 383 905 368 846 q 413 1004 397 963 q 369 999 388 1001 q 335 993 350 996 q 307 985 320 989 q 279 976 294 981 q 249 964 265 971 q 210 950 232 958 "},"„":{"x_min":194.65625,"x_max":720.265625,"ha":695,"o":"m 463 -48 q 469 -25 465 -39 q 477 4 472 -11 q 486 38 481 20 q 496 74 491 56 q 520 161 507 115 q 534 186 524 175 q 555 204 543 197 q 583 214 568 211 q 613 218 598 218 q 651 213 632 218 q 686 197 670 208 q 710 173 701 187 q 720 139 720 158 q 715 113 720 126 q 702 85 710 100 q 674 41 689 64 q 643 -5 659 18 q 614 -49 628 -28 q 588 -86 599 -71 q 552 -119 572 -109 q 514 -129 533 -129 q 476 -114 492 -129 q 459 -73 459 -99 q 463 -48 459 -62 m 198 -48 q 204 -25 200 -39 q 211 4 207 -11 q 221 38 216 20 q 231 74 226 56 q 255 161 242 115 q 268 186 259 175 q 290 204 278 197 q 318 214 303 211 q 348 218 333 218 q 386 213 367 218 q 420 197 405 208 q 445 173 436 187 q 455 139 455 158 q 450 113 455 126 q 437 85 445 100 q 409 41 424 64 q 378 -5 394 18 q 348 -49 363 -28 q 323 -86 334 -71 q 287 -119 307 -109 q 249 -129 267 -129 q 210 -114 227 -129 q 194 -73 194 -99 q 198 -48 194 -62 "},"Â":{"x_min":87,"x_max":1267.59375,"ha":1095,"o":"m 972 1655 q 926 1551 948 1600 q 907 1508 917 1530 q 888 1465 897 1485 q 871 1427 879 1445 q 858 1397 863 1410 q 829 1348 843 1365 q 800 1322 815 1330 q 771 1312 786 1314 q 743 1311 757 1311 q 728 1315 735 1311 q 713 1327 720 1319 q 703 1347 707 1336 q 700 1372 699 1358 q 707 1398 701 1385 l 831 1621 q 868 1684 851 1656 q 901 1729 884 1711 q 938 1757 917 1747 q 990 1766 959 1766 q 1039 1755 1020 1766 q 1072 1722 1059 1744 q 1094 1669 1085 1700 q 1110 1597 1102 1637 q 1120 1559 1116 1574 q 1126 1534 1123 1545 q 1132 1514 1129 1523 q 1138 1491 1134 1504 q 1146 1458 1141 1477 q 1159 1408 1151 1439 q 1160 1384 1161 1396 q 1138 1330 1159 1353 q 1078 1308 1117 1308 q 1053 1312 1065 1308 q 1032 1326 1041 1316 q 1016 1354 1022 1336 q 1007 1397 1009 1371 q 993 1516 999 1467 q 982 1596 986 1565 q 972 1655 976 1633 m 1267 152 q 1231 118 1253 137 q 1181 79 1209 99 q 1122 42 1154 60 q 1057 9 1090 23 q 990 -13 1024 -4 q 926 -21 956 -21 q 882 -14 904 -21 q 843 13 861 -6 q 814 68 825 33 q 803 160 803 103 q 806 211 803 184 q 815 270 809 238 q 729 124 777 194 q 627 14 681 53 q 516 -45 573 -25 q 400 -66 458 -66 q 281 -43 337 -66 q 181 21 224 -21 q 112 130 137 65 q 87 305 87 195 q 102 443 87 371 q 146 588 117 515 q 217 733 175 661 q 311 870 258 805 q 426 990 363 935 q 560 1086 489 1045 q 710 1149 631 1126 q 873 1172 788 1172 q 909 1168 896 1172 q 930 1159 923 1165 q 939 1147 937 1153 q 941 1136 941 1141 q 941 1130 941 1133 q 940 1126 940 1127 l 940 1122 q 977 1109 959 1112 q 1014 1105 996 1107 q 1049 1098 1033 1104 q 1077 1077 1065 1093 q 1096 1030 1089 1061 q 1103 947 1103 1000 q 1098 855 1103 907 q 1077 749 1092 804 q 1046 637 1062 694 q 1015 526 1030 580 q 986 425 1000 473 q 960 342 973 377 q 956 286 958 312 q 954 233 954 261 q 955 197 954 211 q 959 175 956 183 q 967 164 962 167 q 979 161 971 161 q 1013 168 992 161 q 1057 187 1034 175 q 1106 212 1081 198 q 1155 239 1131 226 q 1199 265 1178 253 q 1233 284 1219 276 l 1267 152 m 948 1028 q 899 1039 924 1035 q 849 1042 873 1042 q 741 1021 794 1042 q 637 963 687 1000 q 541 878 587 927 q 456 772 495 829 q 384 654 416 715 q 329 533 352 593 q 294 415 306 472 q 282 309 282 357 q 320 138 282 190 q 439 85 358 85 q 534 106 489 85 q 618 162 579 127 q 689 250 657 196 q 745 349 721 305 q 785 434 769 393 q 807 505 800 475 l 948 1028 "},"Í":{"x_min":-67.828125,"x_max":892.78125,"ha":585,"o":"m 599 1386 q 611 1412 603 1394 q 628 1453 618 1430 q 649 1502 638 1476 q 672 1554 660 1529 q 730 1686 698 1615 q 756 1719 738 1709 q 794 1729 774 1729 q 829 1723 812 1729 q 861 1704 847 1716 q 883 1674 875 1691 q 892 1637 892 1657 q 867 1571 892 1605 q 838 1532 854 1554 q 803 1488 821 1511 q 766 1441 785 1464 q 731 1397 748 1418 q 700 1360 714 1377 q 678 1333 686 1343 q 655 1313 666 1319 q 632 1308 643 1308 q 604 1320 616 1308 q 593 1353 593 1333 q 594 1369 593 1360 q 599 1386 596 1377 m 210 950 q 207 949 210 950 q 203 973 205 949 q 201 1038 201 997 q 209 1059 201 1046 q 234 1088 216 1073 q 280 1118 252 1103 q 353 1146 309 1133 q 456 1165 397 1158 q 593 1173 515 1173 q 698 1166 660 1173 q 754 1149 735 1160 q 778 1125 773 1139 q 782 1096 782 1110 q 779 1067 782 1081 q 761 1041 775 1052 q 718 1023 747 1029 q 640 1016 690 1016 q 596 1018 618 1016 q 564 888 577 946 q 539 783 550 831 q 519 692 528 735 q 499 607 509 650 q 478 516 489 564 q 452 409 467 469 q 418 274 437 349 q 375 104 399 199 q 393 103 379 104 q 427 98 408 101 q 467 89 446 95 q 506 76 489 84 q 535 57 524 68 q 547 33 547 47 q 498 -21 547 5 q 452 -21 484 -21 q 378 -21 421 -21 q 286 -21 335 -21 q 187 -21 237 -21 q 91 -21 138 -22 q 10 -21 45 -21 q -46 -20 -25 -20 q -67 -18 -67 -19 q -61 -11 -67 -16 q -46 0 -54 -7 q -31 19 -38 7 q -21 47 -23 30 q 1 68 -20 58 q 53 87 23 79 q 118 101 84 96 q 179 108 152 106 q 224 286 201 197 q 264 457 247 374 q 304 621 282 540 q 347 774 326 701 q 383 905 368 846 q 413 1004 397 963 q 369 999 388 1001 q 335 993 350 996 q 307 985 320 989 q 279 976 294 981 q 249 964 265 971 q 210 950 232 958 "},"´":{"x_min":69,"x_max":368.78125,"ha":413,"o":"m 75 816 q 87 842 79 824 q 104 883 94 860 q 125 932 114 906 q 148 984 136 959 q 206 1116 174 1045 q 232 1149 214 1139 q 270 1159 250 1159 q 305 1153 288 1159 q 337 1134 323 1146 q 359 1104 351 1121 q 368 1067 368 1087 q 343 1001 368 1035 q 314 962 330 984 q 279 918 297 941 q 242 871 261 894 q 207 827 224 848 q 176 790 190 807 q 154 763 162 773 q 131 743 142 749 q 108 738 119 738 q 80 750 92 738 q 69 783 69 763 q 70 799 69 790 q 75 816 72 807 "},"ì":{"x_min":20,"x_max":499.0625,"ha":364,"o":"m 313 827 q 318 810 316 818 q 319 794 319 801 q 308 761 319 774 q 280 749 296 749 q 257 754 268 749 q 234 774 245 760 q 211 801 225 784 q 181 838 198 818 q 145 882 164 859 q 109 929 127 905 q 74 973 91 952 q 45 1012 57 995 q 20 1078 20 1048 q 28 1115 20 1098 q 51 1145 37 1132 q 83 1164 65 1157 q 118 1170 100 1170 q 155 1160 138 1170 q 182 1127 173 1150 q 240 995 213 1056 q 262 943 251 970 q 284 894 274 917 q 301 853 294 871 q 313 827 308 835 m 499 144 q 438 97 474 122 q 360 50 402 71 q 274 14 317 28 q 191 0 230 0 q 131 10 155 0 q 92 37 107 20 q 71 80 77 55 q 65 136 65 106 q 74 235 65 179 q 98 353 83 292 q 129 474 113 413 q 156 585 144 534 q 175 615 161 602 q 207 635 189 627 q 245 647 225 643 q 279 650 264 650 q 318 640 308 650 q 328 612 328 629 q 321 569 328 597 q 304 505 313 541 q 283 428 294 469 q 262 347 273 387 q 245 267 251 306 q 238 197 238 228 q 245 148 238 166 q 273 130 252 130 q 327 147 297 130 q 387 188 357 164 q 447 238 418 212 q 499 282 476 264 l 499 144 "},"±":{"x_min":146,"x_max":752.21875,"ha":877,"o":"m 385 415 l 233 415 q 195 420 211 415 q 167 435 178 425 q 151 455 156 444 q 146 479 146 467 q 151 503 146 491 q 168 524 157 515 q 196 539 179 533 q 236 545 213 545 l 385 545 l 385 699 q 391 733 385 718 q 408 758 397 748 q 432 774 419 769 q 458 780 445 780 q 497 763 480 780 q 515 712 515 747 l 515 545 l 684 545 q 735 527 719 545 q 752 488 752 510 q 746 462 752 475 q 730 438 741 449 q 705 421 720 427 q 671 415 690 415 l 515 415 l 515 264 q 509 224 515 241 q 494 196 503 207 q 473 179 485 185 q 449 174 461 174 q 425 179 437 174 q 405 195 414 184 q 390 223 395 206 q 385 261 385 239 l 385 415 m 606 130 q 626 128 615 130 q 648 120 638 126 q 664 104 657 114 q 671 78 671 94 q 668 51 671 65 q 655 26 664 37 q 629 7 646 14 q 584 0 612 0 l 302 0 q 268 7 281 0 q 248 26 255 15 q 239 50 241 37 q 237 73 237 63 q 239 92 237 82 q 247 110 241 102 q 267 124 254 119 q 302 130 281 130 l 606 130 "},"Ú":{"x_min":65,"x_max":1041.625,"ha":950,"o":"m 612 1386 q 624 1412 616 1394 q 641 1453 631 1430 q 662 1502 651 1476 q 685 1554 673 1529 q 743 1686 711 1615 q 769 1719 751 1709 q 807 1729 787 1729 q 842 1723 825 1729 q 874 1704 860 1716 q 896 1674 888 1691 q 905 1637 905 1657 q 880 1571 905 1605 q 851 1532 867 1554 q 816 1488 834 1511 q 779 1441 798 1464 q 744 1397 761 1418 q 713 1360 727 1377 q 691 1333 699 1343 q 668 1313 679 1319 q 645 1308 656 1308 q 617 1320 629 1308 q 606 1353 606 1333 q 607 1369 606 1360 q 612 1386 609 1377 m 846 1063 q 859 1119 848 1098 q 886 1152 870 1140 q 923 1168 903 1164 q 964 1172 944 1172 q 997 1168 983 1172 q 1021 1153 1011 1164 q 1036 1125 1031 1143 q 1041 1080 1041 1108 q 1019 731 1041 893 q 956 438 996 570 q 858 204 915 306 q 732 33 801 102 q 584 -72 663 -36 q 420 -108 505 -108 q 250 -66 318 -108 q 140 43 181 -25 q 82 205 99 113 q 65 399 65 297 q 82 586 65 479 q 109 747 100 693 q 138 870 118 801 q 180 998 159 939 q 206 1059 193 1037 q 232 1092 219 1081 q 258 1105 245 1102 q 284 1107 270 1107 q 330 1105 310 1107 q 363 1096 350 1102 q 383 1077 377 1089 q 390 1045 390 1065 l 390 1040 q 395 1022 393 1032 q 405 1002 397 1013 q 383 932 396 976 q 348 832 371 888 q 313 715 325 777 q 283 586 301 653 q 251 453 265 519 q 238 330 238 388 q 248 217 238 269 q 283 126 258 164 q 345 65 307 87 q 441 43 384 43 q 525 68 485 43 q 599 135 564 92 q 665 240 634 179 q 722 374 696 301 q 768 531 747 448 q 804 702 789 614 q 831 882 820 791 q 846 1063 841 974 "},"|":{"x_min":320,"x_max":669.28125,"ha":846,"o":"m 484 1150 q 495 1182 486 1163 q 519 1217 504 1201 q 555 1242 534 1233 q 604 1252 576 1252 q 635 1243 623 1252 q 655 1221 647 1234 q 665 1195 662 1209 q 669 1173 669 1182 q 668 1154 669 1165 q 666 1135 667 1144 q 663 1114 665 1126 q 660 1094 661 1102 q 646 1000 654 1055 q 627 876 637 945 q 605 731 616 808 q 582 577 593 655 q 560 426 571 500 q 539 288 549 352 q 521 171 529 223 q 509 86 514 119 q 491 36 505 56 q 459 3 477 16 q 424 -15 442 -10 q 392 -21 405 -21 q 363 -12 376 -21 q 340 11 349 -3 q 325 45 330 25 q 320 87 320 65 q 320 109 320 97 q 323 133 321 120 q 333 200 326 155 q 350 306 340 245 q 371 442 360 368 q 395 594 383 516 q 420 752 407 672 q 444 906 433 833 q 466 1042 456 979 q 484 1150 477 1105 "},"§":{"x_min":152,"x_max":859.5,"ha":982,"o":"m 840 427 q 816 334 840 375 q 748 261 791 293 q 774 207 765 236 q 783 143 783 178 q 756 47 783 88 q 684 -22 728 5 q 583 -64 639 -50 q 469 -79 527 -79 q 351 -64 408 -79 q 250 -20 294 -49 q 179 53 206 9 q 152 156 152 97 q 162 212 152 188 q 188 252 172 236 q 222 276 204 268 q 256 285 240 285 q 299 276 282 285 q 315 250 315 268 q 309 213 315 234 q 303 160 303 191 q 318 111 303 132 q 355 77 332 91 q 409 57 379 64 q 473 51 440 51 q 521 57 497 51 q 565 76 545 63 q 597 107 585 88 q 610 150 610 126 q 593 205 610 180 q 550 249 577 229 q 489 288 524 269 q 420 324 455 306 q 350 362 384 342 q 289 407 316 383 q 246 462 262 432 q 230 532 230 493 q 255 614 230 575 q 333 686 280 654 q 289 743 306 712 q 273 812 273 774 q 292 887 273 850 q 351 954 312 924 q 450 1001 391 983 q 588 1020 509 1020 q 684 1002 636 1020 q 771 954 732 985 q 835 878 810 922 q 859 780 859 834 q 852 733 859 753 q 835 702 845 714 q 810 683 824 689 q 783 678 797 678 q 742 692 760 678 q 725 732 725 707 q 728 755 725 743 q 732 778 732 767 q 718 825 732 804 q 682 860 705 845 q 630 882 659 874 q 569 890 600 890 q 512 881 535 890 q 474 859 489 872 q 453 831 459 845 q 446 803 446 816 q 463 767 446 784 q 507 732 479 749 q 569 697 534 715 q 641 659 604 679 q 714 616 678 639 q 778 564 750 593 q 823 503 806 536 q 840 427 840 469 m 689 427 q 664 479 689 455 q 602 524 640 502 q 518 569 564 546 q 426 617 471 591 q 393 578 404 599 q 381 536 381 557 q 393 504 381 519 q 426 476 405 490 q 473 448 446 462 q 531 420 500 435 q 592 389 561 405 q 653 353 624 372 q 679 387 670 368 q 689 427 689 406 "},"Ý":{"x_min":132.9375,"x_max":1115.671875,"ha":1023,"o":"m 770 1386 q 782 1412 774 1394 q 799 1453 789 1430 q 820 1502 809 1476 q 843 1554 831 1529 q 901 1686 869 1615 q 927 1719 909 1709 q 965 1729 945 1729 q 1000 1723 983 1729 q 1032 1704 1018 1716 q 1054 1674 1046 1691 q 1063 1637 1063 1657 q 1038 1571 1063 1605 q 1009 1532 1025 1554 q 974 1488 992 1511 q 937 1441 956 1464 q 902 1397 919 1418 q 871 1360 885 1377 q 849 1333 857 1343 q 826 1313 837 1319 q 803 1308 814 1308 q 775 1320 787 1308 q 764 1353 764 1333 q 765 1369 764 1360 q 770 1386 767 1377 m 763 342 q 628 166 761 335 q 546 69 583 110 q 479 2 510 29 q 419 -39 448 -24 q 364 -60 391 -54 q 307 -67 337 -67 q 252 -54 280 -67 q 201 -26 224 -42 q 162 4 178 -10 q 143 28 146 20 q 136 44 139 34 q 132 64 132 54 q 137 82 132 74 q 153 90 142 90 q 164 88 158 90 q 205 69 185 75 q 243 63 225 63 q 335 81 294 63 q 408 127 375 99 q 466 192 440 156 q 530 287 492 228 q 583 379 567 345 q 613 436 599 412 q 564 555 589 496 q 512 668 539 614 q 456 768 484 722 q 399 849 428 814 q 339 902 369 883 q 278 922 308 922 q 251 917 261 922 q 236 907 242 913 q 229 891 231 900 q 227 873 227 882 q 228 853 227 863 q 229 835 229 843 q 224 821 229 824 q 210 819 218 819 q 186 835 197 819 q 168 878 175 851 q 156 939 160 905 q 152 1011 152 974 q 158 1034 152 1022 q 178 1056 164 1046 q 211 1073 191 1066 q 259 1079 231 1079 q 401 1040 337 1079 q 520 934 465 1001 q 622 777 575 867 q 714 585 670 687 q 791 727 754 657 q 859 858 828 797 q 915 968 891 919 q 956 1047 940 1017 q 989 1073 965 1063 q 1039 1083 1012 1083 q 1067 1079 1053 1083 q 1091 1066 1081 1075 q 1108 1043 1102 1058 q 1115 1009 1115 1029 q 1098 939 1115 980 q 1054 846 1082 903 q 987 719 1026 790 q 902 569 949 649 q 804 409 855 490 l 763 342 "},"b":{"x_min":48.8125,"x_max":798.953125,"ha":658,"o":"m 306 548 q 376 623 344 595 q 438 652 407 652 q 510 634 478 652 q 563 588 541 617 q 596 521 584 559 q 607 443 607 484 q 605 377 607 408 q 595 316 602 346 q 575 257 588 286 q 542 196 563 227 q 592 224 567 210 q 642 254 617 238 q 693 291 668 270 q 746 338 719 311 l 798 225 q 724 166 761 191 q 648 122 687 141 q 567 90 609 103 q 477 65 524 76 q 446 42 466 54 q 406 21 425 31 q 358 0 383 10 l 341 0 q 226 3 235 0 q 123 38 144 25 q 48 90 84 63 q 56 213 50 144 q 71 360 61 274 q 97 548 85 489 q 113 697 103 615 q 141 852 124 759 q 185 1025 158 946 q 246 1166 212 1104 q 319 1265 280 1228 q 405 1302 359 1302 q 488 1285 457 1302 q 536 1237 519 1267 q 558 1166 553 1207 q 564 1079 564 1125 q 540 947 564 1015 q 477 811 516 879 q 391 678 438 743 q 295 556 343 613 l 306 548 m 367 500 q 320 490 343 500 q 275 458 296 480 q 239 404 255 437 q 216 325 209 340 q 207 244 216 324 q 201 189 203 213 q 195 139 197 163 q 240 128 217 132 q 281 127 259 123 q 322 130 303 130 q 365 144 346 130 q 398 180 384 158 q 424 233 413 203 q 442 294 435 262 q 452 357 449 326 q 456 414 456 388 q 452 447 456 431 q 438 474 448 462 q 411 492 428 485 q 367 500 394 500 m 434 1118 q 432 1129 434 1120 q 428 1148 431 1138 q 417 1165 424 1157 q 399 1172 411 1172 q 371 1153 386 1172 q 343 1100 357 1133 q 315 1024 329 1067 q 289 934 302 981 q 266 837 276 886 q 247 745 256 788 q 230 665 238 701 q 218 606 223 629 q 259 680 236 642 q 304 760 281 719 q 349 844 327 801 q 389 932 371 887 q 418 1023 407 977 q 434 1118 430 1070 "},"q":{"x_min":22,"x_max":716.546875,"ha":585,"o":"m 475 0 q 499 -206 499 -130 q 485 -334 499 -283 q 443 -423 471 -386 q 282 -499 386 -499 q 194 -459 232 -499 q 152 -347 152 -415 q 180 -178 152 -278 q 226 -14 208 -77 q 260 108 244 49 q 213 106 244 106 q 144 126 182 106 q 78 179 106 145 q 22 347 22 249 q 51 480 22 416 q 124 584 81 543 q 333 672 215 672 q 481 618 430 672 q 527 494 526 571 q 521 447 527 467 q 503 392 515 427 q 484 330 492 357 q 469 275 477 302 q 454 225 460 247 q 444 189 448 203 q 440 174 440 175 q 442 163 439 174 q 449 135 445 153 q 482 130 462 130 q 533 147 502 130 q 598 188 565 164 q 662 238 631 212 q 716 282 694 263 l 716 130 q 475 0 605 18 m 376 520 q 325 541 354 541 q 267 524 295 541 q 220 481 239 507 q 187 414 201 455 q 173 349 173 373 q 177 300 173 325 q 194 252 182 274 q 282 195 222 200 q 289 217 281 199 q 299 260 297 235 q 312 299 301 284 q 335 370 308 310 q 376 520 362 429 m 373 18 q 364 -15 370 9 l 345 -77 q 272 -338 278 -293 q 278 -360 272 -351 q 304 -368 285 -368 q 341 -352 323 -368 q 370 -311 359 -337 q 391 -195 391 -262 q 373 18 391 -63 "},"Ö":{"x_min":65,"x_max":1106.625,"ha":1096,"o":"m 985 1425 q 984 1412 985 1422 q 981 1389 984 1403 q 971 1362 978 1376 q 952 1335 964 1348 q 921 1315 940 1323 q 875 1307 902 1307 q 806 1330 833 1307 q 780 1407 780 1354 q 786 1451 780 1430 q 805 1489 792 1472 q 838 1515 818 1505 q 887 1525 858 1525 q 960 1500 935 1525 q 985 1425 985 1474 m 668 1425 q 667 1412 668 1422 q 663 1389 667 1403 q 653 1362 660 1376 q 634 1335 646 1348 q 603 1315 622 1323 q 558 1307 585 1307 q 489 1330 515 1307 q 463 1407 463 1354 q 469 1451 463 1430 q 488 1489 475 1472 q 521 1515 500 1505 q 570 1525 541 1525 q 643 1500 617 1525 q 668 1425 668 1474 m 503 -130 q 320 -88 402 -130 q 182 25 239 -47 q 95 201 126 99 q 65 424 65 302 q 74 559 65 490 q 103 696 83 628 q 151 831 122 765 q 218 955 180 897 q 304 1064 256 1014 q 409 1149 351 1113 q 532 1205 466 1185 q 674 1225 598 1225 q 856 1188 776 1225 q 992 1085 937 1151 q 1077 927 1047 1019 q 1106 725 1106 836 q 1088 536 1106 634 q 1036 343 1070 438 q 949 162 1001 248 q 831 11 898 76 q 681 -91 764 -53 q 503 -130 599 -130 m 519 27 q 620 48 573 27 q 706 106 667 69 q 777 193 745 143 q 834 299 809 242 q 878 417 859 356 q 909 537 897 478 q 927 652 921 596 q 933 752 933 707 q 918 875 933 817 q 875 976 904 933 q 803 1043 846 1018 q 701 1068 759 1068 q 580 1037 638 1068 q 470 955 522 1007 q 376 835 419 904 q 303 692 333 767 q 255 539 272 617 q 238 390 238 461 q 257 246 238 313 q 313 131 277 179 q 401 55 349 82 q 519 27 453 27 "},"ﬂ":{"x_min":46,"x_max":1094.921875,"ha":882,"o":"m 732 0 q 675 23 701 0 q 626 87 648 47 q 589 183 605 128 q 568 302 574 238 q 493 283 529 290 q 428 273 457 277 q 365 269 395 270 q 412 176 391 224 q 446 83 431 134 q 460 -19 460 32 q 458 -45 460 -25 q 452 -94 456 -65 q 441 -157 449 -123 q 421 -226 433 -191 q 390 -294 408 -262 q 349 -352 373 -327 q 294 -393 325 -377 q 224 -409 263 -409 q 159 -392 187 -409 q 112 -346 132 -375 q 80 -279 93 -317 q 59 -198 66 -241 q 49 -111 52 -155 q 46 -25 46 -67 q 47 15 46 -22 q 56 116 49 53 q 72 261 63 179 q 91 436 81 344 q 119 625 101 528 q 163 813 138 721 q 221 985 188 904 q 294 1127 253 1066 q 384 1223 334 1188 q 494 1258 434 1258 q 542 1250 517 1258 q 588 1224 567 1242 q 623 1176 609 1206 q 637 1102 637 1146 q 624 1010 637 1062 q 588 899 611 958 q 533 776 565 840 q 464 649 501 713 q 385 524 426 586 q 300 410 343 463 l 299 399 q 320 407 313 405 q 335 409 328 409 q 351 407 345 409 q 361 404 356 406 q 371 400 366 402 q 383 399 376 399 q 484 410 439 399 q 563 436 529 420 q 577 545 566 483 q 604 675 587 606 q 645 816 622 744 q 698 955 669 888 q 760 1083 726 1023 q 830 1188 793 1144 q 907 1260 867 1233 q 989 1286 947 1286 q 1041 1274 1021 1286 q 1073 1243 1062 1262 q 1090 1199 1085 1223 q 1094 1149 1094 1174 q 1079 1019 1094 1085 q 1039 886 1064 953 q 979 752 1013 820 q 909 619 945 685 q 835 489 872 553 q 767 362 799 425 q 760 344 764 355 q 753 320 757 333 q 747 292 750 307 q 741 263 743 277 l 741 253 q 745 218 741 235 q 754 187 749 201 q 765 165 759 173 q 777 157 772 157 q 807 163 790 157 q 843 179 824 169 q 882 201 862 188 q 921 226 902 213 q 1012 296 964 256 l 1072 146 q 949 73 1010 105 q 895 46 923 59 q 838 23 867 33 q 783 6 810 12 q 732 0 756 0 m 743 540 q 806 662 774 594 q 867 803 838 730 q 916 948 895 876 q 943 1081 936 1019 q 941 1115 943 1101 q 935 1129 940 1129 q 884 1096 913 1129 q 828 1003 855 1063 q 778 859 801 944 q 744 669 755 774 q 743 646 743 662 q 742 610 742 630 l 742 562 q 743 540 742 550 m 242 299 q 237 216 240 299 q 229 101 234 133 q 220 30 224 69 q 208 -46 215 -8 q 199 -36 200 -83 q 197 38 197 11 q 202 -120 197 -61 q 212 -209 206 -179 q 227 -249 219 -240 q 243 -258 235 -258 q 285 -237 269 -258 q 302 -205 301 -216 q 306 -176 304 -194 q 309 -115 309 -158 q 305 -43 309 -86 q 297 44 302 -1 q 285 136 292 91 q 271 218 278 182 q 256 277 264 254 q 242 299 248 299 m 405 1040 q 348 866 369 941 q 316 733 327 791 q 298 617 306 675 q 284 511 291 560 q 362 676 322 595 q 435 828 401 758 q 492 951 470 897 q 514 1032 514 1004 q 504 1089 514 1071 q 477 1107 494 1107 q 433 1090 448 1107 q 405 1040 417 1073 "},"z":{"x_min":18.3125,"x_max":613.796875,"ha":438,"o":"m 18 121 q 23 146 18 136 q 37 165 29 156 q 58 183 46 174 q 82 206 69 193 l 299 507 q 278 517 287 512 q 262 526 269 522 q 248 531 255 529 q 231 534 240 534 q 196 533 210 534 q 171 528 181 532 q 154 516 162 524 q 137 493 146 508 q 101 446 115 461 q 75 431 87 431 q 60 440 65 431 q 56 467 56 450 q 56 481 56 474 q 59 497 57 489 q 88 594 69 557 q 130 651 107 631 q 179 678 153 671 q 226 685 204 685 q 259 677 242 685 q 291 660 275 670 q 323 642 307 650 q 358 634 340 634 q 382 633 371 633 q 403 633 394 633 q 446 634 430 633 q 471 636 463 635 q 483 639 480 638 q 489 640 486 640 q 523 623 512 640 q 533 577 533 606 q 529 537 533 554 q 516 523 528 532 q 475 507 503 514 q 448 464 467 492 q 404 403 429 437 q 349 327 379 370 q 295 253 319 284 q 253 199 271 222 q 229 168 235 176 l 225 154 q 238 149 226 154 q 265 139 249 144 q 298 128 280 133 q 328 123 315 123 q 380 132 356 123 q 423 153 403 140 q 460 181 443 166 q 494 209 478 196 q 525 231 510 222 q 558 239 541 239 q 581 233 571 239 q 599 217 592 227 q 610 196 606 208 q 613 172 613 184 q 598 132 613 153 q 558 91 583 111 q 500 54 533 72 q 431 22 467 36 q 357 1 394 9 q 286 -6 319 -6 q 271 -3 283 -6 q 241 4 260 -1 q 197 20 222 11 q 142 45 172 30 q 97 37 116 37 q 62 44 77 37 q 37 63 47 51 q 23 89 27 74 q 18 121 18 104 "}}}
